SplineFontDB: 3.0
FontName: Corben
FullName: Corben
FamilyName: Corben
Weight: Book
Copyright: Copyright (c) 2011 by vernon adams. All rights reserved.
Version: 1.000
ItalicAngle: 0
UnderlinePosition: -103
UnderlineWidth: 102
Ascent: 1638
Descent: 410
sfntRevision: 0x00010000
LayerCount: 2
Layer: 0 1 "Back"  1
Layer: 1 1 "Fore"  0
NeedsXUIDChange: 1
XUID: [1021 14 500265001 14186328]
FSType: 0
OS2Version: 2
OS2_WeightWidthSlopeOnly: 0
OS2_UseTypoMetrics: 1
CreationTime: 1317818700
ModificationTime: 1317816714
PfmFamily: 17
TTFWeight: 400
TTFWidth: 5
LineGap: 0
VLineGap: 0
Panose: 2 15 5 3 2 0 0 2 0 4
OS2TypoAscent: 2182
OS2TypoAOffset: 0
OS2TypoDescent: -494
OS2TypoDOffset: 0
OS2TypoLinegap: 0
OS2WinAscent: 2182
OS2WinAOffset: 0
OS2WinDescent: 494
OS2WinDOffset: 0
HheadAscent: 2182
HheadAOffset: 0
HheadDescent: -494
HheadDOffset: 0
OS2SubXSize: 1434
OS2SubYSize: 1331
OS2SubXOff: 0
OS2SubYOff: 287
OS2SupXSize: 1434
OS2SupYSize: 1331
OS2SupXOff: 0
OS2SupYOff: 977
OS2StrikeYSize: 102
OS2StrikeYPos: 512
OS2Vendor: 'newt'
OS2CodePages: 00000001.00000000
OS2UnicodeRanges: 8000006f.4000000b.00000000.00000000
MarkAttachClasses: 1
DEI: 91125
ShortTable: maxp 16
  1
  0
  267
  171
  6
  172
  4
  1
  0
  0
  0
  0
  0
  0
  3
  1
EndShort
LangName: 1033 "" "" "Regular" "vernonadams: Corben: 2011" "" "Version 1.000" "" "Corben is a trademark of vernon adams." "vernon adams" "vernon adams" "Copyright (c) 2009 by vernon adams. All rights reserved." "newtypography.co.uk" "newtypography.co.uk" "" "http://scripts.sil.org/OFL" "" "" "" "Corben" 
GaspTable: 3 8 2 16 1 65535 3
Encoding: Custom
UnicodeInterp: none
NameList: Adobe Glyph List
DisplaySize: -48
AntiAlias: 1
FitToEm: 1
WidthSeparation: 324
WinInfo: 27 27 11
BeginPrivate: 0
EndPrivate
Grid
-2048 1006.13330078 m 0
 4096 1006.13330078 l 0
EndSplineSet
BeginChars: 350 350

StartChar: numbersign
Encoding: 5 35 4
Width: 1415
Flags: W
LayerCount: 2
Fore
SplineSet
188 1030 m 2,0,1
 107 1030 107 1030 107 1106 c 256,2,3
 107 1144 107 1144 130 1164.5 c 128,-1,4
 153 1185 153 1185 192 1185 c 2,5,-1
 421 1185 l 1,6,-1
 529 1666 l 1,7,8
 537 1715 537 1715 565 1738.5 c 128,-1,9
 593 1762 593 1762 623 1762 c 256,10,11
 653 1762 653 1762 676.5 1739 c 128,-1,12
 700 1716 700 1716 700 1686 c 128,-1,13
 700 1656 700 1656 697 1640 c 2,14,-1
 598 1185 l 1,15,-1
 1021 1185 l 1,16,-1
 1129 1666 l 1,17,18
 1138 1715 1138 1715 1166 1738.5 c 128,-1,19
 1194 1762 1194 1762 1223.5 1762 c 128,-1,20
 1253 1762 1253 1762 1276.5 1739.5 c 128,-1,21
 1300 1717 1300 1717 1300 1686.5 c 128,-1,22
 1300 1656 1300 1656 1297 1640 c 2,23,-1
 1198 1185 l 1,24,-1
 1362 1185 l 2,25,26
 1397 1185 1397 1185 1420.5 1167.5 c 128,-1,27
 1444 1150 1444 1150 1444 1115 c 0,28,29
 1444 1030 1444 1030 1359 1030 c 2,30,-1
 1163 1030 l 1,31,-1
 1063 585 l 1,32,-1
 1253 585 l 2,33,34
 1288 585 1288 585 1311.5 567.5 c 128,-1,35
 1335 550 1335 550 1335 515 c 0,36,37
 1335 430 1335 430 1250 430 c 2,38,-1
 1028 430 l 1,39,-1
 933 -6 l 2,40,41
 922 -57 922 -57 892.5 -81 c 128,-1,42
 863 -105 863 -105 832.5 -105 c 128,-1,43
 802 -105 802 -105 778.5 -83 c 128,-1,44
 755 -61 755 -61 755 -33 c 128,-1,45
 755 -5 755 -5 758 10 c 2,46,-1
 852 430 l 1,47,-1
 428 430 l 1,48,-1
 333 -6 l 1,49,50
 324 -57 324 -57 295 -81.5 c 128,-1,51
 266 -106 266 -106 235 -106 c 256,52,53
 204 -106 204 -106 179.5 -83.5 c 128,-1,54
 155 -61 155 -61 155 -33 c 128,-1,55
 155 -5 155 -5 158 10 c 2,56,-1
 252 430 l 1,57,-1
 79 430 l 2,58,59
 -2 430 -2 430 -2 506 c 256,60,61
 -2 544 -2 544 21 564.5 c 128,-1,62
 44 585 44 585 83 585 c 2,63,-1
 286 585 l 1,64,-1
 386 1030 l 1,65,-1
 188 1030 l 2,0,1
463 585 m 1,66,-1
 886 585 l 1,67,-1
 986 1030 l 1,68,-1
 563 1030 l 1,69,-1
 463 585 l 1,66,-1
EndSplineSet
EndChar

StartChar: dollar
Encoding: 6 36 5
Width: 1094
Flags: W
LayerCount: 2
Fore
SplineSet
458 -161 m 0,0,1
 420 -161 420 -161 420 -107.5 c 128,-1,2
 420 -54 420 -54 428.5 8.5 c 128,-1,3
 437 71 437 71 444 131 c 1,4,5
 297.653320312 144.84375 297.653320312 144.84375 214.827148438 179.421875 c 128,-1,6
 132 214 132 214 101.5 239.5 c 128,-1,7
 71 265 71 265 71 291 c 0,8,9
 71 295 71 295 81.5 318.5 c 0,10,11
 115 393.4765625 115 393.4765625 115 517 c 0,12,13
 115 542 115 542 129 558 c 128,-1,14
 143 574 143 574 161.5 574 c 128,-1,15
 180 574 180 574 191.5 553 c 128,-1,16
 203 532 203 532 213 500 c 128,-1,17
 223 468 223 468 235.5 428.5 c 128,-1,18
 248 389 248 389 274 352.5 c 0,19,20
 336.14453125 265.258789062 336.14453125 265.258789062 456 243 c 1,21,-1
 501 653 l 1,22,23
 289.821289062 713.916992188 289.821289062 713.916992188 227.911132812 751.958007812 c 128,-1,24
 166 790 166 790 135.5 823.5 c 0,25,26
 70 895.442382812 70 895.442382812 70 999 c 0,27,28
 70 1203 70 1203 335 1278 c 0,29,30
 433.93359375 1306 433.93359375 1306 550 1306 c 2,31,-1
 560.5 1306 l 2,32,33
 566 1306 566 1306 572 1305 c 1,34,-1
 602 1575 l 2,35,36
 605 1601 605 1601 621 1617 c 128,-1,37
 637 1633 637 1633 652.5 1633 c 128,-1,38
 668 1633 668 1633 679.5 1622 c 128,-1,39
 691 1611 691 1611 691 1595.5 c 128,-1,40
 691 1580 691 1580 690 1575 c 2,41,-1
 660 1295 l 1,42,43
 890.94140625 1251.94335938 890.94140625 1251.94335938 981.5 1133 c 0,44,45
 1015 1089 1015 1089 1015 1044 c 0,46,47
 1015 973.452830189 1015 973.452830189 959.399902344 947.226415094 c 128,-1,48
 903.799804688 921 903.799804688 921 858.81656901 921 c 128,-1,49
 813.833333333 921 813.833333333 921 804.916666667 931.700195312 c 128,-1,50
 796 942.400390625 796 942.400390625 796 979.700195312 c 0,51,52
 796 1063.80487805 796 1063.80487805 755.109863281 1118.65781012 c 128,-1,53
 714.219726562 1173.51074219 714.219726562 1173.51074219 649 1196 c 1,54,-1
 608 813 l 1,55,56
 828.384765625 746.884765625 828.384765625 746.884765625 902.692382812 700.442382812 c 0,57,58
 1057 603.999868578 1057 603.999868578 1057 475.902531692 c 128,-1,59
 1057 347.805194805 1057 347.805194805 978.978797967 271.810517501 c 128,-1,60
 900.957595935 195.815840196 900.957595935 195.815840196 785.361122186 160.407920098 c 128,-1,61
 669.764648438 125 669.764648438 125 559 125 c 2,62,-1
 534 125 l 1,63,-1
 515 -59 l 1,64,65
 515 -119.545898438 515 -119.545898438 496 -140.272460938 c 128,-1,66
 477 -161 477 -161 458 -161 c 0,0,1
559 234 m 2,67,68
 843 234 843 234 843 417 c 0,69,70
 843 530.634765625 843 530.634765625 687.5 592.5 c 0,71,72
 641 611 641 611 588 627 c 1,73,-1
 546 234 l 1,74,-1
 559 234 l 2,67,68
336.060546875 919.29296875 m 128,-1,76
 403.12109375 874.5859375 403.12109375 874.5859375 521 839 c 1,77,-1
 562 1211 l 1,78,79
 555 1212 555 1212 549 1212 c 2,80,-1
 519 1212 l 2,81,82
 438.209302326 1212 438.209302326 1212 379.604651163 1180.5 c 0,83,84
 269 1121.05 269 1121.05 269 1042.525 c 128,-1,75
 269 964 269 964 336.060546875 919.29296875 c 128,-1,76
EndSplineSet
EndChar

StartChar: percent
Encoding: 7 37 6
Width: 1940
Flags: W
LayerCount: 2
Fore
SplineSet
572 -110 m 0,0,1
 530 -110 530 -110 530 -51.5 c 0,2,3
 530 -22 530 -22 549 16 c 2,4,-1
 1299 1558 l 2,5,6
 1337.04882812 1636 1337.04882812 1636 1386 1636 c 0,7,8
 1429 1636 1429 1636 1429 1578 c 0,9,10
 1429 1549 1429 1549 1410 1510 c 2,11,-1
 659 -32 l 2,12,13
 620.951171875 -110 620.951171875 -110 572 -110 c 0,0,1
103.834960938 779.510742188 m 128,-1,15
 3 892.021484375 3 892.021484375 3 1064.05273438 c 128,-1,16
 3 1236.08300781 3 1236.08300781 116.8359375 1342.54101562 c 128,-1,17
 230.672851562 1449 230.672851562 1449 395.708984375 1449 c 128,-1,18
 560.745117188 1449 560.745117188 1449 662.873046875 1341.60839844 c 128,-1,19
 765 1234.21679688 765 1234.21679688 765 1059.875 c 128,-1,20
 765 885.532226562 765 885.532226562 649.369140625 776.265625 c 128,-1,21
 533.73828125 667 533.73828125 667 369.204101562 667 c 128,-1,14
 204.669921875 667 204.669921875 667 103.834960938 779.510742188 c 128,-1,15
224.510742188 853.689453125 m 128,-1,23
 286.021484375 754 286.021484375 754 394.91015625 754 c 128,-1,24
 503.799804688 754 503.799804688 754 557.900390625 837.23046875 c 128,-1,25
 612 920.461914062 612 920.461914062 612 1043.62890625 c 128,-1,26
 612 1166.796875 612 1166.796875 549.484375 1266.3984375 c 128,-1,27
 486.967773438 1366 486.967773438 1366 376.796875 1366 c 128,-1,28
 266.625 1366 266.625 1366 214.8125 1283.09960938 c 128,-1,29
 163 1200.20019531 163 1200.20019531 163 1076.79003906 c 128,-1,22
 163 953.37890625 163 953.37890625 224.510742188 853.689453125 c 128,-1,23
1255.83496094 110.510742188 m 128,-1,31
 1155 223.021484375 1155 223.021484375 1155 395.052734375 c 128,-1,32
 1155 567.083007812 1155 567.083007812 1268.8359375 673.541015625 c 128,-1,33
 1382.67285156 780 1382.67285156 780 1547.70898438 780 c 128,-1,34
 1712.74511719 780 1712.74511719 780 1814.87304688 672.608398438 c 128,-1,35
 1917 565.216796875 1917 565.216796875 1917 390.875 c 128,-1,36
 1917 216.532226562 1917 216.532226562 1801.36914062 107.265625 c 128,-1,37
 1685.73828125 -2 1685.73828125 -2 1521.20410156 -2 c 128,-1,30
 1356.66992188 -2 1356.66992188 -2 1255.83496094 110.510742188 c 128,-1,31
1376.51074219 184.689453125 m 128,-1,39
 1438.02148438 85 1438.02148438 85 1546.91015625 85 c 128,-1,40
 1655.79980469 85 1655.79980469 85 1709.90039062 168.23046875 c 128,-1,41
 1764 251.461914062 1764 251.461914062 1764 374.62890625 c 128,-1,42
 1764 497.796875 1764 497.796875 1701.484375 597.3984375 c 128,-1,43
 1638.96777344 697 1638.96777344 697 1528.796875 697 c 128,-1,44
 1418.625 697 1418.625 697 1366.8125 614.099609375 c 128,-1,45
 1315 531.200195312 1315 531.200195312 1315 407.790039062 c 128,-1,38
 1315 284.37890625 1315 284.37890625 1376.51074219 184.689453125 c 128,-1,39
EndSplineSet
EndChar

StartChar: ampersand
Encoding: 8 38 7
Width: 1563
Flags: W
LayerCount: 2
Fore
SplineSet
599 742 m 0,0,1
 599 683 599 683 510.024414062 683 c 0,2,3
 421.048828125 683 421.048828125 683 349.024414062 593.515625 c 128,-1,4
 277 504.030273438 277 504.030273438 277 393 c 0,5,6
 277 199.4375 277 199.4375 516.5 138.5 c 0,7,8
 601 117 601 117 731 117 c 0,9,10
 985.615234375 117 985.615234375 117 1109.80761719 222.869140625 c 128,-1,11
 1234 328.737304688 1234 328.737304688 1234 501 c 0,12,13
 1234 635.428710938 1234 635.428710938 1160 794 c 1,14,15
 1048.77734375 783.888671875 1048.77734375 783.888671875 1006.88867188 762.944335938 c 128,-1,16
 965 742 965 742 944 720 c 128,-1,17
 923 698 923 698 906 667 c 1,18,-1
 809 737 l 1,19,20
 857.076171875 929.303710938 857.076171875 929.303710938 1057 977.5 c 0,21,22
 1124.02148438 993.657226562 1124.02148438 993.657226562 1228.51074219 1007.328125 c 128,-1,23
 1333 1021 1333 1021 1376.5 1036.5 c 0,24,25
 1472.41308594 1070.67578125 1472.41308594 1070.67578125 1488 1159 c 1,26,-1
 1609 1094 l 1,27,28
 1596 1052 1596 1052 1579.5 1007 c 0,29,30
 1517.96875 839.188476562 1517.96875 839.188476562 1265 810 c 1,31,32
 1366 631.307617188 1366 631.307617188 1366 454 c 0,33,34
 1366 210.790039062 1366 210.790039062 1181.38085938 52.39453125 c 128,-1,35
 996.76171875 -106 996.76171875 -106 681 -106 c 0,36,37
 422.465820312 -106 422.465820312 -106 258 -2.5 c 0,38,39
 67 117.698242188 67 117.698242188 67 355 c 0,40,41
 67 548.333007812 67 548.333007812 252.5 672 c 0,42,43
 317 715 317 715 407 745 c 1,44,-1
 407 746 l 1,45,46
 287.455078125 776.360351562 287.455078125 776.360351562 217.727539062 853.483398438 c 128,-1,47
 148 930.606445312 148 930.606445312 148 1019.80273438 c 0,48,49
 148 1183.37402344 148 1183.37402344 297.522460938 1280.1875 c 128,-1,50
 447.044921875 1377 447.044921875 1377 607.772460938 1377 c 128,-1,51
 768.5 1377 768.5 1377 865.75 1316.34960938 c 128,-1,52
 963 1255.69921875 963 1255.69921875 963 1140 c 0,53,54
 963 1082 963 1082 918.200195312 1050 c 128,-1,55
 873.400390625 1018 873.400390625 1018 822.200195312 1018 c 128,-1,56
 771 1018 771 1018 725 1022 c 1,57,58
 731 1061 731 1061 731 1100.5 c 0,59,60
 731 1187.33300781 731 1187.33300781 684.5 1244.16699219 c 128,-1,61
 638 1301 638 1301 543.14453125 1301 c 128,-1,62
 448.288085938 1301 448.288085938 1301 388.14453125 1222.59765625 c 128,-1,63
 328 1144.19628906 328 1144.19628906 328 1040 c 0,64,65
 328 886.5 328 886.5 444 828.5 c 0,66,67
 483 809 483 809 523.5 809 c 128,-1,68
 564 809 564 809 581.5 787.5 c 128,-1,69
 599 766 599 766 599 742 c 0,0,1
EndSplineSet
EndChar

StartChar: quotesingle
Encoding: 9 39 8
Width: 389
Flags: W
LayerCount: 2
Fore
SplineSet
89 1323 m 1,0,1
 89 1413.24316406 89 1413.24316406 155.5 1442 c 0,2,3
 174 1450 174 1450 194 1450 c 256,4,5
 236 1450 236 1450 268 1418 c 0,6,7
 300 1386 300 1386 300 1331 c 1,8,-1
 230 889 l 1,9,10
 228 866 228 866 216.5 853.5 c 128,-1,11
 205 841 205 841 193 841 c 0,12,13
 162.826171875 841 162.826171875 841 159 885 c 1,14,-1
 89 1323 l 1,0,1
EndSplineSet
EndChar

StartChar: parenleft
Encoding: 10 40 9
Width: 604
Flags: W
LayerCount: 2
Fore
SplineSet
584 -92 m 0,0,1
 501.576171875 -92 501.576171875 -92 337.620605469 52.8442382812 c 128,-1,2
 173.665039062 197.688476562 173.665039062 197.688476562 99.5 425 c 0,3,4
 61 543 61 543 61 680 c 256,5,6
 61 937.802734375 61 937.802734375 192.554199219 1134.61669922 c 128,-1,7
 324.108398438 1331.43066406 324.108398438 1331.43066406 514 1433 c 0,8,9
 548.545898438 1452 548.545898438 1452 594.272949219 1452 c 0,10,11
 640 1452 640 1452 640 1412.52929688 c 128,-1,12
 640 1373.05859375 640 1373.05859375 569.5 1327.52929688 c 0,13,14
 428.82423297 1236.6800946 428.82423297 1236.6800946 353.412116485 1064.16182464 c 128,-1,15
 278 891.643554688 278 891.643554688 278 692 c 0,16,17
 278 368.594726562 278 368.594726562 446.5 150 c 0,18,19
 502 78 502 78 571 31.5703125 c 128,-1,20
 640 -14.859375 640 -14.859375 640 -53.4296875 c 128,-1,21
 640 -92 640 -92 584 -92 c 0,0,1
EndSplineSet
EndChar

StartChar: parenright
Encoding: 11 41 10
Width: 608
Flags: W
LayerCount: 2
Fore
SplineSet
26 1452 m 0,0,1
 108.423828125 1452 108.423828125 1452 272.379394531 1307.15576172 c 128,-1,2
 436.334960938 1162.31152344 436.334960938 1162.31152344 510.5 935 c 0,3,4
 549 817 549 817 549 680 c 256,5,6
 549 422.197265625 549 422.197265625 417.445800781 225.383300781 c 128,-1,7
 285.891601562 28.5693359375 285.891601562 28.5693359375 96 -73 c 0,8,9
 61.4541015625 -92 61.4541015625 -92 15.7270507812 -92 c 0,10,11
 -30 -92 -30 -92 -30 -53.4853515625 c 128,-1,12
 -30 -14.970703125 -30 -14.970703125 39 31.5146484375 c 0,13,14
 177.292445187 124.682372104 177.292445187 124.682372104 254.646222594 305.174682146 c 128,-1,15
 332 485.666992188 332 485.666992188 332 692 c 0,16,17
 332 1001.27050781 332 1001.27050781 166.5 1211.5 c 0,18,19
 111 1282 111 1282 40.5 1327.50439453 c 128,-1,20
 -30 1373.00878906 -30 1373.00878906 -30 1412.50488281 c 128,-1,21
 -30 1452 -30 1452 26 1452 c 0,0,1
EndSplineSet
EndChar

StartChar: asterisk
Encoding: 12 42 11
Width: 1183
Flags: W
LayerCount: 2
Fore
SplineSet
568 1028 m 1,0,1
 559.591796875 1068.99023438 559.591796875 1068.99023438 519.295898438 1183.16162109 c 128,-1,2
 479 1297.33300781 479 1297.33300781 479 1352.82721819 c 128,-1,3
 479 1408.32142857 479 1408.32142857 508.560546875 1443.16071429 c 128,-1,4
 538.12109375 1478 538.12109375 1478 586.560546875 1478 c 128,-1,5
 635 1478 635 1478 670.5 1448 c 128,-1,6
 706 1418 706 1418 706 1357.8030303 c 128,-1,7
 706 1297.60606061 706 1297.60606061 661.022949219 1188.57012015 c 128,-1,8
 616.045898438 1079.53417969 616.045898438 1079.53417969 607 1023 c 1,9,-1
 585 1016 l 1,10,-1
 568 1022 l 1,11,-1
 568 1028 l 1,0,1
87.5 699.5 m 0,12,13
 78 720 78 720 78 746.5 c 0,14,15
 78 793.679012346 78 793.679012346 161.022006626 835.702497181 c 128,-1,16
 244.044013251 877.725982016 244.044013251 877.725982016 350.431186313 902.362991008 c 128,-1,17
 456.818359375 927 456.818359375 927 507 927 c 2,18,-1
 514 927 l 1,19,-1
 543 916 l 1,20,-1
 479 846 l 2,21,22
 285.36328125 633 285.36328125 633 201.840332031 633 c 128,-1,23
 118.317382812 633 118.317382812 633 87.5 699.5 c 0,12,13
694 1043 m 1,24,25
 889.454959246 1258 889.454959246 1258 996.760869565 1258 c 0,26,27
 1036.52173913 1258 1036.52173913 1258 1068.76086957 1234.08056641 c 128,-1,28
 1101 1210.16113281 1101 1210.16113281 1101 1162 c 1,29,-1
 1090 1143 l 1,30,-1
 1090 1138 l 1,31,-1
 1096 1138 l 1,32,33
 1093.453125 1053.95996094 1093.453125 1053.95996094 910.5 1017 c 0,34,35
 861 1007 861 1007 815 999 c 2,36,-1
 786 994 l 2,37,38
 698.6484375 979.025390625 698.6484375 979.025390625 672 965 c 1,39,-1
 643 992 l 1,40,-1
 694 1043 l 1,24,25
477 565.5 m 0,41,42
 477 624.043945312 477 624.043945312 539 775 c 1,43,44
 575 847 575 847 575 877 c 1,45,-1
 588 882 l 1,46,47
 614.92578125 873.024414062 614.92578125 873.024414062 678.5 649 c 0,48,49
 702 566.190429688 702 566.190429688 702 545 c 0,50,51
 702 426 702 426 583 426 c 0,52,53
 477 426 477 426 477 565.5 c 0,41,42
700 855 m 1,54,55
 682 865 682 865 651 896 c 1,56,-1
 651 895 l 1,57,58
 650 895 650 895 646 899 c 1,59,-1
 646 914 l 1,60,-1
 672 927 l 1,61,62
 721 911 721 911 776.5 899.5 c 128,-1,63
 832 888 832 888 883 877 c 2,64,-1
 929 867 l 2,65,66
 946 863 946 863 959.356933594 861.035644531 c 128,-1,67
 972.713867188 859.071289062 972.713867188 859.071289062 1009 850 c 1,68,-1
 1009 841 l 1,69,70
 1042.87597656 837.014648438 1042.87597656 837.014648438 1069.43798828 807.132324219 c 128,-1,71
 1096 777.25 1096 777.25 1096 736.625 c 128,-1,72
 1096 696 1096 696 1062 662 c 128,-1,73
 1028 628 1028 628 976.06 628 c 128,-1,74
 924.12 628 924.12 628 867.805117187 676.547363281 c 128,-1,75
 811.490234375 725.094726562 811.490234375 725.094726562 749 798 c 1,76,77
 722.833007812 835.069335938 722.833007812 835.069335938 700 856 c 1,78,-1
 700 855 l 1,54,55
78 1151.5 m 0,79,80
 78 1204.44827586 78 1204.44827586 108.716796875 1236.22413793 c 128,-1,81
 139.43359375 1268 139.43359375 1268 177.716796875 1268 c 128,-1,82
 216 1268 216 1268 246 1254.5 c 128,-1,83
 276 1241 276 1241 303 1220 c 128,-1,84
 330 1199 330 1199 354 1172.5 c 128,-1,85
 378 1146 378 1146 401 1121 c 2,86,-1
 426 1095 l 1,87,88
 474.162109375 1041.48632812 474.162109375 1041.48632812 502 1022 c 1,89,-1
 538 994 l 1,90,-1
 505 972 l 1,91,92
 488 979 488 979 372.002244093 998.999102363 c 0,93,94
 78 1049.68784999 78 1049.68784999 78 1151.5 c 0,79,80
EndSplineSet
EndChar

StartChar: plus
Encoding: 13 43 12
Width: 790
Flags: W
LayerCount: 2
Fore
SplineSet
402 233 m 256,0,1
 321 233 321 233 321 325 c 2,2,-1
 321 551 l 1,3,-1
 101 551 l 2,4,5
 33.4443359375 551 33.4443359375 551 19 583.5 c 0,6,7
 13 597 13 597 13 631 c 0,8,9
 13 693 13 693 105 693 c 2,10,-1
 321 693 l 1,11,-1
 321 920 l 2,12,13
 321 1011 321 1011 393 1011 c 0,14,15
 441 1011 441 1011 460 988.5 c 128,-1,16
 479 966 479 966 479 917 c 2,17,-1
 479 693 l 1,18,-1
 696 693 l 2,19,20
 761.200195312 693 761.200195312 693 779.5 662.5 c 0,21,22
 787 650 787 650 787 615.5 c 128,-1,23
 787 581 787 581 764.5 566 c 128,-1,24
 742 551 742 551 693 551 c 2,25,-1
 479 551 l 1,26,-1
 479 321 l 2,27,28
 479 279 479 279 463 256 c 128,-1,29
 447 233 447 233 402 233 c 256,0,1
EndSplineSet
EndChar

StartChar: comma
Encoding: 14 44 13
Width: 456
Flags: W
LayerCount: 2
Fore
SplineSet
176.5 -120 m 0,0,1
 138 -120 138 -120 138 -97 c 0,2,3
 138 -84 138 -84 148 -75 c 128,-1,4
 158 -66 158 -66 170.5 -54 c 0,5,6
 204.48828125 -21.37109375 204.48828125 -21.37109375 206 27 c 1,7,8
 129.2578125 30.654296875 129.2578125 30.654296875 99.5 76 c 0,9,10
 89 92 89 92 89 117.5 c 0,11,12
 89 167.285714286 89 167.285714286 133.888671875 196.142857143 c 128,-1,13
 178.77734375 225 178.77734375 225 235 225 c 0,14,15
 361.400390625 225 361.400390625 225 374 99 c 1,16,17
 374 8.6298828125 374 8.6298828125 317.065429688 -55.6850585938 c 128,-1,18
 260.130859375 -120 260.130859375 -120 176.5 -120 c 0,0,1
EndSplineSet
EndChar

StartChar: hyphen
Encoding: 15 45 14
Width: 776
Flags: W
LayerCount: 2
Fore
SplineSet
183 430 m 2,0,1
 102 430 102 430 102 506 c 256,2,3
 102 544 102 544 125 564.5 c 128,-1,4
 148 585 148 585 187 585 c 2,5,-1
 597 585 l 2,6,7
 632 585 632 585 655.5 567.5 c 128,-1,8
 679 550 679 550 679 515 c 0,9,10
 679 430 679 430 594 430 c 2,11,-1
 183 430 l 2,0,1
EndSplineSet
EndChar

StartChar: period
Encoding: 16 46 15
Width: 458
Flags: W
LayerCount: 2
Fore
SplineSet
375 128.424804688 m 0,0,1
 375 39.44 375 39.44 284 8.5 c 0,2,3
 259 0 259 0 221.482142857 0 c 0,4,5
 183.964285714 0 183.964285714 0 138.982142857 30.7197265625 c 128,-1,6
 94 61.439453125 94 61.439453125 94 112 c 256,7,8
 94 163.584960938 94 163.584960938 139.903320312 198.292480469 c 128,-1,9
 185.806640625 233 185.806640625 233 236.435578377 233 c 0,10,11
 287.064516129 233 287.064516129 233 331.032258065 198.924804688 c 128,-1,12
 375 164.849609375 375 164.849609375 375 128.424804688 c 0,0,1
EndSplineSet
EndChar

StartChar: slash
Encoding: 17 47 16
Width: 644
Flags: W
LayerCount: 2
Fore
SplineSet
166 -146.5 m 128,-1,1
 151 -168 151 -168 122 -168 c 128,-1,2
 93 -168 93 -168 53.5 -155.5 c 0,3,4
 -21 -131.923828125 -21 -131.923828125 -21 -83 c 0,5,6
 -21 -65.7998046875 -21 -65.7998046875 -9 -25 c 2,7,-1
 492 1597 l 2,8,9
 502 1631 502 1631 519 1655 c 128,-1,10
 536 1679 536 1679 587.592592593 1679 c 0,11,12
 639.185185185 1679 639.185185185 1679 672.092592593 1650.33886719 c 128,-1,13
 705 1621.67773438 705 1621.67773438 705 1592.33886719 c 128,-1,14
 705 1563 705 1563 695 1535 c 1,15,-1
 193 -87 l 2,16,0
 181 -125 181 -125 166 -146.5 c 128,-1,1
EndSplineSet
EndChar

StartChar: zero
Encoding: 18 48 17
Width: 1527
Flags: W
LayerCount: 2
Fore
SplineSet
1246 694.092785958 m 128,-1,1
 1246 935.583007812 1246 935.583007812 1112.79394531 1124.29150391 c 128,-1,2
 979.587890625 1313 979.587890625 1313 749.872558594 1313 c 128,-1,3
 520.157226562 1313 520.157226562 1313 399.078613281 1145.59570312 c 128,-1,4
 278 978.19140625 278 978.19140625 278 734.095703125 c 128,-1,5
 278 490 278 490 410.649902344 300.5 c 128,-1,6
 543.299804688 111 543.299804688 111 772.425131702 111 c 128,-1,7
 1001.55045872 111 1001.55045872 111 1123.77522936 281.801282051 c 128,-1,0
 1246 452.602564103 1246 452.602564103 1246 694.092785958 c 128,-1,1
756 -25 m 256,8,9
 420.185546875 -25 420.185546875 -25 239.592773438 187 c 128,-1,10
 59 399 59 399 59 693.290039062 c 128,-1,11
 59 987.580078125 59 987.580078125 239.5 1206 c 0,12,13
 361.483398438 1353.61035156 361.483398438 1353.61035156 554.5 1413 c 0,14,15
 652 1443 652 1443 770 1443 c 0,16,17
 997.448979592 1443 997.448979592 1443 1155.81193166 1343.5155814 c 128,-1,18
 1314.17488372 1244.03116279 1314.17488372 1244.03116279 1392.58744186 1081.0155814 c 128,-1,19
 1471 918 1471 918 1471 732 c 0,20,21
 1471 432.208007812 1471 432.208007812 1290 213.5 c 0,22,23
 1166.13378906 63.828125 1166.13378906 63.828125 972 5 c 0,24,25
 873 -25 873 -25 756 -25 c 256,8,9
EndSplineSet
EndChar

StartChar: one
Encoding: 19 49 18
Width: 606
Flags: W
LayerCount: 2
Fore
SplineSet
321 0 m 256,0,1
 173.529296875 0 173.529296875 0 131.764648438 10 c 0,2,3
 52 29.0986328125 52 29.0986328125 52 90 c 0,4,5
 52 111.333007812 52 111.333007812 82 119.666992188 c 128,-1,6
 112 128 112 128 132.5 132 c 0,7,8
 213 147.707317073 213 147.707317073 213 177 c 2,9,-1
 213 1233 l 2,10,11
 213 1260.62792969 213 1260.62792969 131.5 1272 c 128,-1,12
 50 1283.37207031 50 1283.37207031 50 1303 c 0,13,14
 50 1390.20019531 50 1390.20019531 239 1428 c 0,15,16
 309 1442 309 1442 349.5 1442 c 128,-1,17
 390 1442 390 1442 402.5 1434 c 128,-1,18
 415 1426 415 1426 422 1407.33349609 c 128,-1,19
 429 1388.66699219 429 1388.66699219 429 1311 c 2,20,-1
 429 177 l 2,21,22
 429 157 429 157 453.5 148 c 128,-1,23
 478 139 478 139 508 132.5 c 128,-1,24
 538 126 538 126 562.5 117.5 c 128,-1,25
 587 109 587 109 587 83 c 0,26,27
 587 29.115942029 587 29.115942029 515.5 11.5 c 0,28,29
 468.823242188 0 468.823242188 0 321 0 c 256,0,1
EndSplineSet
EndChar

StartChar: two
Encoding: 20 50 19
Width: 1063
Flags: W
LayerCount: 2
Fore
SplineSet
864 346 m 1,0,1
 998 346 998 346 998 171.75 c 0,2,3
 998 118.5 998 118.5 961.681640625 59.75 c 128,-1,4
 925.36328125 1 925.36328125 1 864 1 c 2,5,-1
 153 1 l 2,6,7
 63.9541015625 1 63.9541015625 1 31.5 69 c 0,8,9
 21 91 21 91 21 118 c 128,-1,10
 21 145 21 145 55 182 c 128,-1,11
 89 219 89 219 196.916992188 315.1015625 c 128,-1,12
 304.833984375 411.203125 304.833984375 411.203125 441.064453125 565.87109375 c 128,-1,13
 577.295898438 720.5390625 577.295898438 720.5390625 660.147460938 864.494140625 c 128,-1,14
 743 1008.45019531 743 1008.45019531 743 1108 c 0,15,16
 743 1272.46191406 743 1272.46191406 614 1310.5 c 0,17,18
 575 1322 575 1322 531 1322 c 256,19,20
 398.80859375 1322 398.80859375 1322 257 1244.5 c 0,21,22
 214 1221 214 1221 179 1194 c 1,23,24
 156 1181 156 1181 131.5 1181 c 0,25,26
 66 1181 66 1181 66 1232.5 c 0,27,28
 66 1260 66 1260 105 1289 c 1,29,30
 240.84375 1433.89941406 240.84375 1433.89941406 454 1477.5 c 0,31,32
 520 1491 520 1491 589 1491 c 0,33,34
 744.55859375 1491 744.55859375 1491 849.279296875 1402.70605469 c 128,-1,35
 954 1314.41210938 954 1314.41210938 954 1140 c 0,36,37
 954 909.754882812 954 909.754882812 709.5 627 c 0,38,39
 569.935546875 465.599609375 569.935546875 465.599609375 429.467773438 342.299804688 c 128,-1,40
 289 219 289 219 201 147 c 1,41,-1
 483.625 147 l 2,42,43
 620 147 620 147 686 148.5 c 2,44,-1
 708 149 l 1,45,46
 793.795898438 149 793.795898438 149 847.5 288 c 0,47,48
 864 330.706054688 864 330.706054688 864 345 c 2,49,-1
 864 346 l 1,0,1
EndSplineSet
EndChar

StartChar: three
Encoding: 21 51 20
Width: 1148
Flags: W
LayerCount: 2
Fore
SplineSet
12 224 m 0,0,1
 12 263 12 263 64 263 c 0,2,3
 91.771484375 263 91.771484375 263 153.023248658 216.395362624 c 128,-1,4
 214.275012941 169.790725248 214.275012941 169.790725248 295.380182252 137.895362624 c 128,-1,5
 376.485351562 106 376.485351562 106 484.243164062 106 c 128,-1,6
 592 106 592 106 654 132.5 c 128,-1,7
 716 159 716 159 763 204.5 c 0,8,9
 866 304.212890625 866 304.212890625 866 450.967773438 c 128,-1,10
 866 597.72265625 866 597.72265625 772.676269531 685.861328125 c 128,-1,11
 679.352539062 774 679.352539062 774 522 774 c 0,12,13
 435.412109375 774 435.412109375 774 346 734 c 0,14,15
 338 731 338 731 326 731 c 128,-1,16
 314 731 314 731 301 749 c 128,-1,17
 288 767 288 767 288 786.8125 c 128,-1,18
 288 806.625 288 806.625 308.5 818.8125 c 128,-1,19
 329 831 329 831 371.5 848.5 c 0,20,21
 566.561604585 928.819484241 566.561604585 928.819484241 653.280802292 1009.03474212 c 128,-1,22
 740 1089.25 740 1089.25 740 1192 c 0,23,24
 740 1265.68945312 740 1265.68945312 677.181640625 1313.34472656 c 128,-1,25
 614.36328125 1361 614.36328125 1361 540 1361 c 0,26,27
 404.4921875 1361 404.4921875 1361 253 1273.5 c 0,28,29
 195 1240 195 1240 140 1188 c 0,30,31
 130 1178 130 1178 114 1178 c 128,-1,32
 98 1178 98 1178 82 1194.5 c 128,-1,33
 66 1211 66 1211 66 1225.5 c 128,-1,34
 66 1240 66 1240 72 1249 c 0,35,36
 187.5234375 1422.28515625 187.5234375 1422.28515625 444 1477 c 0,37,38
 519 1493 519 1493 590.5 1493 c 0,39,40
 748.337837838 1493 748.337837838 1493 857.668918919 1415.94775391 c 128,-1,41
 967 1338.89550781 967 1338.89550781 967 1187.42822266 c 128,-1,42
 967 1035.9609375 967 1035.9609375 773.5 927 c 0,43,44
 722 898 722 898 675 879 c 1,45,46
 854.646484375 857.865234375 854.646484375 857.865234375 972.323242188 749.561035156 c 128,-1,47
 1090 641.256835938 1090 641.256835938 1090 467 c 0,48,49
 1090 236.599609375 1090 236.599609375 927.125 106.299804688 c 128,-1,50
 764.25 -24 764.25 -24 527 -24 c 0,51,52
 403.720703125 -24 403.720703125 -24 251.266113281 32.0302734375 c 0,53,54
 12 119.965610545 12 119.965610545 12 224 c 0,0,1
EndSplineSet
EndChar

StartChar: four
Encoding: 22 52 21
Width: 1036
Flags: W
LayerCount: 2
Fore
SplineSet
106 470 m 2,0,1
 -22 470 -22 470 -22 583 c 0,2,3
 -22 611 -22 611 -4 647 c 1,4,5
 113 822 113 822 188.5 936 c 128,-1,6
 264 1050 264 1050 312 1122 c 128,-1,7
 360 1194 360 1194 417.142089844 1280.67626953 c 128,-1,8
 474.284179688 1367.35253906 474.284179688 1367.35253906 557 1490 c 1,9,-1
 628 1490 l 2,10,11
 695.467773438 1490 695.467773438 1490 723.234375 1461 c 0,12,13
 780 1401.7109375 780 1401.7109375 780 1249 c 2,14,-1
 780 611 l 1,15,-1
 915 611 l 2,16,17
 1011.88476562 611 1011.88476562 611 1034.5 583 c 0,18,19
 1045 570 1045 570 1045 534.6875 c 128,-1,20
 1045 499.375 1045 499.375 1015.79980469 485.6875 c 128,-1,21
 986.599609375 472 986.599609375 472 928 472 c 2,22,-1
 780 472 l 1,23,-1
 780 177 l 2,24,25
 780 157 780 157 804.5 148 c 128,-1,26
 829 139 829 139 859 132.5 c 128,-1,27
 889 126 889 126 913.5 117.5 c 128,-1,28
 938 109 938 109 938 83 c 0,29,30
 938 29.115942029 938 29.115942029 866.5 11.5 c 0,31,32
 819.823242188 0 819.823242188 0 672 0 c 256,33,34
 524.529296875 0 524.529296875 0 482.764648438 10 c 0,35,36
 403 29.0986328125 403 29.0986328125 403 90 c 0,37,38
 403 111.333007812 403 111.333007812 433 119.666992188 c 128,-1,39
 463 128 463 128 483.5 132 c 0,40,41
 564 147.707317073 564 147.707317073 564 177 c 2,42,-1
 564 470 l 1,43,-1
 106 470 l 2,0,1
564 609 m 1,44,-1
 564 1275 l 1,45,46
 463.200195312 1103.63964844 463.200195312 1103.63964844 389.099609375 974.8203125 c 128,-1,47
 315 846 315 846 269.353027344 767.958496094 c 128,-1,48
 223.706054688 689.916992188 223.706054688 689.916992188 181 609 c 1,49,-1
 564 609 l 1,44,-1
EndSplineSet
EndChar

StartChar: five
Encoding: 23 53 22
Width: 1152
Flags: W
LayerCount: 2
Fore
SplineSet
279 1388 m 1,0,-1
 518 1379 l 1,1,2
 885.713867188 1379 885.713867188 1379 924 1513 c 1,3,-1
 943 1514 l 1,4,5
 995.215820312 1514 995.215820312 1514 1023.60742188 1475.09277344 c 128,-1,6
 1052 1436.18554688 1052 1436.18554688 1052 1385.09277344 c 0,7,8
 1052 1296.5 1052 1296.5 969 1255 c 0,9,10
 903 1222 903 1222 811 1222 c 2,11,-1
 379 1222 l 1,12,-1
 306 864 l 1,13,14
 424.799804688 875 424.799804688 875 531.400390625 875 c 0,15,16
 774.897460938 875 774.897460938 875 924.948242188 756.37890625 c 128,-1,17
 1075 637.756835938 1075 637.756835938 1075 401 c 0,18,19
 1075 205.57421875 1075 205.57421875 926.444335938 91.787109375 c 128,-1,20
 777.888671875 -22 777.888671875 -22 559 -22 c 0,21,22
 431 -22 431 -22 288 25.666015625 c 128,-1,23
 145 73.3330078125 145 73.3330078125 70.5 123 c 0,24,25
 -4 172.666015625 -4 172.666015625 -4 207.1328125 c 128,-1,26
 -4 241.599609375 -4 241.599609375 17.7890625 262.299804688 c 128,-1,27
 39.5791015625 283 39.5791015625 283 56.2890625 283 c 128,-1,28
 73 283 73 283 114.5 262.5 c 0,29,30
 399.168945312 168.805664062 399.168945312 168.805664062 531.01953125 163 c 1,31,32
 688.182617188 163 688.182617188 163 766.591796875 238.229492188 c 128,-1,33
 845 313.458984375 845 313.458984375 845 431.229492188 c 128,-1,34
 845 549 845 549 737.03125 648.5 c 128,-1,35
 629.063476562 748 629.063476562 748 433 748 c 0,36,37
 291.077148438 748 291.077148438 748 118 723 c 1,38,-1
 279 1388 l 1,0,-1
EndSplineSet
EndChar

StartChar: six
Encoding: 24 54 23
Width: 1184
Flags: W
LayerCount: 2
Fore
SplineSet
288 556.25 m 0,0,1
 288 258.717741935 288 258.717741935 451 157.5 c 0,2,3
 513 119 513 119 608.5 119 c 0,4,5
 783.594594595 119 783.594594595 119 865 244.5 c 0,6,7
 930 344.708007812 930 344.708007812 930 505 c 0,8,9
 930 736.536132812 930 736.536132812 756 808 c 0,10,11
 700 831 700 831 630 831 c 0,12,13
 484.408203125 831 484.408203125 831 306 737 c 1,14,15
 288 642.5 288 642.5 288 556.25 c 0,0,1
319 869 m 1,16,17
 484.240234375 971 484.240234375 971 677.467773438 971 c 128,-1,18
 870.6953125 971 870.6953125 971 1005.84765625 851.442382812 c 128,-1,19
 1141 731.884765625 1141 731.884765625 1141 499 c 0,20,21
 1141 221.694335938 1141 221.694335938 977.5 86 c 0,22,23
 841.344726562 -27 841.344726562 -27 609.405761719 -27 c 128,-1,24
 377.466796875 -27 377.466796875 -27 229.5 120 c 0,25,26
 62 286.405273438 62 286.405273438 62 584.659179688 c 0,27,28
 62 1121.03090374 62 1121.03090374 557 1384 c 0,29,30
 729.85546875 1475.82910156 729.85546875 1475.82910156 930 1512 c 1,31,-1
 939 1513 l 1,32,33
 977.217773438 1513 977.217773438 1513 992 1470.5 c 0,34,35
 996 1459 996 1459 996 1445.5 c 0,36,37
 996 1409.41210938 996 1409.41210938 961 1398.70605469 c 0,38,39
 826.466643693 1357.55401269 826.466643693 1357.55401269 765 1330 c 0,40,41
 625.323671498 1267.38647343 625.323671498 1267.38647343 508.72873028 1158.6961664 c 128,-1,42
 392.133789062 1050.00585938 392.133789062 1050.00585938 319 869 c 1,16,17
EndSplineSet
EndChar

StartChar: seven
Encoding: 25 55 24
Width: 868
Flags: W
LayerCount: 2
Fore
SplineSet
743 1450 m 2,0,1
 895 1450 895 1450 895 1356.5 c 0,2,3
 895 1304.54545455 895 1304.54545455 868 1251.77272727 c 128,-1,4
 841 1199 841 1199 833 1178 c 2,5,-1
 389 34 l 1,6,7
 358 -28 358 -28 280.973632812 -28 c 128,-1,8
 203.947265625 -28 203.947265625 -28 176 31 c 0,9,10
 167 50 167 50 167 72 c 128,-1,11
 167 94 167 94 177 116 c 2,12,-1
 710 1337 l 1,13,-1
 437 1337 l 2,14,15
 241.737304688 1337 241.737304688 1337 187 1233 c 0,16,17
 167 1195 167 1195 162 1140 c 1,18,19
 137 1135 137 1135 96.0967741935 1135 c 0,20,21
 55.1935483871 1135 55.1935483871 1135 13.0967741935 1166.82926829 c 128,-1,22
 -29 1198.65853659 -29 1198.65853659 -29 1270.1037781 c 128,-1,23
 -29 1341.54901961 -29 1341.54901961 24.1826171875 1395.7745098 c 128,-1,24
 77.365234375 1450 77.365234375 1450 186 1450 c 2,25,-1
 743 1450 l 2,0,1
EndSplineSet
EndChar

StartChar: eight
Encoding: 26 56 25
Width: 1270
Flags: W
LayerCount: 2
Fore
SplineSet
609 676 m 1,0,1
 494.205078125 630.515625 494.205078125 630.515625 385.602539062 525.237304688 c 128,-1,2
 277 419.958984375 277 419.958984375 277 341 c 0,3,4
 277 235.98046875 277 235.98046875 393.5 176 c 0,5,6
 490.615234375 126 490.615234375 126 617.734863281 126 c 128,-1,7
 744.854492188 126 744.854492188 126 820.926757812 159.5 c 128,-1,8
 897 193 897 193 934.5 235 c 128,-1,9
 972 277 972 277 972 341 c 128,-1,10
 972 405 972 405 936.5 454.5 c 128,-1,11
 901 504 901 504 847 543.5 c 128,-1,12
 793 583 793 583 729.5 615 c 128,-1,13
 666 647 666 647 609 676 c 1,0,1
559 1358.5 m 0,14,15
 355.474609375 1343.96289062 355.474609375 1343.96289062 341 1177.5 c 0,16,17
 340 1166 340 1166 340 1137.5 c 128,-1,18
 340 1109 340 1109 356.5 1071 c 128,-1,19
 373 1033 373 1033 399.5 1001.5 c 128,-1,20
 426 970 426 970 459.5 945 c 128,-1,21
 493 920 493 920 526.5 900 c 128,-1,22
 560 880 560 880 591 865.5 c 128,-1,23
 622 851 622 851 643 840 c 1,24,25
 687 870 687 870 739.5 903 c 0,26,27
 942 1030.28571429 942 1030.28571429 942 1178 c 0,28,29
 942 1362 942 1362 650 1362 c 0,30,31
 608 1362 608 1362 559 1358.5 c 0,14,15
1116 1160 m 0,32,33
 1116 945.043945312 1116 945.043945312 801 767 c 1,34,35
 1086.68847656 651.278320312 1086.68847656 651.278320312 1186 483 c 0,36,37
 1222 422 1222 422 1222 350 c 0,38,39
 1222 210.860465116 1222 210.860465116 1136.16489362 127.021523998 c 128,-1,40
 1050.32978723 43.1825828798 1050.32978723 43.1825828798 920.961768617 11.0912914399 c 128,-1,41
 791.59375 -21 791.59375 -21 646.734375 -21 c 0,42,43
 501.875 -21 501.875 -21 377.517655592 10.8354801683 c 128,-1,44
 253.160311185 42.6709603367 253.160311185 42.6709603367 166.080155592 127.749054387 c 128,-1,45
 79 212.827148438 79 212.827148438 79 348.788574219 c 128,-1,46
 79 484.75 79 484.75 193.381347656 584.833496094 c 128,-1,47
 307.762695312 684.916992188 307.762695312 684.916992188 472 752 c 1,48,49
 313.783203125 817.264648438 313.783203125 817.264648438 218.391601562 924.061523439 c 128,-1,50
 123 1030.85839844 123 1030.85839844 123 1149 c 0,51,52
 123 1377.203125 123 1377.203125 401.5 1461 c 0,53,54
 507.852539062 1493 507.852539062 1493 592.426757812 1493 c 0,55,56
 890.864911195 1493 890.864911195 1493 1037.76527273 1353.63289631 c 0,57,58
 1116 1279.41015625 1116 1279.41015625 1116 1160 c 0,32,33
EndSplineSet
EndChar

StartChar: nine
Encoding: 27 57 26
Width: 1164
Flags: W
LayerCount: 2
Fore
SplineSet
882 929.75 m 0,0,1
 882 1227.28225806 882 1227.28225806 719 1328.5 c 0,2,3
 657 1367 657 1367 565.5 1367 c 0,4,5
 395.755319149 1367 395.755319149 1367 304.377659574 1268.27001953 c 128,-1,6
 213 1169.54003906 213 1169.54003906 213 1031.06982422 c 128,-1,7
 213 892.599609375 213 892.599609375 308.272949219 787.799804688 c 128,-1,8
 403.545898438 683 403.545898438 683 564.861328125 683 c 128,-1,9
 726.176757812 683 726.176757812 683 864 749 c 1,10,11
 882 843.5 882 843.5 882 929.75 c 0,0,1
861 647 m 1,12,13
 716.552734375 554 716.552734375 554 546 554 c 0,14,15
 330.111328125 554 330.111328125 554 179.555664062 677.181640625 c 128,-1,16
 29 800.36328125 29 800.36328125 29 1017 c 0,17,18
 29 1347.5859375 29 1347.5859375 320 1468 c 0,19,20
 428.75 1513 428.75 1513 545.875 1513 c 0,21,22
 792.532894737 1513 792.532894737 1513 940.5 1366 c 0,23,24
 1108 1199.59472656 1108 1199.59472656 1108 901.340820312 c 0,25,26
 1108 364.969096257 1108 364.969096257 613 102 c 0,27,28
 433.494140625 6.6376953125 433.494140625 6.6376953125 240 -26 c 1,29,-1
 231 -27 l 1,30,31
 192.782226562 -27 192.782226562 -27 178 15.5 c 0,32,33
 174 27 174 27 174 40.5 c 0,34,35
 174 76.587890625 174 76.587890625 209 87.2939453125 c 0,36,37
 331.012630504 124.616056591 331.012630504 124.616056591 408 160.5 c 0,38,39
 731.962058802 311.499264696 731.962058802 311.499264696 861 647 c 1,12,13
EndSplineSet
EndChar

StartChar: colon
Encoding: 28 58 27
Width: 495
Flags: W
LayerCount: 2
Fore
SplineSet
393 879.424804688 m 0,0,1
 393 790.44 393 790.44 302 759.5 c 0,2,3
 277 751 277 751 239.482142857 751 c 0,4,5
 201.964285714 751 201.964285714 751 156.982142857 781.719726562 c 128,-1,6
 112 812.439453125 112 812.439453125 112 863 c 256,7,8
 112 914.584960938 112 914.584960938 157.903320312 949.292480469 c 128,-1,9
 203.806640625 984 203.806640625 984 254.435578377 984 c 0,10,11
 305.064516129 984 305.064516129 984 349.032258065 949.924804688 c 128,-1,12
 393 915.849609375 393 915.849609375 393 879.424804688 c 0,0,1
393 311.424804688 m 0,13,14
 393 222.44 393 222.44 302 191.5 c 0,15,16
 277 183 277 183 239.482142857 183 c 0,17,18
 201.964285714 183 201.964285714 183 156.982142857 213.719726562 c 128,-1,19
 112 244.439453125 112 244.439453125 112 295 c 256,20,21
 112 346.584960938 112 346.584960938 157.903320312 381.292480469 c 128,-1,22
 203.806640625 416 203.806640625 416 254.435578377 416 c 0,23,24
 305.064516129 416 305.064516129 416 349.032258065 381.924804688 c 128,-1,25
 393 347.849609375 393 347.849609375 393 311.424804688 c 0,13,14
EndSplineSet
EndChar

StartChar: semicolon
Encoding: 29 59 28
Width: 502
Flags: W
LayerCount: 2
Fore
SplineSet
199.5 71 m 0,0,1
 161 71 161 71 161 94 c 0,2,3
 161 107 161 107 171 116 c 128,-1,4
 181 125 181 125 193.5 137 c 0,5,6
 227.48828125 169.62890625 227.48828125 169.62890625 229 218 c 1,7,8
 152.2578125 221.654296875 152.2578125 221.654296875 122.5 267 c 0,9,10
 112 283 112 283 112 308.5 c 0,11,12
 112 358.285714286 112 358.285714286 156.888671875 387.142857143 c 128,-1,13
 201.77734375 416 201.77734375 416 258 416 c 0,14,15
 384.400390625 416 384.400390625 416 397 290 c 1,16,17
 397 199.629882812 397 199.629882812 340.065429688 135.314941406 c 128,-1,18
 283.130859375 71 283.130859375 71 199.5 71 c 0,0,1
396 879.424804688 m 0,19,20
 396 790.44 396 790.44 305 759.5 c 0,21,22
 280 751 280 751 242.482142857 751 c 0,23,24
 204.964285714 751 204.964285714 751 159.982142857 781.719726562 c 128,-1,25
 115 812.439453125 115 812.439453125 115 863 c 256,26,27
 115 914.584960938 115 914.584960938 160.903320312 949.292480469 c 128,-1,28
 206.806640625 984 206.806640625 984 257.435578377 984 c 0,29,30
 308.064516129 984 308.064516129 984 352.032258065 949.924804688 c 128,-1,31
 396 915.849609375 396 915.849609375 396 879.424804688 c 0,19,20
EndSplineSet
EndChar

StartChar: less
Encoding: 30 60 29
Width: 732
Flags: W
LayerCount: 2
Fore
SplineSet
617.5 211 m 128,-1,1
 639 182 639 182 639 158.5 c 128,-1,2
 639 135 639 135 618 115.5 c 128,-1,3
 597 96 597 96 570 96 c 0,4,5
 519.95 96 519.95 96 386.948509934 187.725165563 c 128,-1,6
 253.947019868 279.450331126 253.947019868 279.450331126 147.473509934 380.600165563 c 128,-1,7
 41 481.75 41 481.75 41 520.799804688 c 128,-1,8
 41 559.849609375 41 559.849609375 145.208496094 654.6796875 c 128,-1,9
 249.416992188 749.509765625 249.416992188 749.509765625 383.864257813 838.754882812 c 128,-1,10
 518.311523438 928 518.311523438 928 557.65625 928 c 128,-1,11
 597 928 597 928 618 908.5 c 128,-1,12
 639 889 639 889 639 859.367647059 c 0,13,14
 639 829.735294118 639 829.735294118 562.876554174 755.850773169 c 128,-1,15
 486.753108348 681.96625222 486.753108348 681.96625222 399.097257299 614.376192516 c 128,-1,16
 311.44140625 546.786132812 311.44140625 546.786132812 266 522 c 1,17,18
 338.494140625 482.458007812 338.494140625 482.458007812 433.247070312 396.728515625 c 128,-1,19
 528 311 528 311 562 275.5 c 128,-1,0
 596 240 596 240 617.5 211 c 128,-1,1
EndSplineSet
EndChar

StartChar: equal
Encoding: 31 61 30
Width: 1264
Flags: W
LayerCount: 2
Fore
SplineSet
1135.5 639 m 0,0,1
 1148 624 1148 624 1148 577.041666667 c 0,2,3
 1148 530.083333333 1148 530.083333333 1115.35693359 511.041666667 c 128,-1,4
 1082.71386719 492 1082.71386719 492 1012 492 c 2,5,-1
 256 492 l 2,6,7
 195.72265625 492 195.72265625 492 173.361328125 503.5 c 0,8,9
 130 525.799804688 130 525.799804688 130 570.900390625 c 128,-1,10
 130 616 130 616 144 634 c 128,-1,11
 158 652 158 652 183.293945312 662 c 128,-1,12
 208.587890625 672 208.587890625 672 278 672 c 2,13,-1
 1021 672 l 2,14,15
 1108 672 1108 672 1135.5 639 c 0,0,1
1131 329 m 0,16,17
 1143 314 1143 314 1143 280 c 0,18,19
 1143 215.046511628 1143 215.046511628 1096.5 194.5 c 0,20,21
 1070.47363281 183 1070.47363281 183 985 183 c 2,22,-1
 259 183 l 2,23,24
 192.706054688 183 192.706054688 183 170.352539062 193 c 0,25,26
 125 213.2890625 125 213.2890625 125 258.64453125 c 128,-1,27
 125 304 125 304 139 322.5 c 128,-1,28
 153 341 153 341 178.666503906 351.5 c 128,-1,29
 204.333007812 362 204.333007812 362 273 362 c 2,30,-1
 1020 362 l 2,31,32
 1104.59960938 362 1104.59960938 362 1131 329 c 0,16,17
EndSplineSet
EndChar

StartChar: greater
Encoding: 32 62 31
Width: 726
Flags: W
LayerCount: 2
Fore
SplineSet
115 115.5 m 128,-1,1
 94 135 94 135 94 158.5 c 0,2,3
 94 224.891290276 94 224.891290276 323.508259718 415.687765892 c 0,4,5
 413.02734375 490.107421875 413.02734375 490.107421875 467 522 c 1,6,7
 339.2890625 591.66015625 339.2890625 591.66015625 171 755 c 0,8,9
 94 829.735351562 94 829.735351562 94 859.3671875 c 128,-1,10
 94 889 94 889 115 908.5 c 128,-1,11
 136 928 136 928 163 928 c 0,12,13
 214.688311688 928 214.688311688 928 349.135472371 838.754901961 c 128,-1,14
 483.582633053 749.509803922 483.582633053 749.509803922 587.791316527 654.679706648 c 128,-1,15
 692 559.849609375 692 559.849609375 692 520.799804688 c 128,-1,16
 692 481.75 692 481.75 585.526367188 380.600097656 c 128,-1,17
 479.052734375 279.450195312 479.052734375 279.450195312 346.051269531 187.725097656 c 128,-1,18
 213.049804688 96 213.049804688 96 174.525390625 96 c 128,-1,0
 136 96 136 96 115 115.5 c 128,-1,1
EndSplineSet
EndChar

StartChar: question
Encoding: 33 63 32
Width: 674
Flags: W
LayerCount: 2
Fore
SplineSet
286 378 m 0,0,1
 245 378 245 378 245 479 c 128,-1,2
 245 580 245 580 263.5 638.5 c 128,-1,3
 282 697 282 697 310 739.5 c 128,-1,4
 338 782 338 782 370.5 813 c 128,-1,5
 403 844 403 844 431 872.5 c 0,6,7
 496 938.661132812 496 938.661132812 496 1008 c 0,8,9
 496 1133 496 1133 309 1133 c 0,10,11
 223.666992188 1133 223.666992188 1133 116 1076 c 1,12,13
 93.25 1062 93.25 1062 62.625 1062 c 128,-1,14
 32 1062 32 1062 9.5 1085.5 c 128,-1,15
 -13 1109 -13 1109 -13 1142 c 0,16,17
 -13 1204.80851064 -13 1204.80851064 91.4052734375 1245.90425532 c 128,-1,18
 195.810546875 1287 195.810546875 1287 284.905273438 1287 c 0,19,20
 456.275362319 1287 456.275362319 1287 561.637681159 1214.29980469 c 128,-1,21
 667 1141.59960938 667 1141.59960938 667 1020.96875 c 128,-1,22
 667 900.337890625 667 900.337890625 584.5 819 c 0,23,24
 549 784 549 784 507 753.5 c 128,-1,25
 465 723 465 723 427.5 687.5 c 0,26,27
 337.943359375 602.719726562 337.943359375 602.719726562 328 495 c 0,28,29
 325 471 325 471 322.5 449.5 c 0,30,31
 314.186046512 378 314.186046512 378 286 378 c 0,0,1
377.032226562 209 m 0,32,33
 433 165.625 433 165.625 433 116.263671875 c 128,-1,34
 433 66.90234375 433 66.90234375 388.644218335 33.3650288794 c 128,-1,35
 344.28843667 -0.172285991132 344.28843667 -0.172285991132 293.25249915 -0.172285991132 c 128,-1,36
 242.21656163 -0.172285991132 242.21656163 -0.172285991132 197.108280815 30.6335835669 c 128,-1,37
 152 61.439453125 152 61.439453125 152 112 c 256,38,39
 152 191 152 191 245.5 224 c 0,40,41
 271 233 271 233 295 233 c 256,42,43
 346.064453125 233 346.064453125 233 377.032226562 209 c 0,32,33
EndSplineSet
EndChar

StartChar: at
Encoding: 34 64 33
Width: 1576
Flags: W
LayerCount: 2
Fore
SplineSet
1068.5 993 m 0,0,1
 1154 993 1154 993 1154 901 c 2,2,-1
 1154 438 l 2,3,4
 1154 347 1154 347 1234 347 c 0,5,6
 1336.8984375 347 1336.8984375 347 1366.5 586.5 c 0,7,8
 1376 663.36328125 1376 663.36328125 1376 745.181640625 c 0,9,10
 1376 901.189873418 1376 901.189873418 1295.63453608 1008.00473052 c 128,-1,11
 1215.26907216 1114.81958763 1215.26907216 1114.81958763 1081.13453608 1166.40979381 c 128,-1,12
 947 1218 947 1218 789 1218 c 0,13,14
 567.470703125 1218 567.470703125 1218 392 1061 c 0,15,16
 274.978515625 956.295898438 274.978515625 956.295898438 226.5 798 c 0,17,18
 202 718 202 718 202 595.5 c 128,-1,19
 202 473 202 473 250.5 362.5 c 0,20,21
 392.488687783 39 392.488687783 39 810.678710938 39 c 0,22,23
 1081.25292969 39 1081.25292969 39 1336 200 c 1,24,-1
 1337 200 l 2,25,26
 1345.85742188 200 1345.85742188 200 1392 115 c 1,27,28
 1111.71972656 -81 1111.71972656 -81 793.216796875 -81 c 128,-1,29
 474.713867188 -81 474.713867188 -81 264.856933594 102.625 c 128,-1,30
 55 286.25 55 286.25 55 615 c 0,31,32
 55 830.5 55 830.5 163.685058594 993.527832031 c 128,-1,33
 272.370117188 1156.55566406 272.370117188 1156.55566406 442.661132812 1243.77783203 c 128,-1,34
 612.952148438 1331 612.952148438 1331 771.9765625 1331 c 0,35,36
 1052.89156627 1331 1052.89156627 1331 1215.16387104 1247.34409133 c 128,-1,37
 1377.43617581 1163.68818266 1377.43617581 1163.68818266 1449.21808791 1031.24545852 c 128,-1,38
 1521 898.802734375 1521 898.802734375 1521 760.401367188 c 0,39,40
 1521 511.385542169 1521 511.385542169 1433.59130859 378.692771084 c 128,-1,41
 1346.18261719 246 1346.18261719 246 1214.42480469 246 c 128,-1,42
 1082.66699219 246 1082.66699219 246 1016 346 c 1,43,44
 867.403320312 236 867.403320312 236 721.497558594 236 c 128,-1,45
 575.591796875 236 575.591796875 236 480.295898438 339.766601562 c 128,-1,46
 385 443.533203125 385 443.533203125 385 616.912597656 c 128,-1,47
 385 790.291992188 385 790.291992188 478.453125 902.645996094 c 128,-1,48
 571.90625 1015 571.90625 1015 715.66015625 1015 c 128,-1,49
 859.415039062 1015 859.415039062 1015 1004 937 c 1,50,51
 1004 962 1004 962 1025.5 977.5 c 128,-1,52
 1047 993 1047 993 1068.5 993 c 0,0,1
987 815 m 1,53,-1
 988 838 l 1,54,55
 844 896 844 896 741.5 896 c 0,56,57
 542 896 542 896 542 608 c 0,58,59
 542 484 542 484 593 412 c 128,-1,60
 644 340 644 340 746.958984375 340 c 128,-1,61
 849.918945312 340 849.918945312 340 990 411 c 1,62,63
 989 439 989 439 989 470 c 2,64,-1
 989 600 l 1,65,-1
 987 775 l 1,66,-1
 987 815 l 1,53,-1
EndSplineSet
EndChar

StartChar: A
Encoding: 35 65 34
Width: 1488
Flags: W
LayerCount: 2
Fore
SplineSet
545 1327 m 0,0,1
 545 1404 545 1404 702 1404 c 0,2,3
 773 1404 773 1404 809.5 1379 c 128,-1,4
 846 1354 846 1354 865 1308 c 2,5,-1
 1287 228 l 1,6,7
 1322.96289062 141.690429688 1322.96289062 141.690429688 1397 130 c 0,8,9
 1438.93066406 123.37890625 1438.93066406 123.37890625 1450.46582031 115.689453125 c 128,-1,10
 1462 108 1462 108 1462 89 c 0,11,12
 1462 49.845703125 1462 49.845703125 1408 24.9228515625 c 128,-1,13
 1354 0 1354 0 1244.04589844 0 c 128,-1,14
 1134.09082031 0 1134.09082031 0 1068.54589844 20.8984375 c 128,-1,15
 1003 41.796875 1003 41.796875 1003 101 c 0,16,17
 1003 112 1003 112 1015.69238281 115.807617188 c 128,-1,18
 1028.38476562 119.615234375 1028.38476562 119.615234375 1062.69238281 125.307617188 c 128,-1,19
 1097 131 1097 131 1103.5 140 c 128,-1,20
 1110 149 1110 149 1110 159.5 c 128,-1,21
 1110 170 1110 170 1091 208 c 1,22,-1
 1092 208 l 1,23,-1
 982 470 l 1,24,-1
 393 470 l 1,25,26
 286 190.154296875 286 190.154296875 286 164.077148438 c 128,-1,27
 286 138 286 138 299 134 c 1,28,-1
 298 135 l 1,29,30
 318.700195312 122.349609375 318.700195312 122.349609375 349.849609375 115.674804688 c 128,-1,31
 381 109 381 109 390 105 c 128,-1,32
 399 101 399 101 399 89 c 0,33,34
 399 0 399 0 174 0 c 0,35,36
 -13 0 -13 0 -13 89 c 0,37,38
 -13 106.142578125 -13 106.142578125 9.5 112.571289062 c 0,39,40
 63.7626953125 128.075195312 63.7626953125 128.075195312 95.248046875 146.795898438 c 128,-1,41
 126.732421875 165.516601562 126.732421875 165.516601562 150 221 c 1,42,-1
 555 1280 l 1,43,44
 545 1309 545 1309 545 1327 c 0,0,1
432 566 m 1,45,-1
 942 566 l 1,46,-1
 682 1280 l 1,47,-1
 432 566 l 1,45,-1
EndSplineSet
EndChar

StartChar: B
Encoding: 36 66 35
Width: 1455
Flags: W
LayerCount: 2
Fore
SplineSet
449 290 m 2,0,1
 449 181.951171875 449 181.951171875 487.203125 147.475585938 c 128,-1,2
 525.405273438 113 525.405273438 113 607 113 c 2,3,-1
 773 113 l 2,4,5
 1036 113 1036 113 1136.5 204.5 c 0,6,7
 1210 271.41796875 1210 271.41796875 1210 395.21484375 c 128,-1,8
 1210 519.01171875 1210 519.01171875 1107.57714844 594.357421875 c 128,-1,9
 1005.15429688 669.703125 1005.15429688 669.703125 781 675.5 c 0,10,11
 723 677 723 677 675 677 c 2,12,-1
 449 677 l 1,13,-1
 449 290 l 2,0,1
1329 1056.5 m 0,14,15
 1329 862.576171875 1329 862.576171875 1070 753 c 1,16,17
 1431 639.260742188 1431 639.260742188 1431 379 c 0,18,19
 1431 229.490234375 1431 229.490234375 1316 135.5 c 0,20,21
 1148.98828125 -1 1148.98828125 -1 784 -1 c 2,22,-1
 338 0 l 2,23,24
 196 0 196 0 156 10 c 0,25,26
 80 29 80 29 80 90 c 0,27,28
 80 120.470703125 80 120.470703125 119 128.5 c 0,29,30
 136 132 136 132 155 134 c 0,31,32
 230 141.89453125 230 141.89453125 230 215 c 2,33,-1
 230 1190 l 2,34,35
 230 1261.63183594 230 1261.63183594 155 1271.5 c 0,36,37
 104.7734375 1278.10839844 104.7734375 1278.10839844 92.38671875 1286.5546875 c 128,-1,38
 80 1295 80 1295 80 1321 c 0,39,40
 80 1375 80 1375 150 1392.5 c 0,41,42
 196 1404 196 1404 338 1404 c 2,43,-1
 725 1404 l 2,44,45
 1188.25683594 1404 1188.25683594 1404 1301 1176.5 c 0,46,47
 1329 1120 1329 1120 1329 1056.5 c 0,14,15
1127 1022 m 0,48,49
 1127 1272.34570312 1127 1272.34570312 718 1283.5 c 0,50,51
 663 1285 663 1285 596.12890625 1285 c 128,-1,52
 529.2578125 1285 529.2578125 1285 489.12890625 1255.38085938 c 128,-1,53
 449 1225.76171875 449 1225.76171875 449 1141 c 2,54,-1
 449 793 l 1,55,-1
 782 793 l 2,56,57
 1005.65527344 793 1005.65527344 793 1093.5 911 c 0,58,59
 1127 956 1127 956 1127 1022 c 0,48,49
EndSplineSet
EndChar

StartChar: C
Encoding: 37 67 36
Width: 1504
Flags: W
LayerCount: 2
Fore
SplineSet
1451.5 372 m 0,0,1
 1488.28613281 372 1488.28613281 372 1504 344.5 c 0,2,3
 1510 334 1510 334 1510 318.875 c 128,-1,4
 1510 303.75 1510 303.75 1499 279 c 1,5,-1
 1500 279 l 1,6,7
 1418.69042969 135.740234375 1418.69042969 135.740234375 1240.25585938 53.8701171875 c 128,-1,8
 1061.8203125 -28 1061.8203125 -28 873 -28 c 0,9,10
 511.857421875 -28 511.857421875 -28 273 170 c 0,11,12
 120.280273438 296.596679688 120.280273438 296.596679688 62 484.5 c 0,13,14
 33 578 33 578 33 676 c 0,15,16
 33 871.5 33 871.5 129.428710938 1038.7109375 c 128,-1,17
 225.856445312 1205.921875 225.856445312 1205.921875 415.678710938 1309.4609375 c 128,-1,18
 605.5 1413 605.5 1413 874 1413 c 0,19,20
 1074.60839844 1413 1074.60839844 1413 1217.01367188 1356.52929688 c 0,21,22
 1438 1268.89648438 1438 1268.89648438 1438 1116.86035156 c 0,23,24
 1438 1061.72070312 1438 1061.72070312 1392.09960938 1024.36035156 c 128,-1,25
 1346.20019531 987 1346.20019531 987 1284.59960938 987 c 128,-1,26
 1223 987 1223 987 1193 997 c 1,27,28
 1182 1159 1182 1159 1100 1232 c 128,-1,29
 1018 1305 1018 1305 865.5 1305 c 0,30,31
 576.331054688 1305 576.331054688 1305 419.666015625 1136.76855469 c 128,-1,32
 263 968.537109375 263 968.537109375 263 723.004882812 c 128,-1,33
 263 477.47265625 263 477.47265625 437.29296875 304.236328125 c 128,-1,34
 611.584960938 131 611.584960938 131 908 131 c 0,35,36
 1154.38476562 131 1154.38476562 131 1315 261.5 c 0,37,38
 1392.33300781 324.333007812 1392.33300781 324.333007812 1416.16699219 348.166992188 c 128,-1,39
 1440 372 1440 372 1451.5 372 c 0,0,1
EndSplineSet
EndChar

StartChar: D
Encoding: 38 68 37
Width: 1719
Flags: W
LayerCount: 2
Fore
SplineSet
448 142 m 1,0,1
 601 125 601 125 778.5 125 c 0,2,3
 1102.24836601 125 1102.24836601 125 1273.12418301 285.392578125 c 128,-1,4
 1444 445.78515625 1444 445.78515625 1444 696 c 0,5,6
 1444 991.665039062 1444 991.665039062 1237.60546875 1136.83251953 c 128,-1,7
 1031.2109375 1282 1031.2109375 1282 591 1282 c 0,8,9
 448 1282 448 1282 448 1259 c 2,10,-1
 448 142 l 1,0,1
718 -1 m 1,11,-1
 713 0 l 1,12,-1
 337 1 l 2,13,14
 194.823242188 1 194.823242188 1 155.412109375 11 c 0,15,16
 80 30.134765625 80 30.134765625 80 91 c 0,17,18
 80 121.470703125 80 121.470703125 119 129.5 c 0,19,20
 136 133 136 133 155 135 c 0,21,22
 230 142.894736842 230 142.894736842 230 216 c 2,23,-1
 230 1190 l 2,24,25
 230 1265.57910156 230 1265.57910156 155 1271.5 c 0,26,27
 109.159179688 1275.11914062 109.159179688 1275.11914062 94.5791015625 1285.05957031 c 128,-1,28
 80 1295 80 1295 80 1321 c 0,29,30
 80 1374.86567164 80 1374.86567164 149.5 1392.5 c 0,31,32
 194.823242188 1404 194.823242188 1404 337 1404 c 2,33,-1
 646 1404 l 2,34,35
 1112.55371094 1404 1112.55371094 1404 1389.77685547 1229.56738281 c 128,-1,36
 1667 1055.13476562 1667 1055.13476562 1667 749 c 0,37,38
 1667 590 1667 590 1608 452.5 c 128,-1,39
 1549 315 1549 315 1438.5 214.5 c 0,40,41
 1201.55761719 -1 1201.55761719 -1 813 -1 c 2,42,-1
 718 -1 l 1,11,-1
EndSplineSet
EndChar

StartChar: E
Encoding: 39 69 38
Width: 1418
Flags: W
LayerCount: 2
Fore
SplineSet
1291.23144531 356 m 0,0,1
 1369 356 1369 356 1369 260.891601562 c 128,-1,2
 1369 165.784179688 1369 165.784179688 1287.41601562 80.8916015625 c 128,-1,3
 1205.83105469 -4 1205.83105469 -4 1099 -4 c 2,4,-1
 338 0 l 2,5,6
 196 0 196 0 156 10 c 0,7,8
 80 29 80 29 80 90 c 0,9,10
 80 120.470703125 80 120.470703125 119 128.5 c 0,11,12
 136 132 136 132 155 134 c 0,13,14
 230 141.89453125 230 141.89453125 230 215 c 2,15,-1
 230 1190 l 2,16,17
 230 1261.63183594 230 1261.63183594 155 1271.5 c 0,18,19
 104.7734375 1278.10839844 104.7734375 1278.10839844 92.38671875 1286.5546875 c 128,-1,20
 80 1295 80 1295 80 1321 c 0,21,22
 80 1375 80 1375 150 1392.5 c 0,23,24
 196 1404 196 1404 338 1404 c 2,25,-1
 1171 1404 l 2,26,27
 1250.93066406 1404 1250.93066406 1404 1295.46484375 1342.5 c 128,-1,28
 1340 1281 1340 1281 1340 1198 c 0,29,30
 1340 1050 1340 1050 1237 1050 c 0,31,32
 1169.93359375 1050 1169.93359375 1050 1146.96679688 1093.0625 c 128,-1,33
 1124 1136.125 1124 1136.125 1124 1211 c 2,34,-1
 1124 1262 l 1,35,-1
 1125 1286 l 1,36,-1
 449 1286 l 1,37,-1
 449 787 l 1,38,-1
 878 787 l 1,39,40
 887.090820312 796.090820312 887.090820312 796.090820312 910.545898438 841.045898438 c 128,-1,41
 934 886 934 886 946 903.5 c 128,-1,42
 958 921 958 921 969 921 c 0,43,44
 1082 921 1082 921 1082 729 c 0,45,46
 1082 602 1082 602 1030 550 c 0,47,48
 1008 528 1008 528 984.5 528 c 128,-1,49
 961 528 961 528 946.029296875 543.71875 c 128,-1,50
 931.05859375 559.438476562 931.05859375 559.438476562 898 635 c 1,51,-1
 897 636 l 2,52,53
 897 637 897 637 877 672 c 1,54,-1
 449 672 l 1,55,-1
 449 131 l 1,56,-1
 1088 131 l 1,57,58
 1104.52636719 147.526367188 1104.52636719 147.526367188 1146.45214844 215.147460938 c 128,-1,59
 1188.37695312 282.76953125 1188.37695312 282.76953125 1221.42089844 319.384765625 c 128,-1,60
 1254.46386719 356 1254.46386719 356 1291.23144531 356 c 0,0,1
896 635 m 2,61,62
 896 636 896 636 897 636 c 2,63,-1
 896 635 l 2,61,62
EndSplineSet
EndChar

StartChar: F
Encoding: 40 70 39
Width: 1286
Flags: W
LayerCount: 2
Fore
SplineSet
897 636 m 1,0,1
 896 635 l 1,2,-1
 897 636 l 1,0,1
600 85.5 m 0,3,4
 600 -2.205078125 600 -2.205078125 402.41015625 -2.205078125 c 128,-1,5
 204.8203125 -2.205078125 204.8203125 -2.205078125 150 11.5 c 0,6,7
 80 29 80 29 80 90 c 0,8,9
 80 120.470703125 80 120.470703125 119 128.5 c 0,10,11
 136 132 136 132 155 134 c 0,12,13
 230 141.89453125 230 141.89453125 230 215 c 2,14,-1
 230 1190 l 2,15,16
 230 1261.63183594 230 1261.63183594 155 1271.5 c 0,17,18
 104.7734375 1278.10839844 104.7734375 1278.10839844 92.38671875 1286.5546875 c 128,-1,19
 80 1295 80 1295 80 1321 c 0,20,21
 80 1374.72753906 80 1374.72753906 149 1392.5 c 0,22,23
 193.647460938 1404 193.647460938 1404 336 1404 c 2,24,-1
 1171 1404 l 2,25,26
 1250.93066406 1404 1250.93066406 1404 1295.46484375 1342.5 c 128,-1,27
 1340 1281 1340 1281 1340 1198 c 0,28,29
 1340 1050 1340 1050 1237 1050 c 0,30,31
 1169.93359375 1050 1169.93359375 1050 1146.96679688 1093.0625 c 128,-1,32
 1124 1136.125 1124 1136.125 1124 1211 c 2,33,-1
 1124 1262 l 1,34,-1
 1125 1286 l 1,35,-1
 450 1286 l 1,36,-1
 450 787 l 1,37,-1
 878 787 l 1,38,39
 890.961914062 798.881835938 890.961914062 798.881835938 913.48046875 842.940429688 c 128,-1,40
 936 887 936 887 947 904 c 128,-1,41
 958 921 958 921 969 921 c 0,42,43
 1082 921 1082 921 1082 729 c 0,44,45
 1082 602 1082 602 1030 550 c 0,46,47
 1008 528 1008 528 984.5 528 c 128,-1,48
 961 528 961 528 946.029296875 543.71875 c 128,-1,49
 931.05859375 559.438476562 931.05859375 559.438476562 898 635 c 1,50,-1
 897 636 l 1,51,52
 897 639.692382812 897 639.692382812 877 672 c 1,53,-1
 450 672 l 1,54,-1
 450 215 l 2,55,56
 450 147.40625 450 147.40625 509 134.5 c 0,57,58
 524.529296875 131.072265625 524.529296875 131.072265625 543.764648438 129.036132812 c 128,-1,59
 563 127 563 127 581.5 120.5 c 128,-1,60
 600 114 600 114 600 85.5 c 0,3,4
EndSplineSet
EndChar

StartChar: G
Encoding: 41 71 40
Width: 1547
Flags: W
LayerCount: 2
Fore
SplineSet
1216 453 m 2,0,1
 1216 478 1216 478 1210 505.5 c 128,-1,2
 1204 533 1204 533 1202.5 550 c 128,-1,3
 1201 567 1201 567 1188 579.5 c 128,-1,4
 1175 592 1175 592 1157 600 c 128,-1,5
 1139 608 1139 608 1119 613 c 128,-1,6
 1099 618 1099 618 1071 626.235351562 c 128,-1,7
 1043 634.470703125 1043 634.470703125 1043 651 c 0,8,9
 1043 738.647460938 1043 738.647460938 1208 743.5 c 0,10,11
 1259 745 1259 745 1360.25 745 c 128,-1,12
 1461.5 745 1461.5 745 1507.5 733 c 0,13,14
 1580 714.086914062 1580 714.086914062 1580 651 c 0,15,16
 1580 635 1580 635 1558 627.5 c 128,-1,17
 1536 620 1536 620 1508 612 c 0,18,19
 1432.65136719 590.471679688 1432.65136719 590.471679688 1419 548 c 1,20,-1
 1414 516.5 l 2,21,22
 1409.83300781 488.583007812 1409.83300781 488.583007812 1409.83300781 464.958007812 c 0,23,24
 1409.83300781 441.333007812 1409.83300781 441.333007812 1410 433 c 2,25,-1
 1413 154 l 1,26,27
 1383 145 1383 145 1332 115.5 c 0,28,29
 1085.64453125 -27 1085.64453125 -27 827.536132812 -27 c 128,-1,30
 569.428710938 -27 569.428710938 -27 392.370117188 72.72265625 c 128,-1,31
 215.311523438 172.4453125 215.311523438 172.4453125 125.65625 335.268554688 c 128,-1,32
 36 498.091796875 36 498.091796875 36 683 c 0,33,34
 36 979.014648438 36 979.014648438 239 1185 c 0,35,36
 463.6953125 1413 463.6953125 1413 844 1413 c 0,37,38
 1044.60839844 1413 1044.60839844 1413 1187.01367188 1356.52929688 c 0,39,40
 1408 1268.89648438 1408 1268.89648438 1408 1116.86035156 c 0,41,42
 1408 1061.72070312 1408 1061.72070312 1362.09960938 1024.36035156 c 128,-1,43
 1316.20019531 987 1316.20019531 987 1254.38574219 987 c 128,-1,44
 1192.57128906 987 1192.57128906 987 1164 997 c 1,45,46
 1153 1159 1153 1159 1070 1232 c 128,-1,47
 987 1305 987 1305 839 1305 c 0,48,49
 561.481445312 1305 561.481445312 1305 413.240234375 1136.78320312 c 128,-1,50
 265 968.567382812 265 968.567382812 265 728.283203125 c 128,-1,51
 265 488 265 488 421.115234375 303.5 c 128,-1,52
 577.23046875 119 577.23046875 119 847 119 c 0,53,54
 934.857421875 119 934.857421875 119 1013.92871094 139.5 c 128,-1,55
 1093 160 1093 160 1126.5 174.5 c 0,56,57
 1212.43359375 211.6953125 1212.43359375 211.6953125 1214.5 267.5 c 0,58,59
 1216 308 1216 308 1216 334.5 c 2,60,-1
 1216 453 l 2,0,1
EndSplineSet
EndChar

StartChar: H
Encoding: 42 72 41
Width: 1761
Flags: W
LayerCount: 2
Fore
SplineSet
1305 1190 m 2,0,1
 1305 1263.359375 1305 1263.359375 1230.5 1271 c 0,2,3
 1184.24121094 1275.74414062 1184.24121094 1275.74414062 1170.12109375 1285.37207031 c 128,-1,4
 1156 1295 1156 1295 1156 1321 c 0,5,6
 1156 1374.86567164 1156 1374.86567164 1225.5 1392.5 c 0,7,8
 1270.82324219 1404 1270.82324219 1404 1413.9116211 1404 c 128,-1,9
 1557 1404 1557 1404 1603 1392.5 c 0,10,11
 1674 1374.75 1674 1374.75 1674 1314 c 0,12,13
 1674 1295 1674 1295 1660.72072072 1286.54954955 c 128,-1,14
 1647.44144144 1278.0990991 1647.44144144 1278.0990991 1599 1273 c 0,15,16
 1524 1265.10526316 1524 1265.10526316 1524 1190 c 2,17,-1
 1524 215 l 2,18,19
 1524 147.12109375 1524 147.12109375 1583.5 134.5 c 0,20,21
 1599.51464844 131.072265625 1599.51464844 131.072265625 1618.75683594 129.036132812 c 128,-1,22
 1638 127 1638 127 1656 120.5 c 128,-1,23
 1674 114 1674 114 1674 85.5 c 0,24,25
 1674 29.25 1674 29.25 1603 11.5 c 0,26,27
 1557 0 1557 0 1413.91176471 0 c 128,-1,28
 1270.82352941 0 1270.82352941 0 1225.5 11.5 c 0,29,30
 1156 29.134765625 1156 29.134765625 1156 90 c 0,31,32
 1156 120.333007812 1156 120.333007812 1194.5 128.5 c 0,33,34
 1211 132 1211 132 1230.5 134 c 0,35,36
 1305 141.641025641 1305 141.641025641 1305 215 c 2,37,-1
 1305 662 l 1,38,-1
 448 662 l 1,39,-1
 448 215 l 2,40,41
 448 146.852539062 448 146.852539062 508 134.5 c 0,42,43
 524.5 131.072265625 524.5 131.072265625 543.75 129.036132812 c 128,-1,44
 563 127 563 127 581 120.5 c 128,-1,45
 599 114 599 114 599 85.5 c 0,46,47
 599 29.115942029 599 29.115942029 527.5 11.5 c 0,48,49
 480.823242188 0 480.823242188 0 337 0 c 256,50,51
 194.823242188 0 194.823242188 0 155.412109375 10 c 0,52,53
 80 29.134765625 80 29.134765625 80 90 c 0,54,55
 80 120.470703125 80 120.470703125 119 128.5 c 0,56,57
 136 132 136 132 155 134 c 0,58,59
 230 141.894736842 230 141.894736842 230 215 c 2,60,-1
 230 1190 l 2,61,62
 230 1265.57910156 230 1265.57910156 155 1271.5 c 0,63,64
 109.159179688 1275.11914062 109.159179688 1275.11914062 94.5791015625 1285.05957031 c 128,-1,65
 80 1295 80 1295 80 1321 c 0,66,67
 80 1374.86567164 80 1374.86567164 149.5 1392.5 c 0,68,69
 194.823242188 1404 194.823242188 1404 337 1404 c 256,70,71
 480.823242188 1404 480.823242188 1404 521.412109375 1394 c 0,72,73
 599 1374.88378906 599 1374.88378906 599 1314 c 0,74,75
 599 1295 599 1295 584.709606987 1285.90611354 c 128,-1,76
 570.419213974 1276.81222707 570.419213974 1276.81222707 523.5 1272 c 0,77,78
 448 1264.25641026 448 1264.25641026 448 1190 c 2,79,-1
 448 777 l 1,80,-1
 1305 777 l 1,81,-1
 1305 1190 l 2,0,1
EndSplineSet
EndChar

StartChar: I
Encoding: 43 73 42
Width: 685
Flags: W
LayerCount: 2
Fore
SplineSet
599 85.5 m 0,0,1
 599 -2.240234375 599 -2.240234375 401.979492188 -2.240234375 c 128,-1,2
 204.958984375 -2.240234375 204.958984375 -2.240234375 150 11.5 c 0,3,4
 80 29 80 29 80 90 c 0,5,6
 80 120.470703125 80 120.470703125 119 128.5 c 0,7,8
 136 132 136 132 155 134 c 0,9,10
 230 141.89453125 230 141.89453125 230 215 c 2,11,-1
 230 1190 l 2,12,13
 230 1261.63183594 230 1261.63183594 155 1271.5 c 0,14,15
 104.7734375 1278.10839844 104.7734375 1278.10839844 92.38671875 1286.5546875 c 128,-1,16
 80 1295 80 1295 80 1321 c 0,17,18
 80 1375 80 1375 150 1392.5 c 0,19,20
 196 1404 196 1404 338.412109375 1404 c 128,-1,21
 480.823242188 1404 480.823242188 1404 527.5 1392.5 c 0,22,23
 599 1374.88378906 599 1374.88378906 599 1314 c 0,24,25
 599 1295 599 1295 585.646484375 1286.50195312 c 128,-1,26
 572.29296875 1278.00390625 572.29296875 1278.00390625 523.5 1273 c 0,27,28
 448 1265.25683594 448 1265.25683594 448 1190 c 2,29,-1
 448 215 l 2,30,31
 448 147.12109375 448 147.12109375 507.5 134.5 c 0,32,33
 523.514648438 131.072265625 523.514648438 131.072265625 543.256835938 129.036132812 c 128,-1,34
 563 127 563 127 581 120.5 c 128,-1,35
 599 114 599 114 599 85.5 c 0,0,1
EndSplineSet
EndChar

StartChar: J
Encoding: 44 74 43
Width: 908
Flags: W
LayerCount: 2
Fore
SplineSet
196 144 m 1,0,1
 256.571289062 91 256.571289062 91 309.786132812 91 c 0,2,3
 520 91 520 91 520 340 c 2,4,-1
 520 1190 l 2,5,6
 520 1263.25683594 520 1263.25683594 444.5 1271 c 0,7,8
 397.064453125 1275.86523438 397.064453125 1275.86523438 383.032226562 1285.43261719 c 128,-1,9
 369 1295 369 1295 369 1321 c 0,10,11
 369 1375 369 1375 439 1392.5 c 0,12,13
 485 1404 485 1404 628 1404 c 128,-1,14
 771 1404 771 1404 817 1392.5 c 0,15,16
 888 1374.75 888 1374.75 888 1314 c 0,17,18
 888 1295 888 1295 873.709960938 1285.90625 c 128,-1,19
 859.418945312 1276.8125 859.418945312 1276.8125 812.5 1272 c 0,20,21
 737 1264.25683594 737 1264.25683594 737 1190 c 2,22,-1
 737 439 l 2,23,24
 737 148.611328125 737 148.611328125 597 47.5 c 0,25,26
 500.76953125 -22 500.76953125 -22 356.084960938 -22 c 128,-1,27
 211.400390625 -22 211.400390625 -22 113.200195312 41.35546875 c 128,-1,28
 15 104.709960938 15 104.709960938 15 226 c 0,29,30
 15 297 15 297 55.5 339 c 128,-1,31
 96 381 96 381 163 381 c 0,32,33
 293 381 293 381 293 256 c 0,34,35
 293 203.799804688 293 203.799804688 233.5 163 c 0,36,37
 216 151 216 151 196 144 c 1,0,1
EndSplineSet
EndChar

StartChar: K
Encoding: 45 75 44
Width: 1555
Flags: W
LayerCount: 2
Fore
SplineSet
1522 83.5 m 0,0,1
 1522 -1 1522 -1 1326.85253906 -1 c 0,2,3
 1211.40039062 -1 1211.40039062 -1 1171.20019531 14.869140625 c 128,-1,4
 1131 30.7373046875 1131 30.7373046875 1131 40 c 1,5,6
 756.052734375 537.526367188 756.052734375 537.526367188 630 714 c 1,7,-1
 449 565 l 1,8,-1
 449 213 l 2,9,10
 449 137.307617188 449 137.307617188 524.5 131.5 c 0,11,12
 572.404296875 127.815429688 572.404296875 127.815429688 586.202148438 118.407226562 c 128,-1,13
 600 109 600 109 600 83 c 0,14,15
 600 29.25 600 29.25 529 11.5 c 0,16,17
 483 0 483 0 339.412109375 0 c 128,-1,18
 195.823242188 0 195.823242188 0 150.5 11.5 c 0,19,20
 80 29.3876953125 80 29.3876953125 80 90 c 0,21,22
 80 120.470703125 80 120.470703125 119 128.5 c 0,23,24
 136 132 136 132 155.5 134 c 0,25,26
 231 141.743164062 231 141.743164062 231 215 c 2,27,-1
 231 1190 l 2,28,29
 231 1263.25683594 231 1263.25683594 155.5 1271 c 0,30,31
 108.064453125 1275.86523438 108.064453125 1275.86523438 94.0322265625 1285.43261719 c 128,-1,32
 80 1295 80 1295 80 1321 c 0,33,34
 80 1374.61230469 80 1374.61230469 150.5 1392.5 c 0,35,36
 195.823242188 1404 195.823242188 1404 339.412109375 1404 c 128,-1,37
 483 1404 483 1404 529 1392.5 c 0,38,39
 600 1374.75 600 1374.75 600 1314 c 0,40,41
 600 1295 600 1295 585.709960938 1285.90625 c 128,-1,42
 571.418945312 1276.8125 571.418945312 1276.8125 524.5 1272 c 0,43,44
 449 1264.25683594 449 1264.25683594 449 1189 c 2,45,-1
 449 681 l 1,46,47
 644.666992188 855.795898438 644.666992188 855.795898438 1050 1226 c 0,48,49
 1071 1245 1071 1245 1071 1257 c 128,-1,50
 1071 1269 1071 1269 1057.5 1271.5 c 128,-1,51
 1044 1274 1044 1274 1027.5 1276.5 c 128,-1,52
 1011 1279 1011 1279 997.5 1285.5 c 128,-1,53
 984 1292 984 1292 984 1317.5 c 0,54,55
 984 1370.25976562 984 1370.25976562 1028.39453125 1387.12988281 c 128,-1,56
 1072.7890625 1404 1072.7890625 1404 1172.39453125 1404 c 128,-1,57
 1272 1404 1272 1404 1320.5 1403 c 128,-1,58
 1369 1402 1369 1402 1395.5 1395 c 128,-1,59
 1422 1388 1422 1388 1430.5 1371.5 c 128,-1,60
 1439 1355 1439 1355 1439 1331 c 128,-1,61
 1439 1307 1439 1307 1420 1298.5 c 128,-1,62
 1401 1290 1401 1290 1357 1279 c 1,63,-1
 1259 1250 l 1,64,65
 1166 1171 1166 1171 1103 1117.5 c 128,-1,66
 1040 1064 1040 1064 934.978515625 974.731445312 c 128,-1,67
 829.956054688 885.462890625 829.956054688 885.462890625 779 843 c 1,68,-1
 1303 201 l 1,69,70
 1340 162 1340 162 1378.5 149.5 c 128,-1,71
 1417 137 1417 137 1449 132 c 128,-1,72
 1481 127 1481 127 1501.5 120 c 128,-1,73
 1522 113 1522 113 1522 83.5 c 0,0,1
EndSplineSet
EndChar

StartChar: L
Encoding: 46 76 45
Width: 1360
Flags: W
LayerCount: 2
Fore
SplineSet
1260 356 m 0,0,1
 1330 356 1330 356 1330 263.580645161 c 128,-1,2
 1330 171.161290323 1330 171.161290323 1262.125 83.5806451613 c 128,-1,3
 1194.25 -4 1194.25 -4 1094 -4 c 2,4,-1
 353 0 l 2,5,6
 199.5 0 199.5 0 155.75 10.5 c 128,-1,7
 112 21 112 21 91.5 40 c 128,-1,8
 71 59 71 59 71 84 c 128,-1,9
 71 109 71 109 92 116.5 c 128,-1,10
 113 124 113 124 141 132.5 c 0,11,12
 215.551757812 155.131835938 215.551757812 155.131835938 232 197 c 1,13,14
 245 255.5 245 255.5 245 312 c 2,15,-1
 245 1093 l 2,16,17
 245 1223.90527344 245 1223.90527344 197.5 1249 c 0,18,19
 171 1263 171 1263 143 1271.5 c 128,-1,20
 115 1280 115 1280 93 1287.5 c 128,-1,21
 71 1295 71 1295 71 1320 c 0,22,23
 71 1373.16 71 1373.16 149.5 1392 c 0,24,25
 199.5 1404 199.5 1404 353 1404 c 256,26,27
 508.5 1404 508.5 1404 552.25 1393.5 c 128,-1,28
 596 1383 596 1383 617 1364 c 128,-1,29
 638 1345 638 1345 638 1321 c 128,-1,30
 638 1297 638 1297 618.5 1289.5 c 128,-1,31
 599 1282 599 1282 573.5 1274.5 c 128,-1,32
 548 1267 548 1267 527 1260.5 c 128,-1,33
 506 1254 506 1254 492 1236.5 c 0,34,35
 464 1201.5 464 1201.5 464 1093 c 2,36,-1
 464 167 l 2,37,38
 464 122 464 122 557 122 c 0,39,40
 766.8 122 766.8 122 923.757910156 137.238769531 c 128,-1,41
 1080.71582031 152.477539062 1080.71582031 152.477539062 1101 166 c 1,42,43
 1116 184 1116 184 1129.5 216 c 128,-1,44
 1143 248 1143 248 1160 279 c 0,45,46
 1202.22558594 356 1202.22558594 356 1260 356 c 0,0,1
EndSplineSet
EndChar

StartChar: M
Encoding: 47 77 46
Width: 2007
Flags: W
LayerCount: 2
Fore
SplineSet
278 1406 m 1,0,-1
 366 1404 l 2,1,2
 396.962890625 1404 396.962890625 1404 443 1347.5 c 0,3,4
 454 1334 454 1334 459 1324 c 2,5,-1
 986 375 l 1,6,7
 1035.5 455.4375 1035.5 455.4375 1131.75 616.21875 c 128,-1,8
 1228 777 1228 777 1301 898 c 128,-1,9
 1374 1019 1374 1019 1492 1218 c 1,10,-1
 1492 1217 l 1,11,12
 1508 1245 1508 1245 1524.5 1278 c 0,13,14
 1587.5 1404 1587.5 1404 1673 1404 c 1,15,-1
 1746 1405 l 1,16,17
 1929 1405 1929 1405 1929 1315 c 0,18,19
 1929 1296.41015625 1929 1296.41015625 1897 1288.20507812 c 128,-1,20
 1865 1280 1865 1280 1843 1276 c 128,-1,21
 1821 1272 1821 1272 1789 1263.79492188 c 128,-1,22
 1757 1255.58984375 1757 1255.58984375 1757 1234 c 2,23,-1
 1757 172 l 2,24,25
 1757 139.727539062 1757 139.727539062 1843 128 c 128,-1,26
 1929 116.272460938 1929 116.272460938 1929 90 c 0,27,28
 1929 -1 1929 -1 1731 -1 c 1,29,-1
 1652 1 l 257,30,-1
 1569 -1 l 1,31,32
 1373 -1 1373 -1 1373 90 c 0,33,34
 1373 109.918945312 1373 109.918945312 1404 117.458984375 c 128,-1,35
 1435 125 1435 125 1456.5 128 c 0,36,37
 1540 139.651367188 1540 139.651367188 1540 172 c 2,38,-1
 1540 1064 l 1,39,40
 1497.80761719 989.66015625 1497.80761719 989.66015625 1423.73046875 853.489257812 c 128,-1,41
 1349.65332031 717.318359375 1349.65332031 717.318359375 1221.46972656 489.251953125 c 128,-1,42
 1093.28710938 261.185546875 1093.28710938 261.185546875 1017 174 c 1,43,-1
 1017 175 l 1,44,45
 989 147 989 147 961 147 c 128,-1,46
 933 147 933 147 917.5 155.5 c 128,-1,47
 902 164 902 164 891 177.5 c 128,-1,48
 880 191 880 191 871 207 c 128,-1,49
 862 223 862 223 852 239 c 2,50,-1
 415 957 l 1,51,-1
 415 172 l 2,52,53
 415 139.533203125 415 139.533203125 501.5 128 c 128,-1,54
 588 116.466796875 588 116.466796875 588 90 c 0,55,56
 588 0 588 0 402 0 c 1,57,-1
 329 1 l 257,58,-1
 253 -1 l 1,59,60
 71 -1 71 -1 71 90 c 0,61,62
 71 110.918945312 71 110.918945312 102 118.458984375 c 128,-1,63
 133 126 133 126 155 129 c 0,64,65
 239 140.454101562 239 140.454101562 239 172 c 2,66,-1
 239 1234 l 2,67,68
 239 1260.72753906 239 1260.72753906 155 1276 c 128,-1,69
 71 1291.27246094 71 1291.27246094 71 1315 c 0,70,71
 71 1406 71 1406 278 1406 c 1,0,-1
EndSplineSet
EndChar

StartChar: N
Encoding: 48 78 47
Width: 1748
Flags: W
LayerCount: 2
Fore
SplineSet
1377 493 m 1,0,-1
 1376 500 l 1,1,-1
 1376 1213 l 2,2,3
 1376 1235.42871094 1376 1235.42871094 1290 1260 c 128,-1,4
 1204 1284.57128906 1204 1284.57128906 1204 1305 c 0,5,6
 1204 1364.75976562 1204 1364.75976562 1283.81835938 1399.87988281 c 128,-1,7
 1363.63671875 1435 1363.63671875 1435 1469.06835938 1435 c 128,-1,8
 1574.5 1435 1574.5 1435 1651.75 1401.13720703 c 128,-1,9
 1729 1367.27441406 1729 1367.27441406 1729 1305 c 0,10,11
 1729 1285.40917969 1729 1285.40917969 1646 1259 c 128,-1,12
 1563 1232.59082031 1563 1232.59082031 1563 1213 c 2,13,-1
 1562 88 l 2,14,15
 1562 16.5 1562 16.5 1527 -11 c 0,16,17
 1513 -22 1513 -22 1496.5 -22 c 0,18,19
 1452.99999999 -22 1452.99999999 -22 1375 56 c 1,20,-1
 1007 452 l 1,21,-1
 429 1083 l 1,22,-1
 429 193 l 2,23,24
 429 163.909179688 429 163.909179688 513 141 c 128,-1,25
 597 118.090820312 597 118.090820312 597 89.0458984375 c 0,26,27
 597 32.8767123288 597 32.8767123288 520.379394531 2.43835616438 c 128,-1,28
 443.758789062 -28 443.758789062 -28 335.379394531 -28 c 128,-1,29
 227 -28 227 -28 148.5 3.82421875 c 128,-1,30
 70 35.6484375 70 35.6484375 70 91 c 0,31,32
 70 114.900390625 70 114.900390625 112.461914062 127.815429688 c 128,-1,33
 154.923828125 140.73046875 154.923828125 140.73046875 177.592264256 146.680409472 c 0,34,35
 243 163.848428835 243 163.848428835 243 193 c 2,36,-1
 243 1234 l 2,37,38
 243 1260.62207031 243 1260.62207031 156.5 1276 c 128,-1,39
 70 1291.37792969 70 1291.37792969 70 1315 c 0,40,41
 70 1376.31445312 70 1376.31445312 143 1393 c 0,42,43
 191.125 1404 191.125 1404 300.348632812 1404 c 128,-1,44
 409.571289062 1404 409.571289062 1404 437 1380 c 1,45,-1
 437 1381 l 1,46,-1
 1377 362 l 1,47,-1
 1377 493 l 1,0,-1
EndSplineSet
EndChar

StartChar: O
Encoding: 49 79 48
Width: 1761
Flags: W
LayerCount: 2
Fore
SplineSet
856.587890625 1293 m 128,-1,1
 570.270507812 1293 570.270507812 1293 411.134765625 1125.43359375 c 128,-1,2
 252 957.8671875 252 957.8671875 252 713.5625 c 128,-1,3
 252 469.258789062 252 469.258789062 425.21484375 289.62890625 c 128,-1,4
 598.428710938 110 598.428710938 110 870.942382812 110 c 128,-1,5
 1143.45605469 110 1143.45605469 110 1314.72851562 274.869140625 c 128,-1,6
 1486 439.73828125 1486 439.73828125 1486 683.8046875 c 128,-1,7
 1486 927.87109375 1486 927.87109375 1314.45214844 1110.43554688 c 128,-1,0
 1142.90527344 1293 1142.90527344 1293 856.587890625 1293 c 128,-1,1
449 58.5 m 128,-1,9
 259.384765625 141.971679688 259.384765625 141.971679688 146.192382812 297.354492188 c 128,-1,10
 33 452.736328125 33 452.736328125 33 637.368164062 c 0,11,12
 33 986.473632812 33 986.473632812 271.153320312 1201.23632812 c 128,-1,13
 509.306640625 1416 509.306640625 1416 862.416992188 1416 c 128,-1,14
 1215.52636719 1416 1215.52636719 1416 1455 1241 c 0,15,16
 1614.359375 1124.54492188 1614.359375 1124.54492188 1676.5 947 c 0,17,18
 1708 857 1708 857 1708 749.5 c 0,19,20
 1708 531.733398438 1708 531.733398438 1599.61425781 354.186523438 c 128,-1,21
 1491.22753906 176.639648438 1491.22753906 176.639648438 1297.81835938 75.8203125 c 128,-1,22
 1104.40820312 -25 1104.40820312 -25 871.543945312 -25 c 128,-1,8
 638.678710938 -25 638.678710938 -25 449 58.5 c 128,-1,9
EndSplineSet
EndChar

StartChar: P
Encoding: 50 80 49
Width: 1389
Flags: W
LayerCount: 2
Fore
SplineSet
465 594 m 1,0,-1
 465 172 l 2,1,2
 465 140.704101562 465 140.704101562 548 127.5 c 128,-1,3
 631 114.295898438 631 114.295898438 631 90 c 0,4,5
 631 28.5478515625 631 28.5478515625 555.5 12 c 0,6,7
 505.3125 1 505.3125 1 352 1 c 256,8,9
 198.6875 1 198.6875 1 155.34375 10.5 c 128,-1,10
 112 20 112 20 92 38.5 c 128,-1,11
 72 57 72 57 72 79.5 c 128,-1,12
 72 102 72 102 89.0634765625 111.555664062 c 128,-1,13
 106.125976562 121.110351562 106.125976562 121.110351562 172.563476562 130.380859375 c 128,-1,14
 239 139.651367188 239 139.651367188 239 172 c 2,15,-1
 239 1234 l 2,16,17
 239 1255.24316406 239 1255.24316406 208 1263.62207031 c 128,-1,18
 177 1272 177 1272 155.5 1276 c 128,-1,19
 134 1280 134 1280 103 1288.37890625 c 128,-1,20
 72 1296.75683594 72 1296.75683594 72 1315 c 0,21,22
 72 1393.6640625 72 1393.6640625 258.5 1401.5 c 0,23,24
 318 1404 318 1404 393 1404 c 2,25,-1
 567 1404 l 2,26,27
 900.063476562 1404 900.063476562 1404 1078.72558594 1353.71777344 c 128,-1,28
 1257.38769531 1303.43554688 1257.38769531 1303.43554688 1330.5 1180 c 0,29,30
 1369 1115 1369 1115 1369 1039.5 c 0,31,32
 1369 889.030273438 1369 889.030273438 1311.5 807.5 c 0,33,34
 1239.96484375 706.069335938 1239.96484375 706.069335938 1056.13085938 650.03515625 c 128,-1,35
 872.297851562 594 872.297851562 594 528 594 c 2,36,-1
 465 594 l 1,0,-1
585 710 m 2,37,38
 1143 710 1143 710 1143 979 c 0,39,40
 1143 1209.23925781 1143 1209.23925781 871.5 1264.5 c 0,41,42
 770.782226562 1285 770.782226562 1285 676.891601562 1285 c 128,-1,43
 583 1285 583 1285 551.5 1279 c 128,-1,44
 520 1273 520 1273 495.609375 1252.56445312 c 128,-1,45
 471.21875 1232.12890625 471.21875 1232.12890625 465 1143 c 1,46,-1
 465 713 l 1,47,48
 498 710 498 710 536 710 c 2,49,-1
 585 710 l 2,37,38
EndSplineSet
EndChar

StartChar: Q
Encoding: 51 81 50
Width: 1760
Flags: W
LayerCount: 2
Fore
SplineSet
1091.74414062 8.78125 m 1,0,1
 1276.49609375 -188 1276.49609375 -188 1421.1328125 -188 c 0,2,3
 1502.5 -188 1502.5 -188 1605 -148 c 1,4,5
 1621 -184.799804688 1621 -184.799804688 1621 -222 c 0,6,7
 1621 -314 1621 -314 1563.5 -366 c 128,-1,8
 1506 -418 1506 -418 1401.94335938 -418 c 128,-1,9
 1297.88671875 -418 1297.88671875 -418 1190.5 -343 c 0,10,11
 1159 -321 1159 -321 1136 -295 c 1,12,-1
 903.084960938 -15.501953125 l 1,13,14
 886.912109375 -16 886.912109375 -16 870.543945312 -16 c 0,15,16
 637.678710938 -16 637.678710938 -16 448 67.5 c 128,-1,17
 258.384765625 150.971679688 258.384765625 150.971679688 145.192382812 306.354492188 c 128,-1,18
 32 461.736328125 32 461.736328125 32 646.368164062 c 0,19,20
 32 995.473632812 32 995.473632812 270.153320312 1210.23632812 c 128,-1,21
 508.306640625 1425 508.306640625 1425 861.416992188 1425 c 128,-1,22
 1214.52636719 1425 1214.52636719 1425 1454 1250 c 0,23,24
 1613.359375 1133.54492188 1613.359375 1133.54492188 1675.5 956 c 0,25,26
 1707 866 1707 866 1707 758.5 c 0,27,28
 1707 540.733398438 1707 540.733398438 1598.61425781 363.186523438 c 128,-1,29
 1490.22753906 185.639648438 1490.22753906 185.639648438 1296.81835938 84.8203125 c 0,30,31
 1199.296875 33.984375 1199.296875 33.984375 1091.74414062 8.78125 c 1,0,1
855.587890625 1302 m 128,-1,33
 569.270507812 1302 569.270507812 1302 410.134765625 1134.43359375 c 128,-1,34
 251 966.8671875 251 966.8671875 251 722.5625 c 128,-1,35
 251 478.258789062 251 478.258789062 424.21484375 298.62890625 c 128,-1,36
 597.428710938 119 597.428710938 119 869.942382812 119 c 128,-1,37
 1142.45605469 119 1142.45605469 119 1313.72851562 283.869140625 c 128,-1,38
 1485 448.73828125 1485 448.73828125 1485 692.8046875 c 128,-1,39
 1485 936.87109375 1485 936.87109375 1313.45214844 1119.43554688 c 128,-1,32
 1141.90527344 1302 1141.90527344 1302 855.587890625 1302 c 128,-1,33
EndSplineSet
EndChar

StartChar: R
Encoding: 52 82 51
Width: 1561
Flags: W
LayerCount: 2
Fore
SplineSet
1541 63 m 0,0,1
 1541 -16 1541 -16 1374.06640625 -16 c 128,-1,2
 1207.13378906 -16 1207.13378906 -16 1125 40 c 1,3,-1
 1126 40 l 1,4,5
 995.081054688 147.420898438 995.081054688 147.420898438 823 467 c 1,6,-1
 806 503 l 2,7,8
 796 524 796 524 776.5 555.5 c 128,-1,9
 757 587 757 587 740 619 c 1,10,-1
 463 619 l 1,11,-1
 463 172 l 2,12,13
 463 140.86328125 463 140.86328125 547 127.5 c 128,-1,14
 631 114.13671875 631 114.13671875 631 90 c 0,15,16
 631 28.5478515625 631 28.5478515625 555.5 12 c 0,17,18
 505.3125 1 505.3125 1 352 1 c 256,19,20
 197.6875 1 197.6875 1 154.34375 10.5 c 128,-1,21
 111 20 111 20 91 38.5 c 128,-1,22
 71 57 71 57 71 79.5 c 128,-1,23
 71 102 71 102 88.1669921875 111.61328125 c 128,-1,24
 105.334960938 121.227539062 105.334960938 121.227539062 172.166992188 130.340820312 c 128,-1,25
 239 139.454101562 239 139.454101562 239 172 c 2,26,-1
 239 1234 l 2,27,28
 239 1255.24316406 239 1255.24316406 208 1263.62207031 c 128,-1,29
 177 1272 177 1272 155 1276 c 128,-1,30
 133 1280 133 1280 102 1288.37890625 c 128,-1,31
 71 1296.75683594 71 1296.75683594 71 1315 c 0,32,33
 71 1393.70800781 71 1393.70800781 258 1401.5 c 0,34,35
 318 1404 318 1404 393 1404 c 2,36,-1
 566 1404 l 2,37,38
 894.361328125 1404 894.361328125 1404 1068.84082031 1353.69042969 c 128,-1,39
 1243.31933594 1303.38085938 1243.31933594 1303.38085938 1314.5 1180 c 0,40,41
 1352 1115 1352 1115 1352 1028 c 0,42,43
 1352 869.435546875 1352 869.435546875 1230.40039062 769.662109375 c 128,-1,44
 1108.80078125 669.887695312 1108.80078125 669.887695312 930 635 c 1,45,-1
 982 563 l 1,46,47
 1114.00195312 368.879882812 1114.00195312 368.879882812 1240.5 231.5 c 0,48,49
 1287 181 1287 181 1327 149 c 1,50,51
 1400.18164062 103 1400.18164062 103 1524 103 c 1,52,53
 1541 86 1541 86 1541 63 c 0,0,1
502.413085938 1257.83691406 m 128,-1,55
 469.1171875 1230.67382812 469.1171875 1230.67382812 463 1143 c 1,56,-1
 463 740 l 1,57,-1
 733 740 l 2,58,59
 998.874023438 740 998.874023438 740 1093 871.5 c 0,60,61
 1127 919 1127 919 1127 985.5 c 0,62,63
 1127 1285 1127 1285 652.333007812 1285 c 0,64,54
 535.709960938 1285 535.709960938 1285 502.413085938 1257.83691406 c 128,-1,55
EndSplineSet
EndChar

StartChar: S
Encoding: 53 83 52
Width: 1289
Flags: W
LayerCount: 2
Fore
SplineSet
324 245 m 0,0,1
 324 214 324 214 318 178 c 1,2,3
 423.009765625 127.305664062 423.009765625 127.305664062 569.5 107 c 0,4,5
 620 100 620 100 662.5 100 c 0,6,7
 879.627510899 100 879.627510899 100 984.903954802 188.018132614 c 0,8,9
 1047 239.934570312 1047 239.934570312 1047 330 c 0,10,11
 1047 468.012695312 1047 468.012695312 772.5 572.5 c 0,12,13
 695 602 695 602 574.469981238 643.324577861 c 128,-1,14
 453.939962477 684.649155722 453.939962477 684.649155722 347.702854217 735.020198432 c 128,-1,15
 241.465745957 785.391241141 241.465745957 785.391241141 167.232872978 867.542300258 c 128,-1,16
 93 949.693359375 93 949.693359375 93 1068.47607422 c 128,-1,17
 93 1187.25878906 93 1187.25878906 189.5 1274 c 0,18,19
 350.812190786 1419 350.812190786 1419 692.875 1419 c 0,20,21
 771.75 1419 771.75 1419 875 1398 c 0,22,23
 1210 1329.86440678 1210 1329.86440678 1210 1140 c 0,24,25
 1210 1041.81835938 1210 1041.81835938 1117 1008 c 0,26,27
 1084 996 1084 996 1039.5 996 c 128,-1,28
 995 996 995 996 965 1002 c 1,29,30
 951.610351562 1185.62304688 951.610351562 1185.62304688 877.198730469 1240.31152344 c 128,-1,31
 802.787109375 1295 802.787109375 1295 656.560058594 1295 c 128,-1,32
 510.333007812 1295 510.333007812 1295 440.666992188 1262 c 128,-1,33
 371 1229 371 1229 339 1193 c 128,-1,34
 307 1157 307 1157 307 1109.5 c 0,35,36
 307 966.997754696 307 966.997754696 698.854070922 830.147915711 c 0,37,38
 864.179821532 772.410089234 864.179821532 772.410089234 960 724.5 c 0,39,40
 1257 576 1257 576 1257 358 c 0,41,42
 1257 176.225585938 1257 176.225585938 1083.3671875 76.1127929688 c 128,-1,43
 909.734375 -24 909.734375 -24 664.924316406 -24 c 128,-1,44
 420.114257812 -24 420.114257812 -24 234.057128906 59.5141601562 c 128,-1,45
 48 143.028320312 48 143.028320312 48 292 c 0,46,47
 48 386 48 386 132 414 c 0,48,49
 156 422 156 422 181 422 c 0,50,51
 247 422 247 422 285.5 375 c 128,-1,52
 324 328 324 328 324 245 c 0,0,1
EndSplineSet
EndChar

StartChar: T
Encoding: 54 84 53
Width: 1195
Flags: W
LayerCount: 2
Fore
SplineSet
22 1056 m 0,0,1
 -56 1056 -56 1056 -56 1148 c 0,2,3
 -56 1292.62011719 -56 1292.62011719 10 1370.5 c 0,4,5
 35 1400 35 1400 97.2998046875 1403.5 c 128,-1,6
 159.599609375 1407 159.599609375 1407 473.25 1407 c 2,7,-1
 726.75 1407 l 2,8,9
 1039.99804688 1407 1039.99804688 1407 1102.99902344 1403.5 c 128,-1,10
 1166 1400 1166 1400 1191 1370.5 c 128,-1,11
 1216 1341 1216 1341 1236.5 1284.44824219 c 128,-1,12
 1257 1227.89648438 1257 1227.89648438 1257 1141.94824219 c 128,-1,13
 1257 1056 1257 1056 1179 1056 c 0,14,15
 1127.86230469 1056 1127.86230469 1056 1091.5 1167 c 0,16,17
 1069.49316406 1234.17871094 1069.49316406 1234.17871094 1048.24609375 1256.08984375 c 128,-1,18
 1027 1278 1027 1278 1002 1278 c 2,19,-1
 709 1279 l 1,20,-1
 709 172 l 2,21,22
 709 139.400390625 709 139.400390625 794.5 128 c 128,-1,23
 880 116.599609375 880 116.599609375 880 90 c 0,24,25
 880 28.6669921875 880 28.6669921875 805 12 c 0,26,27
 755.5 1 755.5 1 601.5 1 c 128,-1,28
 447.5 1 447.5 1 398 12 c 0,29,30
 324 28.4443359375 324 28.4443359375 324 90 c 0,31,32
 324 112.594726562 324 112.594726562 355 119.296875 c 128,-1,33
 386 126 386 126 408 129 c 0,34,35
 492 140.454101562 492 140.454101562 492 172 c 2,36,-1
 492 1279 l 1,37,-1
 199 1278 l 2,38,39
 143.448242188 1278 143.448242188 1278 109 1167 c 128,-1,40
 74.5517578125 1056 74.5517578125 1056 22 1056 c 0,0,1
EndSplineSet
EndChar

StartChar: U
Encoding: 55 85 54
Width: 1742
Flags: W
LayerCount: 2
Fore
SplineSet
1568 441 m 2,0,1
 1568 296.578125 1568 296.578125 1458 185.5 c 0,2,3
 1309.72460938 35.7705078125 1309.72460938 35.7705078125 1037 -8 c 0,4,5
 956 -21 956 -21 877.5 -21 c 0,6,7
 706.346679688 -21 706.346679688 -21 537.504882812 30.0693359375 c 128,-1,8
 368.663085938 81.138671875 368.663085938 81.138671875 258.83203125 186.903320312 c 128,-1,9
 149 292.666992188 149 292.666992188 149 448 c 2,10,-1
 149 1234 l 2,11,12
 149 1253.47363281 149 1253.47363281 117 1262.73730469 c 128,-1,13
 85 1272 85 1272 62.5 1276.5 c 128,-1,14
 40 1281 40 1281 8 1289.42089844 c 128,-1,15
 -24 1297.84179688 -24 1297.84179688 -24 1315 c 0,16,17
 -24 1376.45214844 -24 1376.45214844 51.5 1393 c 0,18,19
 101.6875 1404 101.6875 1404 256.59375 1404 c 128,-1,20
 411.5 1404 411.5 1404 461 1393 c 0,21,22
 536 1376.33300781 536 1376.33300781 536 1315 c 0,23,24
 536 1296.75683594 536 1296.75683594 505 1288.37792969 c 128,-1,25
 474 1280 474 1280 452 1275.5 c 128,-1,26
 430 1271 430 1271 399 1261.78320312 c 128,-1,27
 368 1252.56738281 368 1252.56738281 368 1234 c 2,28,-1
 368 449 l 2,29,30
 368 243.579101562 368 243.579101562 639 158 c 0,31,32
 749.833007812 123 749.833007812 123 860.916992188 123 c 0,33,34
 1078.5 123 1078.5 123 1222.25 213.237304688 c 128,-1,35
 1366 303.474609375 1366 303.474609375 1366 462 c 2,36,-1
 1366 1234 l 2,37,38
 1366 1253.56738281 1366 1253.56738281 1335 1262.78417969 c 128,-1,39
 1304 1272 1304 1272 1282.5 1276.5 c 128,-1,40
 1261 1281 1261 1281 1230 1289.37890625 c 128,-1,41
 1199 1297.75683594 1199 1297.75683594 1199 1315 c 0,42,43
 1199 1376.31445312 1199 1376.31445312 1272 1393 c 0,44,45
 1320.125 1404 1320.125 1404 1467.5 1404 c 128,-1,46
 1614.875 1404 1614.875 1404 1663 1393 c 0,47,48
 1736 1376.31445312 1736 1376.31445312 1736 1315 c 0,49,50
 1736 1296.75683594 1736 1296.75683594 1705 1288.37792969 c 128,-1,51
 1674 1280 1674 1280 1652 1275.5 c 128,-1,52
 1630 1271 1630 1271 1599 1261.78320312 c 128,-1,53
 1568 1252.56738281 1568 1252.56738281 1568 1234 c 2,54,-1
 1568 441 l 2,0,1
EndSplineSet
EndChar

StartChar: V
Encoding: 56 86 55
Width: 1614
Flags: W
LayerCount: 2
Fore
SplineSet
1160 923 m 2,0,1
 1193 1002 1193 1002 1241.61914062 1114.47753906 c 128,-1,2
 1290.23925781 1226.95605469 1290.23925781 1226.95605469 1292.61914062 1240.97753906 c 128,-1,3
 1295 1255 1295 1255 1277.41015625 1262.73925781 c 128,-1,4
 1259.8203125 1270.47949219 1259.8203125 1270.47949219 1194.41015625 1279.3984375 c 128,-1,5
 1129 1288.31835938 1129 1288.31835938 1129 1314 c 0,6,7
 1129 1397.375 1129 1397.375 1293 1402.5 c 0,8,9
 1341 1404 1341 1404 1394 1404 c 2,10,-1
 1438 1404 l 2,11,12
 1564.66699219 1404 1564.66699219 1404 1600.83300781 1397 c 0,13,14
 1672 1383.22558594 1672 1383.22558594 1672 1343 c 0,15,16
 1672 1294.16699219 1672 1294.16699219 1580.71582031 1278.953125 c 128,-1,17
 1489.43164062 1263.73828125 1489.43164062 1263.73828125 1460 1228 c 1,18,-1
 977 133 l 1,19,20
 903.59765625 -18 903.59765625 -18 803 -18 c 0,21,22
 717.713867188 -18 717.713867188 -18 625 159 c 1,23,-1
 143 1228 l 1,24,25
 117.599609375 1257.30761719 117.599609375 1257.30761719 15.7998046875 1276.88476562 c 128,-1,26
 -86 1296.46191406 -86 1296.46191406 -86 1343 c 0,27,28
 -86 1399.7734375 -86 1399.7734375 70.5 1403 c 0,29,30
 119 1404 119 1404 178 1404 c 2,31,-1
 206 1404 l 2,32,33
 340.315429688 1404 340.315429688 1404 389.658203125 1391.5 c 128,-1,34
 439 1379 439 1379 463 1361.5 c 128,-1,35
 487 1344 487 1344 492 1314 c 1,36,37
 490 1299 490 1299 472.5 1290.5 c 128,-1,38
 455 1282 455 1282 439 1282 c 1,39,-1
 405 1273 l 1,40,41
 399 1270 399 1270 378 1264.75 c 128,-1,42
 357 1259.5 357 1259.5 357 1242 c 1,43,-1
 841 163 l 1,44,45
 867.737304688 232.274414062 867.737304688 232.274414062 959.869140625 449.13671875 c 128,-1,46
 1052 666 1052 666 1080 733 c 2,47,-1
 1160 923 l 2,0,1
EndSplineSet
EndChar

StartChar: W
Encoding: 57 87 56
Width: 2510
Flags: W
LayerCount: 2
Fore
SplineSet
2189 1235 m 1,0,1
 2189 1246 l 2,2,3
 2189 1261.6875 2189 1261.6875 2134 1272 c 1,4,-1
 2086 1283 l 1,5,6
 2053 1283 2053 1283 2040 1296 c 128,-1,7
 2027 1309 2027 1309 2027 1314 c 0,8,9
 2027 1397.5 2027 1397.5 2187 1402.5 c 0,10,11
 2235 1404 2235 1404 2290 1404 c 2,12,-1
 2330 1404 l 2,13,14
 2460.5 1404 2460.5 1404 2497.25 1397 c 0,15,16
 2568 1383.5234375 2568 1383.5234375 2568 1343 c 0,17,18
 2568 1315 2568 1315 2545 1299.5 c 128,-1,19
 2522 1284 2522 1284 2492 1284 c 1,20,21
 2377.82324219 1258.62792969 2377.82324219 1258.62792969 2355 1232 c 1,22,-1
 1913 132 l 1,23,24
 1841 -18 1841 -18 1740.5 -18 c 0,25,26
 1693 -18 1693 -18 1650.57128906 24.4287109375 c 128,-1,27
 1608.14257812 66.857421875 1608.14257812 66.857421875 1561 159 c 1,28,-1
 1247 918 l 1,29,-1
 931 132 l 1,30,31
 866.134765625 -18 866.134765625 -18 762 -18 c 0,32,33
 708.5 -18 708.5 -18 669.513671875 21.8935546875 c 128,-1,34
 630.526367188 61.787109375 630.526367188 61.787109375 583 159 c 1,35,-1
 136 1229 l 1,36,37
 116.568359375 1253.2890625 116.568359375 1253.2890625 74.2841796875 1263.64453125 c 128,-1,38
 32 1274 32 1274 6.5 1279.5 c 0,39,40
 -86 1299.45117188 -86 1299.45117188 -86 1343 c 0,41,42
 -86 1399.79199219 -86 1399.79199219 68 1403 c 0,43,44
 116 1404 116 1404 173 1404 c 2,45,-1
 205 1404 l 2,46,47
 339.315429688 1404 339.315429688 1404 388.658203125 1391.5 c 128,-1,48
 438 1379 438 1379 462 1361.5 c 128,-1,49
 486 1344 486 1344 491 1314 c 1,50,51
 487.711914062 1294.26953125 487.711914062 1294.26953125 428 1281 c 1,52,53
 414 1276 414 1276 401.5 1272.5 c 128,-1,54
 389 1269 389 1269 372.5 1262.71484375 c 128,-1,55
 356 1256.42871094 356 1256.42871094 356 1242 c 1,56,-1
 798 162 l 1,57,-1
 1165 1118 l 1,58,-1
 1120 1227 l 1,59,60
 1103.41210938 1249.80859375 1103.41210938 1249.80859375 1062.20605469 1260.40429688 c 128,-1,61
 1021 1271 1021 1271 1003 1277 c 1,62,-1
 975 1284 l 1,63,64
 909.620117188 1295.37011719 909.620117188 1295.37011719 902 1319.5 c 0,65,66
 899 1329 899 1329 899 1347.5 c 0,67,68
 899 1385.17675781 899 1385.17675781 957.181640625 1394.58789062 c 128,-1,69
 1015.36328125 1404 1015.36328125 1404 1158 1404 c 2,70,-1
 1189 1404 l 1,71,-1
 1239 1403 l 1,72,-1
 1306 1404 l 1,73,-1
 1350 1404 l 2,74,75
 1478.66699219 1404 1478.66699219 1404 1514.83300781 1397 c 0,76,77
 1585 1383.41894531 1585 1383.41894531 1585 1343 c 0,78,79
 1585 1315 1585 1315 1561 1299.5 c 128,-1,80
 1537 1284 1537 1284 1506 1284 c 1,81,82
 1398 1257 1398 1257 1374 1233 c 1,83,-1
 1356 1189 l 1,84,-1
 1777 162 l 1,85,-1
 2189 1235 l 1,0,1
EndSplineSet
EndChar

StartChar: X
Encoding: 58 88 57
Width: 1871
Flags: W
LayerCount: 2
Fore
SplineSet
1471 -3 m 1,0,-1
 1251 -1 l 1,1,-1
 1234 -1 l 2,2,3
 1151.36621094 -1 1151.36621094 -1 1142 95 c 1,4,-1
 1188 108 l 1,5,6
 1261.75 126.4375 1261.75 126.4375 1277.375 139.71875 c 128,-1,7
 1293 153 1293 153 1293 165.5 c 0,8,9
 1293 191.296875 1293 191.296875 1179.51464844 335.454101562 c 128,-1,10
 1066.02929688 479.611328125 1066.02929688 479.611328125 921 635 c 1,11,-1
 905 620 l 1,12,13
 525 221.904296875 525 221.904296875 525 168 c 0,14,15
 525 134.078125 525 134.078125 638.5 118.5 c 0,16,17
 664 115 664 115 676 111 c 1,18,-1
 666 46 l 1,19,20
 614.25 0 614.25 0 453 0 c 2,21,-1
 192.875 0 l 2,22,23
 94 0 94 0 50.634765625 5.203125 c 128,-1,24
 7.26953125 10.4072265625 7.26953125 10.4072265625 2 35 c 1,25,26
 34.4541015625 99.9091796875 34.4541015625 99.9091796875 51 120 c 1,27,28
 305.424804688 139.274414062 305.424804688 139.274414062 594.293945312 451.967773438 c 0,29,30
 671 535 671 535 717 585 c 2,31,-1
 767 640 l 2,32,33
 807 684 807 684 847 724 c 1,34,-1
 777 807 l 1,35,36
 607.5234375 1006.06738281 607.5234375 1006.06738281 504.26171875 1092.53417969 c 0,37,38
 295.329101562 1267.48339844 295.329101562 1267.48339844 123 1298 c 1,39,-1
 116 1306 l 1,40,41
 80 1330 80 1330 80 1377 c 0,42,43
 80 1401 80 1401 150 1401 c 257,44,-1
 187 1400 l 1,45,-1
 299 1400 l 1,46,-1
 454.5 1401 l 1,47,-1
 592 1402 l 1,48,-1
 689 1402 l 2,49,50
 805 1402 805 1402 805 1330 c 0,51,52
 805 1312 805 1312 781.5 1303 c 128,-1,53
 758 1294 758 1294 729.5 1287 c 0,54,55
 654 1268.45605469 654 1268.45605469 654 1244 c 0,56,57
 654 1194.05761719 654 1194.05761719 860.499023438 963.6171875 c 0,58,59
 939.125 875.875 939.125 875.875 965 850 c 1,60,-1
 1007 892 l 2,61,62
 1303 1188 1303 1188 1303 1236 c 256,63,64
 1303 1257.62792969 1303 1257.62792969 1266 1268.81347656 c 128,-1,65
 1229 1280 1229 1280 1206.5 1285 c 128,-1,66
 1184 1290 1184 1290 1171 1295 c 1,67,68
 1178.13964844 1369.97070312 1178.13964844 1369.97070312 1231 1389 c 0,69,70
 1261.55566406 1400 1261.55566406 1400 1361 1400 c 2,71,-1
 1710 1400 l 2,72,73
 1807 1400 1807 1400 1807 1369 c 0,74,75
 1807 1329.28613281 1807 1329.28613281 1773 1288 c 1,76,77
 1549.9609375 1261.75976562 1549.9609375 1261.75976562 1363 1096.5 c 0,78,79
 1265.69824219 1010.4921875 1265.69824219 1010.4921875 1181.84960938 915.24609375 c 128,-1,80
 1098 820 1098 820 1044 763 c 1,81,82
 1151.7109375 610.409179688 1151.7109375 610.409179688 1344 408 c 1,83,-1
 1365 384 l 1,84,-1
 1365 385 l 1,85,-1
 1416 330 l 1,86,87
 1514.21875 226.990234375 1514.21875 226.990234375 1574.109375 188.995117188 c 0,88,89
 1687.44921875 117.091796875 1687.44921875 117.091796875 1802 108 c 1,90,91
 1841.92871094 74.060546875 1841.92871094 74.060546875 1869 22 c 1,92,93
 1825.25 -3 1825.25 -3 1471 -3 c 1,0,-1
52 121 m 1,94,-1
 49 120 l 1,95,-1
 53 125 l 1,96,-1
 52 121 l 1,94,-1
EndSplineSet
EndChar

StartChar: Y
Encoding: 59 89 58
Width: 1437
Flags: W
LayerCount: 2
Fore
SplineSet
788 -1 m 1,0,-1
 717 1 l 1,1,-1
 649 1 l 1,2,-1
 623 0 l 1,3,4
 425 0 425 0 425 90 c 0,5,6
 425 110.23046875 425 110.23046875 457 117.615234375 c 128,-1,7
 489 125 489 125 511 128 c 0,8,9
 597 139.727539062 597 139.727539062 597 172 c 2,10,-1
 597 558 l 1,11,-1
 461 740 l 2,12,13
 374 857 374 857 283.5 980 c 128,-1,14
 193 1103 193 1103 102 1218 c 0,15,16
 78.7138671875 1247.10839844 78.7138671875 1247.10839844 -0.642578125 1256.78613281 c 128,-1,17
 -80 1266.46386719 -80 1266.46386719 -80 1312 c 0,18,19
 -80 1404 -80 1404 168 1404 c 2,20,-1
 235 1404 l 2,21,22
 495 1404 495 1404 495 1288 c 0,23,24
 495 1266.16210938 495 1266.16210938 419.5 1258 c 0,25,26
 401 1256 401 1256 386 1254 c 2,27,-1
 348 1249 l 1,28,-1
 347 1240 l 1,29,30
 368.002929688 1232.12402344 368.002929688 1232.12402344 468.500976562 1093.06152344 c 128,-1,31
 569 954 569 954 610 898 c 2,32,-1
 745 713 l 1,33,-1
 934 958 l 2,34,35
 972 1008 972 1008 1014.5 1062 c 128,-1,36
 1057 1116 1057 1116 1078.078125 1145.30273438 c 128,-1,37
 1099.15527344 1174.60546875 1099.15527344 1174.60546875 1117 1195 c 1,38,-1
 1117 1194 l 1,39,40
 1144.30566406 1225.85742188 1144.30566406 1225.85742188 1158 1252 c 1,41,42
 1084.07714844 1252 1084.07714844 1252 1047.53808594 1264.5 c 128,-1,43
 1011 1277 1011 1277 1011 1288 c 0,44,45
 1011 1371.91113281 1011 1371.91113281 1164 1396.5 c 0,46,47
 1210.66699219 1404 1210.66699219 1404 1257.90527344 1404 c 128,-1,48
 1305.14257812 1404 1305.14257812 1404 1346 1398.5 c 0,49,50
 1496 1378.30761719 1496 1378.30761719 1496 1319 c 0,51,52
 1496 1273.3515625 1496 1273.3515625 1397.703125 1247.17578125 c 0,53,54
 1340.37695312 1231.91113281 1340.37695312 1231.91113281 1324 1220 c 1,55,-1
 814 558 l 1,56,-1
 814 172 l 2,57,58
 814 140.454101562 814 140.454101562 898 129 c 128,-1,59
 982 117.545898438 982 117.545898438 982 90 c 0,60,61
 982 -1 982 -1 788 -1 c 1,0,-1
EndSplineSet
EndChar

StartChar: Z
Encoding: 60 90 59
Width: 1461
Flags: W
LayerCount: 2
Fore
SplineSet
862 1404 m 1,0,-1
 1156.58007812 1406.89160156 l 2,1,2
 1254.47265625 1406.89160156 1254.47265625 1406.89160156 1342 1390 c 1,3,-1
 1341 1391 l 1,4,5
 1365 1376.23046875 1365 1376.23046875 1365 1350.61523438 c 128,-1,6
 1365 1325 1365 1325 1340.5 1286.5 c 0,7,8
 1229.43261719 1111.96582031 1229.43261719 1111.96582031 845.899414062 670.48828125 c 128,-1,9
 462.366210938 229.010742188 462.366210938 229.010742188 364 141 c 1,10,11
 421.142578125 121 421.142578125 121 567 121 c 2,12,-1
 727 121 l 2,13,14
 987 121 987 121 1143 130 c 1,15,16
 1193.31542969 180.315429688 1193.31542969 180.315429688 1226.15820312 237.158203125 c 128,-1,17
 1259 294 1259 294 1285.76464844 339.5 c 128,-1,18
 1312.52929688 385 1312.52929688 385 1327 385 c 0,19,20
 1366 385 1366 385 1386 358.5 c 128,-1,21
 1406 332 1406 332 1406 291.15234375 c 128,-1,22
 1406 250.3046875 1406 250.3046875 1380.63378906 177.513671875 c 128,-1,23
 1355.26660156 104.721679688 1355.26660156 104.721679688 1313.17285156 52.361328125 c 128,-1,24
 1271.078125 0 1271.078125 0 1223 0 c 2,25,-1
 146 -2 l 2,26,27
 70 -2 70 -2 70 49.5 c 0,28,29
 70 160.555664062 70 160.555664062 880.311523438 1060.90136719 c 0,30,31
 1037 1235 1037 1235 1066 1269 c 1,32,33
 964 1286 964 1286 811 1286 c 1,34,-1
 785 1285 l 1,35,-1
 356 1283 l 1,36,-1
 284 1239 l 1,37,38
 275.666992188 1172.33300781 275.666992188 1172.33300781 247.333007812 1115.66699219 c 128,-1,39
 219 1059 219 1059 194 1031.5 c 128,-1,40
 169 1004 169 1004 134.5 1004 c 128,-1,41
 100 1004 100 1004 81.5 1032 c 128,-1,42
 63 1060 63 1060 63 1096 c 0,43,44
 63 1291.83691406 63 1291.83691406 152 1356 c 0,45,46
 195 1387 195 1387 256 1395 c 128,-1,47
 317 1403 317 1403 394 1403 c 2,48,-1
 489 1403 l 1,49,-1
 524 1402 l 1,50,-1
 862 1404 l 1,0,-1
EndSplineSet
EndChar

StartChar: bracketleft
Encoding: 61 91 60
Width: 534
Flags: W
LayerCount: 2
Fore
SplineSet
208 -136.5 m 128,-1,1
 187 -130 187 -130 173 -113.454589844 c 128,-1,2
 159 -96.9091796875 159 -96.9091796875 159 -37 c 2,3,-1
 159 1661 l 2,4,5
 159 1716.09082031 159 1716.09082031 173 1734.54589844 c 0,6,7
 199.896484375 1770 199.896484375 1770 262.948242188 1770 c 0,8,9
 410.4375 1770 410.4375 1770 456.5 1759 c 0,10,11
 526 1742.40332031 526 1742.40332031 526 1681 c 0,12,13
 526 1655.79980469 526 1655.79980469 450 1642.5 c 128,-1,14
 374 1629.20019531 374 1629.20019531 374 1617 c 2,15,-1
 374 11 l 2,16,17
 374 -3.818359375 374 -3.818359375 402 -8.9091796875 c 128,-1,18
 430 -14 430 -14 450 -16.5 c 0,19,20
 526 -26 526 -26 526 -54 c 0,21,22
 526 -115.529296875 526 -115.529296875 456 -132 c 0,23,24
 409.25 -143 409.25 -143 319.125 -143 c 128,-1,0
 229 -143 229 -143 208 -136.5 c 128,-1,1
EndSplineSet
EndChar

StartChar: backslash
Encoding: 62 92 61
Width: 639
Flags: W
LayerCount: 2
Fore
SplineSet
667 -83 m 0,0,1
 667 -145.142578125 667 -145.142578125 553 -165.5 c 0,2,3
 539 -168 539 -168 516.5 -168 c 0,4,5
 478.579101562 -168 478.579101562 -168 453 -87 c 2,6,-1
 -49 1535 l 1,7,8
 -59 1563 -59 1563 -59 1589 c 0,9,10
 -59 1645.95605469 -59 1645.95605469 20 1670 c 0,11,12
 50 1679 50 1679 79.5 1679 c 0,13,14
 128.228515625 1679 128.228515625 1679 154 1597 c 2,15,-1
 655 -25 l 2,16,17
 667 -65.7998046875 667 -65.7998046875 667 -83 c 0,0,1
EndSplineSet
EndChar

StartChar: bracketright
Encoding: 63 93 62
Width: 536
Flags: W
LayerCount: 2
Fore
SplineSet
80 -132 m 0,0,1
 10 -115.529296875 10 -115.529296875 10 -54 c 0,2,3
 10 -26 10 -26 86 -16.5 c 128,-1,4
 162 -7 162 -7 162 11 c 2,5,-1
 162 1617 l 2,6,7
 162 1629.20019531 162 1629.20019531 114 1637.59960938 c 128,-1,8
 66 1646 66 1646 38 1654.484375 c 128,-1,9
 10 1662.96972656 10 1662.96972656 10 1681 c 0,10,11
 10 1742.40332031 10 1742.40332031 79.5 1759 c 0,12,13
 125.5625 1770 125.5625 1770 216.28125 1770 c 128,-1,14
 307 1770 307 1770 328 1761.5 c 128,-1,15
 349 1753 349 1753 363 1734.54492188 c 128,-1,16
 377 1716.09082031 377 1716.09082031 377 1661 c 2,17,-1
 377 -37 l 2,18,19
 377 -96.9091796875 377 -96.9091796875 363 -113.454101562 c 0,20,21
 338 -143 338 -143 232.375 -143 c 128,-1,22
 126.75 -143 126.75 -143 80 -132 c 0,0,1
EndSplineSet
EndChar

StartChar: asciicircum
Encoding: 64 94 63
Width: 963
Flags: W
LayerCount: 2
Fore
SplineSet
61 667.280273438 m 128,-1,1
 61 717.560546875 61 717.560546875 112.5 814.280273438 c 128,-1,2
 164 911 164 911 179 942 c 1,3,-1
 208 992 l 1,4,5
 220 1016 220 1016 223 1024 c 2,6,-1
 240 1060 l 1,7,8
 361.30859375 1309 361.30859375 1309 497.870117188 1309 c 128,-1,9
 634.431640625 1309 634.431640625 1309 748 1046 c 1,10,-1
 796 944 l 2,11,12
 811 912 811 912 859.5 812.512695312 c 128,-1,13
 908 713.025390625 908 713.025390625 908 679 c 1,14,-1
 903 676 l 1,15,-1
 897 681 l 1,16,17
 885.965820312 617 885.965820312 617 809.36328125 617 c 128,-1,18
 732.76171875 617 732.76171875 617 578 877 c 1,19,-1
 563 902 l 2,20,21
 543 934 543 934 525.5 962.5 c 128,-1,22
 508 991 508 991 491 1009 c 1,23,-1
 491 1010 l 1,24,-1
 477 987 l 1,25,26
 257.739257812 617 257.739257812 617 123.922851562 617 c 0,27,0
 61 617 61 617 61 667.280273438 c 128,-1,1
EndSplineSet
EndChar

StartChar: underscore
Encoding: 65 95 64
Width: 1090
Flags: W
LayerCount: 2
Fore
SplineSet
890 -5 m 2,0,1
 1006 -5 1006 -5 1006 -127.5 c 128,-1,2
 1006 -250 1006 -250 870 -250 c 2,3,-1
 198 -250 l 2,4,5
 79 -250 79 -250 79 -127.5 c 128,-1,6
 79 -5 79 -5 226 -5 c 2,7,-1
 890 -5 l 2,0,1
EndSplineSet
EndChar

StartChar: grave
Encoding: 66 96 65
Width: 528
Flags: W
LayerCount: 2
Fore
SplineSet
31 1603 m 0,0,1
 31 1704 31 1704 139.015625 1704 c 128,-1,2
 247.03125 1704 247.03125 1704 268.515625 1641.5 c 0,3,4
 408.622022709 1233.91775212 408.622022709 1233.91775212 417 1125 c 1,5,-1
 417 1120 l 1,6,-1
 403 1106 l 1,7,8
 358.14453125 1124.68945312 358.14453125 1124.68945312 194.572265625 1334.26623444 c 128,-1,9
 31 1543.84301576 31 1543.84301576 31 1603 c 0,0,1
EndSplineSet
EndChar

StartChar: a
Encoding: 67 97 66
Width: 1135
Flags: W
LayerCount: 2
Fore
SplineSet
527.331484314 879.506901821 m 0,0,1
 312 879.506901821 312 879.506901821 312 661 c 1,2,-1
 313 639 l 1,3,4
 275.5 634 275.5 634 252.75 634 c 0,5,6
 103 634 103 634 103 737.166992188 c 0,7,8
 103 886.195652174 103 886.195652174 347 952.5 c 0,9,10
 433.48046875 976 433.48046875 976 576.66158269 976 c 0,11,12
 909 976 909 976 909 591 c 2,13,-1
 909 503.5 l 1,14,-1
 908 384.5 l 1,15,-1
 908 296 l 2,16,17
 908 192 908 192 929.353027344 169.751464844 c 128,-1,18
 950.706054688 147.502929688 950.706054688 147.502929688 1015.85302734 128.501604657 c 128,-1,19
 1081 109.500279625 1081 109.500279625 1081 95 c 0,20,21
 1081 -10 1081 -10 935.420898438 -10 c 128,-1,22
 789.841796875 -10 789.841796875 -10 763 24 c 128,-1,23
 736.016601562 58.1787109375 736.016601562 58.1787109375 734 157 c 1,24,25
 678.053710938 55.5966796875 678.053710938 55.5966796875 548.405273438 4.52294921875 c 0,26,27
 470.48450421 -26.1731736362 470.48450421 -26.1731736362 403.16319362 -26.1731736362 c 128,-1,28
 335.84188303 -26.1731736362 335.84188303 -26.1731736362 280.798828125 -12.6455078125 c 0,29,30
 142.840820312 21.259765625 142.840820312 21.259765625 100.420410156 95.1298828125 c 128,-1,31
 58 169 58 169 58 237.5 c 0,32,33
 58 489.178155081 58 489.178155081 462.052391679 537.184451886 c 0,34,35
 680.952148438 563.192382812 680.952148438 563.192382812 717 582 c 1,36,37
 717 879.506901821 717 879.506901821 527.331484314 879.506901821 c 0,0,1
471 80 m 0,38,39
 717 80 717 80 717 492 c 1,40,41
 666.563476562 473.842773438 666.563476562 473.842773438 526.625236589 452.639976551 c 128,-1,42
 386.686996616 431.437179665 386.686996616 431.437179665 328.843498308 394.62776952 c 128,-1,43
 271 357.818359375 271 357.818359375 271 252 c 0,44,45
 271 80 271 80 471 80 c 0,38,39
EndSplineSet
EndChar

StartChar: b
Encoding: 68 98 67
Width: 1133
Flags: W
LayerCount: 2
Fore
SplineSet
587.981445312 107 m 0,0,1
 882 107 882 107 882 441.491210938 c 0,2,3
 882 608.818359375 882 608.818359375 787.25 729.409179688 c 128,-1,4
 692.5 850 692.5 850 567.592773438 850 c 128,-1,5
 442.686523438 850 442.686523438 850 337 752 c 1,6,-1
 337 201 l 1,7,8
 457 107 457 107 587.981445312 107 c 0,0,1
4 1378 m 0,9,10
 4 1482 4 1482 171 1482 c 128,-1,11
 338 1482 338 1482 338 1407 c 2,12,-1
 338 854 l 1,13,14
 487.280273438 981 487.280273438 981 681.193359375 981 c 128,-1,15
 875.106445312 981 875.106445312 981 986.552734375 844.556640625 c 128,-1,16
 1098 708.112304688 1098 708.112304688 1098 494.552734375 c 128,-1,17
 1098 280.9921875 1098 280.9921875 961.41015625 131.49609375 c 128,-1,18
 824.8203125 -18 824.8203125 -18 643.651367188 -18 c 128,-1,19
 462.482421875 -18 462.482421875 -18 295 95 c 1,20,21
 207.845703125 -8 207.845703125 -8 177.422851562 -8 c 128,-1,22
 147 -8 147 -8 147 83 c 2,23,-1
 147 1247 l 2,24,25
 147 1337.27050781 147 1337.27050781 75.5 1345 c 128,-1,26
 4 1352.72949219 4 1352.72949219 4 1378 c 0,9,10
EndSplineSet
EndChar

StartChar: c
Encoding: 69 99 68
Width: 1046
Flags: W
LayerCount: 2
Fore
SplineSet
514.826171875 977 m 0,0,1
 941 977 941 977 941 744.994140625 c 0,2,3
 941 630 941 630 816.071289062 630 c 0,4,5
 762.142578125 630 762.142578125 630 739 639 c 1,6,7
 725.349609375 873 725.349609375 873 562.858398438 873 c 128,-1,8
 400.3671875 873 400.3671875 873 317.68359375 770.4296875 c 128,-1,9
 235 667.860351562 235 667.860351562 235 513.82421875 c 128,-1,10
 235 359.788085938 235 359.788085938 340.203125 234.39453125 c 128,-1,11
 445.407226562 109 445.407226562 109 583.510742188 109 c 128,-1,12
 721.615234375 109 721.615234375 109 810.307617188 152 c 128,-1,13
 899 195 899 195 933 195 c 128,-1,14
 967 195 967 195 967 165 c 128,-1,15
 967 135 967 135 953 115 c 1,16,17
 814.640625 -27 814.640625 -27 565.458984375 -27 c 128,-1,18
 316.27734375 -27 316.27734375 -27 173.638671875 109.345703125 c 128,-1,19
 31 245.69140625 31 245.69140625 31 465.56640625 c 128,-1,20
 31 685.440429688 31 685.440429688 183.1640625 831.220703125 c 128,-1,21
 335.328125 977 335.328125 977 514.826171875 977 c 0,0,1
EndSplineSet
EndChar

StartChar: d
Encoding: 70 100 69
Width: 1220
Flags: W
LayerCount: 2
Fore
SplineSet
818 751 m 1,0,1
 727.999023438 871 727.999023438 871 592 871 c 0,2,3
 225 871 225 871 225 493 c 0,4,5
 225 336.012695312 225 336.012695312 309.947265625 217.505859375 c 128,-1,6
 394.893554688 99 394.893554688 99 550 99 c 0,7,8
 818 99 818 99 818 356 c 2,9,-1
 818 751 l 1,0,1
675 1378 m 0,10,11
 675 1482 675 1482 842 1482 c 128,-1,12
 1009 1482 1009 1482 1009 1407 c 2,13,-1
 1009 313 l 2,14,15
 1009 154.927734375 1009 154.927734375 1086 127.428710938 c 128,-1,16
 1163 99.9287109375 1163 99.9287109375 1163 74 c 0,17,18
 1163 -7 1163 -7 1056.5 -7 c 128,-1,19
 950 -7 950 -7 919 6.5 c 128,-1,20
 888 20 888 20 871.5 40.5 c 128,-1,21
 855 61 855 61 848.5 83.5 c 128,-1,22
 842 106 842 106 836 124 c 1,23,24
 753.142578125 -21 753.142578125 -21 515.444335938 -21 c 128,-1,25
 277.74609375 -21 277.74609375 -21 151.373046875 120.1171875 c 128,-1,26
 25 261.233398438 25 261.233398438 25 476.083984375 c 128,-1,27
 25 690.93359375 25 690.93359375 166.930664062 834.966796875 c 128,-1,28
 308.861328125 979 308.861328125 979 498.823242188 979 c 128,-1,29
 688.786132812 979 688.786132812 979 818 912 c 1,30,-1
 818 1247 l 2,31,32
 818 1337.27050781 818 1337.27050781 746.5 1345 c 128,-1,33
 675 1352.72949219 675 1352.72949219 675 1378 c 0,10,11
EndSplineSet
EndChar

StartChar: e
Encoding: 71 101 70
Width: 998
Flags: W
LayerCount: 2
Fore
SplineSet
857 216 m 256,0,1
 911 216 911 216 911 188.5 c 128,-1,2
 911 161 911 161 887.967179346 117.698297171 c 128,-1,3
 864.934358693 74.3965943422 864.934358693 74.3965943422 756.14442544 23.6982971711 c 128,-1,4
 647.354492188 -27 647.354492188 -27 481.230276397 -27 c 0,5,6
 315.106060606 -27 315.106060606 -27 173.553030303 112.440298507 c 128,-1,7
 32 251.880597015 32 251.880597015 32 471.099389417 c 128,-1,8
 32 690.318181818 32 690.318181818 171.666503906 833.159090909 c 128,-1,9
 311.333007812 976 311.333007812 976 503.695800781 976 c 128,-1,10
 696.05859375 976 696.05859375 976 814.529296875 867.135253906 c 128,-1,11
 933 758.270507812 933 758.270507812 933 588 c 0,12,13
 933 507 933 507 805 507 c 2,14,-1
 226 507 l 1,15,16
 228.012695312 345.954101562 228.012695312 345.954101562 329.935058594 234.477050781 c 128,-1,17
 431.857421875 123 431.857421875 123 562.83203125 123 c 128,-1,18
 693.806640625 123 693.806640625 123 768.806640625 169.5 c 128,-1,19
 843.806640625 216 843.806640625 216 857 216 c 256,0,1
749 612 m 1,20,21
 681.909865129 807.460653903 681.909865129 807.460653903 494.809859155 871 c 1,22,23
 415.61971831 871 415.61971831 871 328.722945092 792.902832031 c 128,-1,24
 241.826171875 714.805664062 241.826171875 714.805664062 236 608 c 1,25,-1
 470 608 l 2,26,27
 611 608 611 608 749 612 c 1,20,21
EndSplineSet
EndChar

StartChar: f
Encoding: 72 102 71
Width: 789
Flags: W
LayerCount: 2
Fore
SplineSet
526 78 m 0,0,1
 526 0 526 0 302 0 c 128,-1,2
 78 0 78 0 78 60.8181818182 c 128,-1,3
 78 121.636363636 78 121.636363636 142.5 127.5 c 128,-1,4
 207 133.363636364 207 133.363636364 207 191 c 2,5,-1
 207 833 l 1,6,-1
 137 833 l 2,7,8
 76 833 76 833 76 897.5 c 128,-1,9
 76 962 76 962 207 962 c 1,10,-1
 207 1109 l 2,11,12
 207 1459 207 1459 586 1459 c 0,13,14
 831 1459 831 1459 831 1327.5 c 128,-1,15
 831 1196 831 1196 716 1196 c 128,-1,16
 601 1196 601 1196 601 1318 c 2,17,-1
 601 1332 l 1,18,19
 562.142578125 1348 562.142578125 1348 524 1348 c 0,20,21
 353 1348 353 1348 353 1170 c 0,22,23
 353 1050 353 1050 397 962 c 1,24,-1
 542 962 l 2,25,26
 614 962 614 962 614 920 c 0,27,28
 614 836 614 836 545 836 c 2,29,-1
 397 836 l 1,30,-1
 397 191 l 2,31,32
 397 129.909179688 397 129.909179688 461.5 125.999942755 c 128,-1,33
 526 122.090705821 526 122.090705821 526 78 c 0,0,1
EndSplineSet
EndChar

StartChar: g
Encoding: 73 103 72
Width: 1118
Flags: W
LayerCount: 2
Fore
SplineSet
533 -433 m 0,0,1
 35 -433 35 -433 35 -168 c 0,2,3
 35 -25.53515625 35 -25.53515625 178 51 c 1,4,5
 113 113.045898438 113 113.045898438 113 199.522460938 c 128,-1,6
 113 285.999023438 113 285.999023438 228 361 c 1,7,8
 35 475.978515625 35 475.978515625 35 643.25 c 128,-1,9
 35 810.522460938 35 810.522460938 175.422851562 892.260742188 c 128,-1,10
 315.845703125 974 315.845703125 974 494 974 c 1,11,-1
 820.658203125 925 l 1,12,13
 909.293945312 925 909.293945312 925 925 1014 c 1,14,-1
 937 1014 l 2,15,16
 1053 1014 1053 1014 1053 910 c 128,-1,17
 1053 806 1053 806 945 806 c 0,18,19
 921 806 921 806 903.5 807.5 c 128,-1,20
 886 809 886 809 873 810 c 1,21,22
 946 745.111328125 946 745.111328125 946 607.764648438 c 128,-1,23
 946 470.41796875 946 470.41796875 803.8046875 388.708984375 c 128,-1,24
 661.610351562 307 661.610351562 307 567.3046875 307 c 128,-1,25
 473 307 473 307 319 328 c 1,26,-1
 319 329 l 1,27,28
 243 276.5859375 243 276.5859375 243 236.79296875 c 0,29,30
 243 155.266601562 243 155.266601562 508 153.5 c 0,31,32
 1080 149.686523438 1080 149.686523438 1080 -84 c 0,33,34
 1080 -206.200195312 1080 -206.200195312 956.422851562 -319.599609375 c 128,-1,35
 832.845703125 -433 832.845703125 -433 533 -433 c 0,0,1
507 404 m 256,36,37
 623.151367188 404 623.151367188 404 690.076171875 473.015625 c 128,-1,38
 757 542.03125 757 542.03125 757 642.015625 c 128,-1,39
 757 742 757 742 684 815 c 128,-1,40
 611 888 611 888 498.434570312 888 c 128,-1,41
 385.869140625 888 385.869140625 888 312.434570312 824.0078125 c 128,-1,42
 239 760.014648438 239 760.014648438 239 655.728515625 c 128,-1,43
 239 551.442382812 239 551.442382812 313.790039062 477.720703125 c 128,-1,44
 388.580078125 404 388.580078125 404 507 404 c 256,36,37
202 -128 m 0,45,46
 202 -316 202 -316 546.5 -316 c 128,-1,47
 891 -316 891 -316 891 -107 c 0,48,49
 891 16 891 16 413 16 c 1,50,-1
 306 17 l 1,51,-1
 278 18 l 1,52,-1
 278 19 l 1,53,54
 202 -59.451171875 202 -59.451171875 202 -128 c 0,45,46
EndSplineSet
EndChar

StartChar: h
Encoding: 74 104 73
Width: 1289
Flags: W
LayerCount: 2
Fore
SplineSet
517 78 m 0,0,1
 517 0 517 0 293 0 c 128,-1,2
 69 0 69 0 69 60.818359375 c 128,-1,3
 69 121.63671875 69 121.63671875 133.5 127.5 c 128,-1,4
 198 133.36328125 198 133.36328125 198 191 c 2,5,-1
 198 1280 l 2,6,7
 198 1338.40527344 198 1338.40527344 126.5 1350 c 128,-1,8
 55 1361.59472656 55 1361.59472656 55 1395.5 c 0,9,10
 55 1482 55 1482 222 1482 c 128,-1,11
 389 1482 389 1482 389 1407 c 2,12,-1
 389 826 l 1,13,14
 524.8828125 980 524.8828125 980 746 980 c 0,15,16
 1104 980 1104 980 1104 551 c 1,17,-1
 1103 191 l 2,18,19
 1103 129.909179688 1103 129.909179688 1167.5 126 c 128,-1,20
 1232 122.090820312 1232 122.090820312 1232 78 c 0,21,22
 1232 0 1232 0 1008 0 c 128,-1,23
 784 0 784 0 784 60.818359375 c 128,-1,24
 784 121.63671875 784 121.63671875 848.5 127.5 c 128,-1,25
 913 133.36328125 913 133.36328125 913 191 c 2,26,-1
 914 482 l 2,27,28
 914 747.447265625 914 747.447265625 835.5 799.223632812 c 128,-1,29
 757 851 757 851 670 851 c 0,30,31
 388 851 388 851 388 477 c 2,32,-1
 388 191 l 2,33,34
 388 129.909179688 388 129.909179688 452.5 126 c 128,-1,35
 517 122.090820312 517 122.090820312 517 78 c 0,0,1
EndSplineSet
EndChar

StartChar: i
Encoding: 75 105 74
Width: 619
Flags: W
LayerCount: 2
Fore
SplineSet
433 1271.42480469 m 0,0,1
 433 1143 433 1143 292.5 1143 c 128,-1,2
 152 1143 152 1143 152 1255 c 256,3,4
 152 1306.58496094 152 1306.58496094 197.903320312 1341.29248047 c 128,-1,5
 243.806640625 1376 243.806640625 1376 294.435578377 1376 c 128,-1,6
 345.064516129 1376 345.064516129 1376 389.032258065 1341.92480469 c 128,-1,7
 433 1307.84960938 433 1307.84960938 433 1271.42480469 c 0,0,1
547 78 m 0,8,9
 547 0 547 0 323 0 c 128,-1,10
 99 0 99 0 99 60.8181818182 c 128,-1,11
 99 121.636363636 99 121.636363636 163.5 127.5 c 128,-1,12
 228 133.363636364 228 133.363636364 228 191 c 2,13,-1
 228 729 l 2,14,15
 228 819.270507812 228 819.270507812 156.5 827.000159258 c 128,-1,16
 85 834.729810703 85 834.729810703 85 860 c 0,17,18
 85 964 85 964 251.5 964 c 128,-1,19
 418 964 418 964 418 889 c 2,20,-1
 418 191 l 2,21,22
 418 129.909179688 418 129.909179688 482.5 125.999942755 c 128,-1,23
 547 122.090705821 547 122.090705821 547 78 c 0,8,9
EndSplineSet
EndChar

StartChar: j
Encoding: 76 106 75
Width: 498
Flags: W
LayerCount: 2
Fore
SplineSet
365 1273.8046875 m 0,0,1
 365 1144 365 1144 225 1144 c 256,2,3
 84 1144 84 1144 84 1257 c 256,4,5
 84 1309.25 84 1309.25 127.166015625 1341.625 c 128,-1,6
 170.333007812 1374 170.333007812 1374 209.166992188 1374 c 0,7,8
 365 1374 365 1374 365 1273.8046875 c 0,0,1
348 152 m 2,9,10
 348 -270 348 -270 30.5 -270 c 2,11,-1
 23 -270 l 2,12,13
 -75 -270 -75 -270 -75 -196.444335938 c 128,-1,14
 -75 -122.888671875 -75 -122.888671875 14.5 -107.444335938 c 128,-1,15
 104 -92 104 -92 147 -69.5 c 128,-1,16
 190 -47 190 -47 190 -17.5 c 128,-1,17
 190 12 190 12 182.5 43 c 128,-1,18
 175 74 175 74 167 113 c 2,19,-1
 157 162 l 1,20,-1
 157 728 l 2,21,22
 157 818.270507812 157 818.270507812 85.5 826 c 128,-1,23
 14 833.729492188 14 833.729492188 14 859 c 0,24,25
 14 963 14 963 181 963 c 128,-1,26
 348 963 348 963 348 888 c 2,27,-1
 348 152 l 2,9,10
EndSplineSet
EndChar

StartChar: k
Encoding: 77 107 76
Width: 1369
Flags: W
LayerCount: 2
Fore
SplineSet
519 78 m 0,0,1
 519 0 519 0 295 0 c 128,-1,2
 71 0 71 0 71 60.818359375 c 128,-1,3
 71 121.63671875 71 121.63671875 135.5 127.5 c 128,-1,4
 200 133.36328125 200 133.36328125 200 191 c 2,5,-1
 200 1247 l 2,6,7
 200 1337.27050781 200 1337.27050781 128.5 1345 c 128,-1,8
 57 1352.72949219 57 1352.72949219 57 1378 c 0,9,10
 57 1482 57 1482 224 1482 c 128,-1,11
 391 1482 391 1482 391 1407 c 2,12,-1
 391 532 l 1,13,14
 829 860.5 829 860.5 829 868 c 256,15,16
 829 891.615234375 829 891.615234375 753 915 c 1,17,18
 755.84375 1006 755.84375 1006 921 1006 c 2,19,-1
 1057 1006 l 2,20,21
 1309 1006 1309 1006 1309 972.666992188 c 128,-1,22
 1309 939.333007812 1309 939.333007812 1222 891 c 1,23,24
 1081.81347656 891 1081.81347656 891 943.40625 776.5 c 128,-1,25
 805 662 805 662 752 629 c 1,26,-1
 687 580 l 1,27,28
 755.807617188 482.859375 755.807617188 482.859375 859.403320312 385.4296875 c 128,-1,29
 963 288 963 288 1037.16113281 211.913085938 c 128,-1,30
 1111.32128906 135.826171875 1111.32128906 135.826171875 1224.66113281 108.248046875 c 128,-1,31
 1338 80.6708984375 1338 80.6708984375 1338 35.3359375 c 128,-1,32
 1338 -10 1338 -10 1183 -10 c 2,33,-1
 1134.5 -10 l 2,34,35
 987.333007812 -10 987.333007812 -10 940.666992188 34 c 0,36,37
 778.51171875 186.888671875 778.51171875 186.888671875 560 501 c 1,38,-1
 390 386 l 1,39,-1
 390 191 l 2,40,41
 390 129.909179688 390 129.909179688 454.5 126 c 128,-1,42
 519 122.090820312 519 122.090820312 519 78 c 0,0,1
EndSplineSet
EndChar

StartChar: l
Encoding: 78 108 77
Width: 589
Flags: W
LayerCount: 2
Fore
SplineSet
520 78 m 0,0,1
 520 0 520 0 296 0 c 128,-1,2
 72 0 72 0 72 60.9267578125 c 128,-1,3
 72 121.852539062 72 121.852539062 136 127.5 c 128,-1,4
 200 133.147460938 200 133.147460938 200 191 c 2,5,-1
 200 1247 l 2,6,7
 200 1337.27050781 200 1337.27050781 128.5 1345 c 128,-1,8
 57 1352.72949219 57 1352.72949219 57 1378 c 0,9,10
 57 1482 57 1482 224 1482 c 128,-1,11
 391 1482 391 1482 391 1407 c 2,12,-1
 391 191 l 2,13,14
 391 129.909179688 391 129.909179688 455.5 126 c 128,-1,15
 520 122.090820312 520 122.090820312 520 78 c 0,0,1
EndSplineSet
EndChar

StartChar: m
Encoding: 79 109 78
Width: 1951
Flags: W
LayerCount: 2
Fore
SplineSet
521 78 m 0,0,1
 521 0 521 0 297 0 c 128,-1,2
 73 0 73 0 73 60.8181818182 c 128,-1,3
 73 121.636363636 73 121.636363636 137.5 127.5 c 128,-1,4
 202 133.363636364 202 133.363636364 202 191 c 2,5,-1
 202 762 l 2,6,7
 202 821.703125 202 821.703125 130.5 827.50040624 c 128,-1,8
 59 833.297687481 59 833.297687481 59 869 c 0,9,10
 59 964 59 964 198.8125 964 c 128,-1,11
 338.625 964 338.625 964 360.8125 935.600097656 c 128,-1,12
 383 907.200195312 383 907.200195312 383 825 c 1,13,14
 520.788690581 979 520.788690581 979 725.322916719 979 c 128,-1,15
 929.857142857 979 929.857142857 979 1037 814 c 1,16,17
 1207.36816406 980 1207.36816406 980 1423.20947265 980 c 128,-1,18
 1639.05078125 980 1639.05078125 980 1698.52539062 843.069452759 c 128,-1,19
 1758 706.138905519 1758 706.138905519 1758 471 c 2,20,-1
 1758 191 l 2,21,22
 1758 129.909179688 1758 129.909179688 1822.5 125.999942755 c 128,-1,23
 1887 122.090705821 1887 122.090705821 1887 78 c 0,24,25
 1887 0 1887 0 1663 0 c 128,-1,26
 1439 0 1439 0 1439 60.8181818182 c 128,-1,27
 1439 121.636363636 1439 121.636363636 1503.5 127.5 c 128,-1,28
 1568 133.363636364 1568 133.363636364 1568 191 c 2,29,-1
 1568 499 l 2,30,31
 1568 851 1568 851 1368.5 851 c 0,32,33
 1243.65454545 851 1243.65454545 851 1159.82727273 792.639160156 c 128,-1,34
 1076 734.278320312 1076 734.278320312 1076 638 c 2,35,-1
 1076 191 l 2,36,37
 1076 129.909179688 1076 129.909179688 1140.5 125.999942755 c 128,-1,38
 1205 122.090705821 1205 122.090705821 1205 78 c 0,39,40
 1205 0 1205 0 981 0 c 128,-1,41
 757 0 757 0 757 60.8181818182 c 128,-1,42
 757 121.636363636 757 121.636363636 821.5 127.5 c 128,-1,43
 886 133.363636364 886 133.363636364 886 191 c 2,44,-1
 886 489 l 2,45,46
 886 851 886 851 689.12109375 851 c 0,47,48
 402.034999249 851 402.034999249 851 392 570 c 1,49,-1
 392 191 l 2,50,51
 392 129.909179688 392 129.909179688 456.5 125.999942755 c 128,-1,52
 521 122.090705821 521 122.090705821 521 78 c 0,0,1
EndSplineSet
EndChar

StartChar: n
Encoding: 80 110 79
Width: 1310
Flags: W
LayerCount: 2
Fore
SplineSet
520 78 m 0,0,1
 520 0 520 0 296 0 c 128,-1,2
 72 0 72 0 72 60.8181818182 c 128,-1,3
 72 121.636363636 72 121.636363636 136.5 127.5 c 128,-1,4
 201 133.363636364 201 133.363636364 201 191 c 2,5,-1
 201 762 l 2,6,7
 201 820.405273438 201 820.405273438 129.5 832.000192203 c 128,-1,8
 58 843.595110968 58 843.595110968 58 877.5 c 0,9,10
 58 964 58 964 197.8125 964 c 128,-1,11
 337.625 964 337.625 964 359.8125 935.600097656 c 128,-1,12
 382 907.200195312 382 907.200195312 382 825 c 1,13,14
 518.9765625 980 518.9765625 980 759 980 c 0,15,16
 1117 980 1117 980 1117 551 c 2,17,-1
 1117 191 l 2,18,19
 1117 129.909179688 1117 129.909179688 1181.5 125.999942755 c 128,-1,20
 1246 122.090705821 1246 122.090705821 1246 78 c 0,21,22
 1246 0 1246 0 1020.5 0 c 128,-1,23
 795 0 795 0 795 60.8181818182 c 128,-1,24
 795 121.636363636 795 121.636363636 859.5 127.5 c 128,-1,25
 924 133.363636364 924 133.363636364 924 191 c 2,26,-1
 924 482 l 2,27,28
 924 723 924 723 857.439941406 787 c 128,-1,29
 790.879882812 851 790.879882812 851 646.613018329 851 c 0,30,31
 391 851 391 851 391 477 c 2,32,-1
 391 191 l 2,33,34
 391 129.909179688 391 129.909179688 455.5 125.999942755 c 128,-1,35
 520 122.090705821 520 122.090705821 520 78 c 0,0,1
EndSplineSet
EndChar

StartChar: o
Encoding: 81 111 80
Width: 1125
Flags: W
LayerCount: 2
Fore
SplineSet
328 13.5 m 128,-1,1
 236 52 236 52 134 157.090820312 c 128,-1,2
 32 262.181640625 32 262.181640625 32 482.721679688 c 128,-1,3
 32 703.26171875 32 703.26171875 189.578125 838.630859375 c 128,-1,4
 347.15625 974 347.15625 974 573.904296875 974 c 128,-1,5
 800.651367188 974 800.651367188 974 943.326171875 837.666015625 c 128,-1,6
 1086 701.333007812 1086 701.333007812 1086 477.505859375 c 128,-1,7
 1086 253.6796875 1086 253.6796875 927.659179688 114.33984375 c 128,-1,8
 769.318359375 -25 769.318359375 -25 594.659179688 -25 c 128,-1,0
 420 -25 420 -25 328 13.5 c 128,-1,1
549.755859375 868 m 0,9,10
 236 868 236 868 236 497.427734375 c 0,11,12
 236 341.571289062 236 341.571289062 325.450195312 213.786132812 c 128,-1,13
 414.900390625 86 414.900390625 86 577 86 c 0,14,15
 891 86 891 86 891 454.80859375 c 0,16,17
 891 614.395507812 891 614.395507812 800.125 741.197265625 c 128,-1,18
 709.25 868 709.25 868 549.755859375 868 c 0,9,10
EndSplineSet
EndChar

StartChar: p
Encoding: 82 112 81
Width: 1178
Flags: W
LayerCount: 2
Fore
SplineSet
641 851 m 0,0,1
 354 851 354 851 354 528 c 2,2,-1
 354 199 l 1,3,4
 435.666992188 94 435.666992188 94 611.928710938 94 c 0,5,6
 942 94 942 94 942 461 c 0,7,8
 942 620.125 942 620.125 867.12109375 735.5625 c 128,-1,9
 792.243164062 851 792.243164062 851 641 851 c 0,0,1
483 -332 m 0,10,11
 483 -410 483 -410 259 -410 c 128,-1,12
 35 -410 35 -410 35 -349.181640625 c 128,-1,13
 35 -288.36328125 35 -288.36328125 99.5 -282.5 c 128,-1,14
 164 -276.63671875 164 -276.63671875 164 -219 c 2,15,-1
 164 683 l 2,16,17
 164 802.307617188 164 802.307617188 122 817.654296875 c 128,-1,18
 80 833 80 833 35.5 844.342773438 c 128,-1,19
 -9 855.686523438 -9 855.686523438 -9 883.5 c 0,20,21
 -9 962 -9 962 168 962 c 128,-1,22
 345 962 345 962 345 856 c 2,23,-1
 345 841 l 2,24,25
 345 834 345 834 344 826 c 1,26,27
 502.46484375 979 502.46484375 979 696.047851562 979 c 128,-1,28
 889.630859375 979 889.630859375 979 1013.81542969 832.525390625 c 128,-1,29
 1138 686.051757812 1138 686.051757812 1138 480.165039062 c 128,-1,30
 1138 274.279296875 1138 274.279296875 1001.3359375 129.139648438 c 128,-1,31
 864.671875 -16 864.671875 -16 687.880859375 -16 c 128,-1,32
 511.090820312 -16 511.090820312 -16 354 65 c 1,33,-1
 354 -219 l 2,34,35
 354 -280.090820312 354 -280.090820312 418.5 -284 c 128,-1,36
 483 -287.909179688 483 -287.909179688 483 -332 c 0,10,11
EndSplineSet
EndChar

StartChar: q
Encoding: 83 113 82
Width: 1209
Flags: W
LayerCount: 2
Fore
SplineSet
1144 -332 m 0,0,1
 1144 -410 1144 -410 920 -410 c 128,-1,2
 696 -410 696 -410 696 -349.181640625 c 128,-1,3
 696 -288.36328125 696 -288.36328125 760.5 -282.5 c 128,-1,4
 825 -276.63671875 825 -276.63671875 825 -219 c 2,5,-1
 825 86 l 1,6,7
 630 -29 630 -29 455.33203125 -29 c 128,-1,8
 280.6640625 -29 280.6640625 -29 156.33203125 110.208984375 c 128,-1,9
 32 249.418945312 32 249.418945312 32 458.522460938 c 128,-1,10
 32 667.626953125 32 667.626953125 174.548828125 820.813476562 c 128,-1,11
 317.09765625 974 317.09765625 974 508.834960938 974 c 128,-1,12
 700.571289062 974 700.571289062 974 853 877 c 1,13,14
 865.274414062 964 865.274414062 964 1029.13671875 964 c 128,-1,15
 1193 964 1193 964 1193 868 c 0,16,17
 1193 844.479492188 1193 844.479492188 1128.64453125 827.049804688 c 128,-1,18
 1064.2890625 809.620117188 1064.2890625 809.620117188 1039.64453125 782.172851562 c 128,-1,19
 1015 754.725585938 1015 754.725585938 1015 644 c 2,20,-1
 1015 -219 l 2,21,22
 1015 -280.090820312 1015 -280.090820312 1079.5 -284 c 128,-1,23
 1144 -287.909179688 1144 -287.909179688 1144 -332 c 0,0,1
417.5 833.5 m 128,-1,25
 353 801 353 801 291.5 721.716796875 c 128,-1,26
 230 642.43359375 230 642.43359375 230 490.529296875 c 128,-1,27
 230 338.625 230 338.625 314.739257812 216.8125 c 128,-1,28
 399.478515625 95 399.478515625 95 562.953125 95 c 128,-1,29
 726.428710938 95 726.428710938 95 825 215 c 1,30,-1
 825 728 l 2,31,32
 825 784.481445312 825 784.481445312 735.555664062 825.240234375 c 128,-1,33
 646.111328125 866 646.111328125 866 564.055664062 866 c 128,-1,24
 482 866 482 866 417.5 833.5 c 128,-1,25
EndSplineSet
EndChar

StartChar: r
Encoding: 84 114 83
Width: 866
Flags: W
LayerCount: 2
Fore
SplineSet
525 78 m 0,0,1
 525 0 525 0 301 0 c 128,-1,2
 77 0 77 0 77 60.818359375 c 128,-1,3
 77 121.63671875 77 121.63671875 141.5 127.5 c 128,-1,4
 206 133.36328125 206 133.36328125 206 191 c 2,5,-1
 206 685 l 2,6,7
 206 804.736328125 206 804.736328125 161 820.868164062 c 128,-1,8
 116 837 116 837 74.5 847.163085938 c 128,-1,9
 33 857.326171875 33 857.326171875 33 882 c 0,10,11
 33 962 33 962 183.307617188 962 c 128,-1,12
 333.615234375 962 333.615234375 962 360.807617188 939.90625 c 128,-1,13
 388 917.8125 388 917.8125 388 825 c 1,14,15
 516.571289062 969 516.571289062 969 683.786132812 969 c 128,-1,16
 851 969 851 969 851 846.5 c 128,-1,17
 851 724 851 724 734.59765625 724 c 128,-1,18
 618.1953125 724 618.1953125 724 595 821 c 1,19,20
 587 822 587 822 575.75 823.5 c 128,-1,21
 564.5 825 564.5 825 552 825 c 0,22,23
 396 825 396 825 396 466 c 2,24,-1
 396 191 l 2,25,26
 396 129.909179688 396 129.909179688 460.5 126 c 128,-1,27
 525 122.090820312 525 122.090820312 525 78 c 0,0,1
EndSplineSet
EndChar

StartChar: s
Encoding: 85 115 84
Width: 981
Flags: W
LayerCount: 2
Fore
SplineSet
752.6875 635 m 0,0,1
 684 635 684 635 684 683 c 0,2,3
 684 876 684 876 476 876 c 128,-1,4
 268 876 268 876 268 741 c 0,5,6
 268 652.008547009 268 652.008547009 400.5 613.504273504 c 128,-1,7
 533 575 533 575 594.5 556.5 c 0,8,9
 921 458.284552846 921 458.284552846 921 266 c 0,10,11
 921 120.836914062 921 120.836914062 786.659667969 47.418457031 c 128,-1,12
 652.319335938 -26 652.319335938 -26 500.206054688 -26 c 128,-1,13
 348.092773438 -26 348.092773438 -26 215.546386719 22.30078125 c 128,-1,14
 83 70.6015625 83 70.6015625 83 127 c 1,15,-1
 121 278.72265625 l 1,16,17
 121 374 121 374 161.333333333 374 c 128,-1,18
 201.666666667 374 201.666666667 374 225.193452381 286.8125 c 128,-1,19
 248.720238095 199.625 248.720238095 199.625 297.860119048 145.3125 c 128,-1,20
 347 91 347 91 535 91 c 128,-1,21
 723 91 723 91 723 229 c 0,22,23
 723 334.391601562 723 334.391601562 487.955991165 401.838696051 c 128,-1,24
 252.91198233 469.285790539 252.91198233 469.285790539 167.455991165 531.004223395 c 128,-1,25
 82 592.72265625 82 592.72265625 82 712 c 0,26,27
 82 890 82 890 307 955 c 0,28,29
 390.077148438 979 390.077148438 979 477.730881911 979 c 128,-1,30
 565.384615385 979 565.384615385 979 650 954 c 0,31,32
 885 884.568181818 885 884.568181818 885 740 c 0,33,34
 885 635 885 635 752.6875 635 c 0,0,1
EndSplineSet
EndChar

StartChar: t
Encoding: 86 116 85
Width: 735
Flags: W
LayerCount: 2
Fore
SplineSet
361.25 -18 m 0,0,1
 132 -18 132 -18 132 269 c 2,2,-1
 132 828 l 1,3,4
 0 828 0 828 0 857 c 0,5,6
 0 896.461914062 0 896.461914062 70.9599609375 934.670898438 c 128,-1,7
 141.919921875 972.879882812 141.919921875 972.879882812 151.626953125 987.440429688 c 128,-1,8
 161.333007812 1002 161.333007812 1002 212.22265625 1116.5 c 128,-1,9
 263.111328125 1231 263.111328125 1231 295.555664062 1231 c 128,-1,10
 328 1231 328 1231 328 957 c 1,11,-1
 566 956 l 2,12,13
 649 956 649 956 649 893.5 c 128,-1,14
 649 831 649 831 567 831 c 2,15,-1
 328 831 l 1,16,-1
 327 320 l 2,17,18
 327 103 327 103 435.5 103 c 1,19,-1
 602.5 140 l 1,20,21
 643 140 643 140 643 88.466796875 c 128,-1,22
 643 36.9326171875 643 36.9326171875 527.25 9.466796875 c 128,-1,23
 411.5 -18 411.5 -18 361.25 -18 c 0,0,1
EndSplineSet
EndChar

StartChar: u
Encoding: 87 117 86
Width: 1264
Flags: W
LayerCount: 2
Fore
SplineSet
-1 862 m 0,0,1
 -1 964 -1 964 145.454545455 964 c 128,-1,2
 291.909090909 964 291.909090909 964 312.954545455 935.0625 c 128,-1,3
 334 906.125 334 906.125 334 838 c 2,4,-1
 334 433 l 2,5,6
 334 196.589473684 334 196.589473684 412.5 152.794736842 c 128,-1,7
 491 109 491 109 621.879518072 109 c 0,8,9
 861 109 861 109 861 411 c 2,10,-1
 861 437 l 1,11,-1
 860 749 l 2,12,13
 860 824.134765625 860 824.134765625 789 827.972683885 c 128,-1,14
 718 831.810602144 718 831.810602144 718 862 c 0,15,16
 718 964 718 964 864.454545455 964 c 128,-1,17
 1010.90909091 964 1010.90909091 964 1031.95454545 935.0625 c 128,-1,18
 1053 906.125 1053 906.125 1053 838 c 2,19,-1
 1054 198 l 2,20,21
 1054 128.918945312 1054 128.918945312 1126.5 125.000314103 c 128,-1,22
 1199 121.081682894 1199 121.081682894 1199 86 c 0,23,24
 1199 -11 1199 -11 1054.725 -11 c 128,-1,25
 910.45 -11 910.45 -11 891.725 23.0454101562 c 128,-1,26
 873 57.0908203125 873 57.0908203125 873 149 c 1,27,28
 752.000160887 -27 752.000160887 -27 503 -27 c 0,29,30
 141 -27 141 -27 141 406 c 2,31,-1
 141 749 l 2,32,33
 141 824.055664062 141 824.055664062 70 827.999811419 c 128,-1,34
 -1 831.943958775 -1 831.943958775 -1 862 c 0,0,1
EndSplineSet
EndChar

StartChar: v
Encoding: 88 118 87
Width: 1189
Flags: W
LayerCount: 2
Fore
SplineSet
123.5 793 m 128,-1,1
 117 806 117 806 101.7109375 816.830078125 c 128,-1,2
 86.4228515625 827.659179688 86.4228515625 827.659179688 19.7109375 836.802734375 c 128,-1,3
 -47 845.946289062 -47 845.946289062 -47 903.47265625 c 128,-1,4
 -47 961 -47 961 219.5 961 c 128,-1,5
 486 961 486 961 486 891 c 0,6,7
 486 858.545898438 486 858.545898438 422.5 847 c 128,-1,8
 359 835.454101562 359 835.454101562 359 796.888671875 c 128,-1,9
 359 758.32421875 359 758.32421875 622 211 c 1,10,11
 882 757.77734375 882 757.77734375 882 796.615234375 c 128,-1,12
 882 835.454101562 882 835.454101562 818.5 847 c 128,-1,13
 755 858.545898438 755 858.545898438 755 891 c 0,14,15
 755 961 755 961 983 961 c 128,-1,16
 1211 961 1211 961 1211 903.47265625 c 128,-1,17
 1211 845.946289062 1211 845.946289062 1130.37109375 834.239257812 c 128,-1,18
 1049.74121094 822.53125 1049.74121094 822.53125 1026.87109375 775.265625 c 128,-1,19
 1004 728 1004 728 983.5 685.5 c 128,-1,20
 963 643 963 643 937.5 588.5 c 128,-1,21
 912 534 912 534 882 471.5 c 2,22,-1
 760.892578125 219.193359375 l 2,23,24
 643.6796875 -25 643.6796875 -25 583.301757812 -25 c 0,25,26
 517.956054688 -25 517.956054688 -25 492.477539062 35 c 128,-1,27
 467 95 467 95 444 144 c 128,-1,28
 421 193 421 193 391 254.5 c 128,-1,29
 361 316 361 316 326.5 385.5 c 128,-1,30
 292 455 292 455 258.5 523 c 128,-1,31
 225 591 225 591 194.5 652 c 2,32,-1
 141 759 l 2,33,0
 130 780 130 780 123.5 793 c 128,-1,1
EndSplineSet
EndChar

StartChar: w
Encoding: 89 119 88
Width: 1713
Flags: W
LayerCount: 2
Fore
SplineSet
1201 197 m 1,0,-1
 1417 776.197102865 l 1,1,2
 1417 831.727539062 1417 831.727539062 1352.5 841.5 c 128,-1,3
 1288 851.272460938 1288 851.272460938 1288 879.802734375 c 128,-1,4
 1288 908.333007812 1288 908.333007812 1295 927 c 1,5,-1
 1295 933 l 1,6,7
 1445 958 1445 958 1622 958 c 2,8,-1
 1627 958 l 2,9,10
 1733 958 1733 958 1733 917.856933594 c 128,-1,11
 1733 877.713867188 1733 877.713867188 1699 851 c 1,12,13
 1573.68852459 831.721311475 1573.68852459 831.721311475 1523 705 c 1,14,-1
 1461 542 l 1,15,16
 1265.60846347 51.4414790896 1265.60846347 51.4414790896 1203.9828151 -17.579075429 c 0,17,18
 1182.6202981 -41.5050349596 1182.6202981 -41.5050349596 1161.30569218 -41.5050349596 c 0,19,20
 1121.1328615 -41.5050349596 1121.1328615 -41.5050349596 1081.13022559 43.4872720169 c 0,21,22
 1019.90328446 173.574173981 1019.90328446 173.574173981 961.131818013 319.927223709 c 128,-1,23
 902.360351562 466.280273438 902.360351562 466.280273438 849 573 c 1,24,25
 800.432617188 444.439453125 800.432617188 444.439453125 746.216796875 338.219726562 c 128,-1,26
 692 232 692 232 671 190 c 2,27,-1
 589 29 l 26,28,29
 566.112352635 -15.937565234 566.112352635 -15.937565234 493.6640625 -16 c 0,30,31
 435.884353741 -16 435.884353741 -16 300.5 359.5 c 2,32,-1
 212.36747719 603.943034963 l 2,33,34
 150.73495438 774.886069926 150.73495438 774.886069926 96 832 c 1,35,-1
 96 831 l 1,36,37
 85 836 85 836 71.5 837 c 128,-1,38
 58 838 58 838 6 850.666750133 c 128,-1,39
 -46 863.333500266 -46 863.333500266 -46 911.166750133 c 128,-1,40
 -46 959 -46 959 24 959 c 2,41,-1
 235 958 l 1,42,-1
 268.5 958 l 2,43,44
 459 958 459 958 459 918.318359375 c 128,-1,45
 459 878.63671875 459 878.63671875 441 859 c 1,46,-1
 400.5 849 l 2,47,48
 344 834.418945312 344 834.418945312 344 791.751139323 c 128,-1,49
 344 749.083333333 344 749.083333333 439.094726562 503.421549479 c 128,-1,50
 534.189453125 257.759765625 534.189453125 257.759765625 562 200 c 1,51,52
 655.0078125 396.748046875 655.0078125 396.748046875 782 720 c 1,53,54
 756.298828125 782.825195312 756.298828125 782.825195312 723 822 c 1,55,-1
 682 855 l 2,56,57
 649 880.384765625 649 880.384765625 649 911.192382812 c 128,-1,58
 649 942 649 942 712 942 c 2,59,-1
 791 942 l 1,60,-1
 811 943 l 1,61,62
 1044 943 1044 943 1044 908.3 c 128,-1,63
 1044 873.6 1044 873.6 998.5 864.5 c 128,-1,64
 953 855.4 953 855.4 953 832.877419355 c 128,-1,65
 953 810.35483871 953 810.35483871 1048.53174458 548.412958418 c 128,-1,66
 1144.06348915 286.471078127 1144.06348915 286.471078127 1201 197 c 1,0,-1
EndSplineSet
EndChar

StartChar: x
Encoding: 90 120 89
Width: 1261
Flags: W
LayerCount: 2
Fore
SplineSet
1169 79.5 m 0,0,1
 1169 -1 1169 -1 1002.5 -1 c 2,2,-1
 889 -1 l 2,3,4
 715 -1 715 -1 715 84 c 0,5,6
 715 115.62109375 715 115.62109375 761 128.310546875 c 128,-1,7
 807 141 807 141 807 153.590820312 c 128,-1,8
 807 166.181640625 807 166.181640625 795 179.090820312 c 128,-1,9
 783 192 783 192 762.090820312 216.045898438 c 128,-1,10
 741.181640625 240.090820312 741.181640625 240.090820312 714.959960938 269.397460938 c 128,-1,11
 688.737304688 298.705078125 688.737304688 298.705078125 599 406 c 1,12,-1
 362 147.654296875 l 1,13,14
 362 141 362 141 421.5 132.958984375 c 128,-1,15
 481 124.918945312 481 124.918945312 481 83 c 0,16,17
 481 0 481 0 259.5 0 c 128,-1,18
 38 0 38 0 38 88 c 0,19,20
 38 114.286132812 38 114.286132812 108.245117188 129.337890625 c 128,-1,21
 178.490234375 144.390625 178.490234375 144.390625 539 474 c 1,22,23
 308.712890625 783.698242188 308.712890625 783.698242188 192.856445312 814.301757812 c 128,-1,24
 77 844.905273438 77 844.905273438 77 862 c 0,25,26
 77 958 77 958 327 958 c 128,-1,27
 577 958 577 958 577 872 c 256,28,29
 577 836.25 577 836.25 531.5 828.125 c 128,-1,30
 486 820 486 820 486 805.43359375 c 128,-1,31
 486 790.866210938 486 790.866210938 519.5 748.43359375 c 2,32,-1
 568 687 l 2,33,34
 604 643 604 643 650 593 c 1,35,-1
 787 732 l 2,36,37
 838.16015625 783.16015625 838.16015625 783.16015625 838.16015625 797.345703125 c 0,38,39
 838.16015625 811.53125 838.16015625 811.53125 829.565429688 814.565429688 c 0,40,41
 800 825 800 825 762.5 833.232421875 c 128,-1,42
 725 841.463867188 725 841.463867188 725 869.731445312 c 0,43,44
 725 958 725 958 942 958 c 128,-1,45
 1159 958 1159 958 1159 870.203125 c 0,46,47
 1159 827 1159 827 1087.0859375 824.0859375 c 128,-1,48
 1015.171875 821.171875 1015.171875 821.171875 946 752 c 2,49,-1
 711 516 l 1,50,-1
 949 238 l 2,51,52
 987.096679688 194.82421875 987.096679688 194.82421875 1078.04785156 155.45703125 c 128,-1,53
 1169 116.08984375 1169 116.08984375 1169 79.5 c 0,0,1
EndSplineSet
EndChar

StartChar: y
Encoding: 91 121 90
Width: 1118
Flags: W
LayerCount: 2
Fore
SplineSet
130 -224 m 0,0,1
 130 -165.529296875 130 -165.529296875 167.063476562 -132.826171875 c 0,2,3
 204.125976562 -100.124023438 204.125976562 -100.124023438 237.9609375 -100.124023438 c 0,4,5
 271.795898438 -100.124023438 271.795898438 -100.124023438 303.141601562 -109.918945312 c 0,6,7
 384.458007812 -135.330078125 384.458007812 -135.330078125 388 -192 c 1,8,9
 469.875 -61 469.875 -61 495 6 c 1,10,11
 455.2421875 117.321289062 455.2421875 117.321289062 302.702148438 413.767578125 c 128,-1,12
 150.162109375 710.212890625 150.162109375 710.212890625 126.530273438 758.963867188 c 128,-1,13
 102.897460938 807.71484375 102.897460938 807.71484375 27.44921875 825.92578125 c 128,-1,14
 -48 844.137695312 -48 844.137695312 -48 872.5 c 0,15,16
 -48 958 -48 958 202.5 958 c 128,-1,17
 453 958 453 958 453 869 c 0,18,19
 453 836.096679688 453 836.096679688 393.5 826.5 c 128,-1,20
 334 816.903320312 334 816.903320312 334 738.651367188 c 128,-1,21
 334 660.400390625 334 660.400390625 587 205 c 1,22,23
 840 742.625 840 742.625 840 769.3125 c 128,-1,24
 840 796 840 796 826 806.666992188 c 128,-1,25
 812 817.333007812 812 817.333007812 756 828.22265625 c 128,-1,26
 700 839.111328125 700 839.111328125 700 866.88671875 c 0,27,28
 700 958 700 958 917 958 c 128,-1,29
 1134 958 1134 958 1134 864 c 0,30,31
 1134 841.857421875 1134 841.857421875 1066.89746094 829.874023438 c 128,-1,32
 999.794921875 817.891601562 999.794921875 817.891601562 956.897460938 725.4453125 c 128,-1,33
 914 633 914 633 880.25 558.75 c 128,-1,34
 846.5 484.5 846.5 484.5 813.75 413.75 c 128,-1,35
 781 343 781 343 741 252 c 1,36,-1
 526 -190 l 2,37,38
 444.766601562 -357 444.766601562 -357 287.383789062 -357 c 0,39,40
 130 -357 130 -357 130 -224 c 0,0,1
EndSplineSet
EndChar

StartChar: z
Encoding: 92 122 91
Width: 1048
Flags: W
LayerCount: 2
Fore
SplineSet
149 0 m 2,0,1
 76 0 76 0 76 34.5 c 0,2,3
 76 104.68359375 76 104.68359375 462 566 c 1,4,-1
 521 636 l 2,5,6
 548 669 548 669 575.5 701 c 128,-1,7
 603 733 603 733 625.5 760.5 c 128,-1,8
 648 788 648 788 665 808.5 c 128,-1,9
 682 829 682 829 688 840 c 1,10,11
 658 844 658 844 620 844 c 2,12,-1
 431 842 l 1,13,-1
 401 842 l 1,14,-1
 367 841 l 1,15,-1
 306 844 l 1,16,-1
 306 846 l 1,17,18
 229.6953125 651 229.6953125 651 149.34765625 651 c 128,-1,19
 69 651 69 651 69 723.337890625 c 128,-1,20
 69 795.674804688 69 795.674804688 113.47265625 876.837890625 c 128,-1,21
 157.9453125 958 157.9453125 958 226 958 c 2,22,-1
 915 958 l 1,23,24
 954 946.529296875 954 946.529296875 954 900.3515625 c 128,-1,25
 954 854.174804688 954 854.174804688 750.5 617.087890625 c 128,-1,26
 547 380 547 380 501 326 c 2,27,-1
 456 274 l 2,28,29
 407 217 407 217 373 178.5 c 128,-1,30
 339 140 339 140 331 128 c 1,31,32
 369.333007812 118 369.333007812 118 430 118 c 2,33,-1
 544 118 l 2,34,35
 663.200195312 118 663.200195312 118 740 126 c 1,36,-1
 740 125 l 1,37,38
 759.916015625 143.383789062 759.916015625 143.383789062 798.48046875 232.69140625 c 128,-1,39
 837.044921875 322 837.044921875 322 874.02734375 322 c 0,40,41
 972 322 972 322 972 249 c 0,42,43
 972 229 972 229 964.5 206.5 c 2,44,-1
 954 175 l 1,45,46
 897.04296875 17.6904296875 897.04296875 17.6904296875 846.521484375 4.345703125 c 128,-1,47
 796 -9 796 -9 760 -9 c 1,48,-1
 676 -5 l 1,49,-1
 668 -5 l 1,50,-1
 501 2 l 1,51,-1
 149 0 l 2,0,1
EndSplineSet
EndChar

StartChar: braceleft
Encoding: 93 123 92
Width: 613
Flags: W
LayerCount: 2
Fore
SplineSet
3 781 m 1,0,1
 188 786.872384181 188 786.872384181 188 1047 c 1,2,-1
 187 1131 l 1,3,4
 187 1318.70996094 187 1318.70996094 252.779785156 1434.35498047 c 128,-1,5
 318.559570312 1550 318.559570312 1550 430.279785156 1550 c 128,-1,6
 542 1550 542 1550 656 1474 c 1,7,-1
 628 1394 l 1,8,9
 559.428710938 1409 559.428710938 1409 510.713867188 1409 c 0,10,11
 432.652631579 1409 432.652631579 1409 411.784357748 1326.39641608 c 128,-1,12
 390.916083916 1243.79283217 390.916083916 1243.79283217 374.790903593 987.805594543 c 128,-1,13
 358.66572327 731.818356917 358.66572327 731.818356917 229 729 c 1,14,15
 358.528017732 726.183720727 358.528017732 726.183720727 374.758708512 470.550340929 c 128,-1,16
 390.989399293 214.916961131 390.989399293 214.916961131 411.820871522 132.458480565 c 128,-1,17
 432.65234375 50 432.65234375 50 492.992675781 50 c 128,-1,18
 553.333007812 50 553.333007812 50 628 64 c 1,19,-1
 656 -16 l 1,20,21
 538.743164062 -92 538.743164062 -92 428.499023438 -92 c 128,-1,22
 318.254882812 -92 318.254882812 -92 252.627441406 24.435546875 c 128,-1,23
 187 140.87109375 187 140.87109375 187 327 c 1,24,-1
 188 410 l 1,25,26
 188 671.127615819 188 671.127615819 3 677 c 1,27,-1
 3 781 l 1,0,1
EndSplineSet
EndChar

StartChar: bar
Encoding: 94 124 93
Width: 437
Flags: W
LayerCount: 2
Fore
SplineSet
158 1440 m 2,0,1
 158 1550 158 1550 219.5 1550 c 128,-1,2
 281 1550 281 1550 281 1440 c 2,3,-1
 281 8 l 2,4,5
 281 -88 281 -88 219 -88 c 128,-1,6
 157 -88 157 -88 157 8 c 2,7,-1
 158 1440 l 2,0,1
EndSplineSet
EndChar

StartChar: braceright
Encoding: 95 125 94
Width: 623
Flags: W
LayerCount: 2
Fore
SplineSet
620 677 m 1,0,1
 435 671.127929688 435 671.127929688 435 410 c 1,2,-1
 436 327 l 1,3,4
 436 140.87109375 436 140.87109375 370.373046875 24.435546875 c 128,-1,5
 304.745117188 -92 304.745117188 -92 194.500976562 -92 c 128,-1,6
 84.2568359375 -92 84.2568359375 -92 -33 -16 c 1,7,-1
 -5 64 l 1,8,9
 69.6669921875 50 69.6669921875 50 130.006835938 50 c 128,-1,10
 190.34765625 50 190.34765625 50 211.178710938 132.458007812 c 128,-1,11
 232.010742188 214.916992188 232.010742188 214.916992188 248.241210938 470.55078125 c 128,-1,12
 264.471679688 726.184570312 264.471679688 726.184570312 394 729 c 1,13,14
 264.333984375 731.819335938 264.333984375 731.819335938 248.208984375 987.805664062 c 128,-1,15
 232.083984375 1243.79296875 232.083984375 1243.79296875 211.215820312 1326.39648438 c 128,-1,16
 190.34765625 1409 190.34765625 1409 126.958984375 1409 c 128,-1,17
 63.5712890625 1409 63.5712890625 1409 -5 1394 c 1,18,-1
 -33 1474 l 1,19,20
 81 1550 81 1550 192.720703125 1550 c 128,-1,21
 304.440429688 1550 304.440429688 1550 370.220703125 1434.35546875 c 128,-1,22
 436 1318.70996094 436 1318.70996094 436 1131 c 1,23,-1
 435 1047 l 1,24,25
 435 786.872070312 435 786.872070312 620 781 c 1,26,-1
 620 677 l 1,0,1
EndSplineSet
EndChar

StartChar: asciitilde
Encoding: 96 126 95
Width: 1024
Flags: W
LayerCount: 2
Fore
SplineSet
248.5 1233 m 1,0,-1
 103 1183 l 1,1,-1
 82 1191 l 1,2,3
 167 1376 167 1376 351.5 1376 c 1,4,-1
 791 1278 l 1,5,-1
 919 1329 l 1,6,-1
 941 1321 l 1,7,8
 846.127929688 1136 846.127929688 1136 647.5 1136 c 1,9,-1
 248.5 1233 l 1,0,-1
EndSplineSet
EndChar

StartChar: exclamdown
Encoding: 98 161 97
Width: 518
Flags: W
LayerCount: 2
Fore
SplineSet
217.5 963.5 m 128,-1,1
 228 993 228 993 261 993 c 128,-1,2
 294 993 294 993 306 963.5 c 128,-1,3
 318 934 318 934 325 879 c 2,4,-1
 402 212 l 2,5,6
 407 164.5 407 164.5 407 141 c 0,7,8
 407 67 407 67 375 24.5 c 128,-1,9
 343 -18 343 -18 263 -18 c 256,10,11
 183 -18 183 -18 151 24.5 c 128,-1,12
 119 67 119 67 119 141 c 0,13,14
 119 164.5 119 164.5 124 212 c 2,15,-1
 201 879 l 2,16,0
 207 934 207 934 217.5 963.5 c 128,-1,1
240.5 1534 m 0,17,18
 360.379310345 1534 360.379310345 1534 399 1454 c 0,19,20
 413 1425 413 1425 413 1370.54545455 c 0,21,22
 413 1316.09090909 413 1316.09090909 366.875 1282.54545455 c 128,-1,23
 320.75 1249 320.75 1249 260.232142857 1249 c 0,24,25
 199.714285714 1249 199.714285714 1249 152.357142857 1285.03271484 c 128,-1,26
 105 1321.06542969 105 1321.06542969 105 1393.03271484 c 128,-1,27
 105 1465 105 1465 151 1499.5 c 128,-1,28
 197 1534 197 1534 240.5 1534 c 0,17,18
EndSplineSet
EndChar

StartChar: cent
Encoding: 99 162 98
Width: 1086
Flags: W
LayerCount: 2
Fore
SplineSet
1017 306 m 0,0,1
 1059 306 1059 306 1059 267 c 0,2,3
 1059 245 1059 245 1044 226 c 1,4,5
 884.584960938 74 884.584960938 74 587 74 c 2,6,-1
 584 74 l 1,7,-1
 551 -210 l 2,8,9
 548 -236 548 -236 534.5 -248 c 128,-1,10
 521 -260 521 -260 504.5 -260 c 128,-1,11
 488 -260 488 -260 474 -246.5 c 128,-1,12
 460 -233 460 -233 460 -217 c 128,-1,13
 460 -201 460 -201 461 -197 c 2,14,-1
 492 80 l 1,15,16
 280.409179688 106.197265625 280.409179688 106.197265625 157.204589844 241.825683594 c 128,-1,17
 34 377.454101562 34 377.454101562 34 599.153320312 c 128,-1,18
 34 820.852539062 34 820.852539062 199.853027344 981.389648438 c 128,-1,19
 365.706054688 1141.92675781 365.706054688 1141.92675781 615 1156 c 1,20,-1
 644 1407 l 2,21,22
 647 1432 647 1432 660.5 1444 c 128,-1,23
 674 1456 674 1456 690.5 1456 c 128,-1,24
 707 1456 707 1456 721 1442 c 128,-1,25
 735 1428 735 1428 735 1402 c 128,-1,26
 735 1376 735 1376 709 1155 c 1,27,28
 937.827148438 1134.92773438 937.827148438 1134.92773438 1031 1007.5 c 0,29,30
 1065 961 1065 961 1065 904.728515625 c 128,-1,31
 1065 848.45703125 1065 848.45703125 1038.5 824.228515625 c 0,32,33
 991.21875 781 991.21875 781 936.538085938 781 c 128,-1,34
 881.857421875 781 881.857421875 781 860 790 c 1,35,36
 856.059570312 1022.5078125 856.059570312 1022.5078125 697 1050 c 1,37,-1
 600 214 l 1,38,39
 632 210 632 210 665 210 c 0,40,41
 784.182665173 210 784.182665173 210 939.833007812 280.87890625 c 0,42,43
 995 306 995 306 1017 306 c 0,0,1
312.291015625 397.293686811 m 128,-1,45
 383.58203125 281.969726562 383.58203125 281.969726562 510 236 c 1,46,-1
 603 1052 l 1,47,48
 428.64453125 1037.00195312 428.64453125 1037.00195312 334.822265625 920.245605469 c 128,-1,49
 241 803.489257812 241 803.489257812 241 658.053452436 c 128,-1,44
 241 512.617647059 241 512.617647059 312.291015625 397.293686811 c 128,-1,45
EndSplineSet
EndChar

StartChar: sterling
Encoding: 100 163 99
Width: 1321
Flags: W
LayerCount: 2
Fore
SplineSet
1217 356 m 0,0,1
 1287 356 1287 356 1287 263.580645161 c 128,-1,2
 1287 171.161290323 1287 171.161290323 1219.125 83.5806451613 c 128,-1,3
 1151.25 -4 1151.25 -4 1051 -4 c 2,4,-1
 310 0 l 2,5,6
 156.5 0 156.5 0 112.75 10.5 c 128,-1,7
 69 21 69 21 48.5 40 c 128,-1,8
 28 59 28 59 28 84 c 128,-1,9
 28 109 28 109 49 116.5 c 128,-1,10
 70 124 70 124 98 132.5 c 0,11,12
 172.551757812 155.131835938 172.551757812 155.131835938 189 197 c 1,13,14
 202 255.5 202 255.5 202 312 c 2,15,-1
 201 708 l 1,16,17
 19 714.5 19 714.5 19 782 c 0,18,19
 19 835.478515625 19 835.478515625 143.5 844.5 c 0,20,21
 178 847 178 847 212 848 c 1,22,-1
 212 925 l 2,23,24
 212 1201.47851562 212 1201.47851562 352.886230469 1336.23925781 c 128,-1,25
 493.772460938 1471 493.772460938 1471 720 1471 c 0,26,27
 892.243164062 1471 892.243164062 1471 1018.78222656 1425.98144531 c 128,-1,28
 1145.32128906 1380.96289062 1145.32128906 1380.96289062 1192 1309 c 0,29,30
 1216 1272 1216 1272 1216 1216.58108108 c 128,-1,31
 1216 1161.16216216 1216 1161.16216216 1177.75 1128.08108108 c 128,-1,32
 1139.5 1095 1139.5 1095 1080 1095 c 0,33,34
 1063 1095 1063 1095 1049 1115 c 128,-1,35
 1035 1135 1035 1135 1003.25806452 1194.51612903 c 0,36,37
 912.333333333 1365 912.333333333 1365 742 1365 c 0,38,39
 494.40234375 1365 494.40234375 1365 448 1166.5 c 0,40,41
 435 1110.88867188 435 1110.88867188 435 1021 c 1,42,-1
 437 844 l 1,43,-1
 821 844 l 2,44,45
 931.713867188 844 931.713867188 844 958.5 821.5 c 0,46,47
 971 811 971 811 971 786.5 c 0,48,49
 971 737.625 971 737.625 926 718.5 c 0,50,51
 896.587890625 706 896.587890625 706 827 706 c 2,52,-1
 421 706 l 1,53,-1
 421 167 l 2,54,55
 421 122 421 122 514 122 c 0,56,57
 723.8 122 723.8 122 880.757910156 137.238769531 c 128,-1,58
 1037.71582031 152.477539062 1037.71582031 152.477539062 1058 166 c 1,59,60
 1073 184 1073 184 1086.5 216 c 128,-1,61
 1100 248 1100 248 1117 279 c 0,62,63
 1159.22558594 356 1159.22558594 356 1217 356 c 0,0,1
EndSplineSet
EndChar

StartChar: currency
Encoding: 101 164 100
Width: 915
Flags: W
LayerCount: 2
Fore
SplineSet
338 1022 m 1,0,1
 394.333007812 1048 394.333007812 1048 460.576171875 1048 c 128,-1,2
 526.818359375 1048 526.818359375 1048 577 1025 c 1,3,-1
 746 1194 l 2,4,5
 760 1208 760 1208 775 1208 c 128,-1,6
 790 1208 790 1208 799.5 1198 c 128,-1,7
 809 1188 809 1188 809 1172.5 c 128,-1,8
 809 1157 809 1157 795 1143 c 2,9,-1
 638 986 l 1,10,11
 695 932.930664062 695 932.930664062 695 854 c 256,12,13
 695 775.069335938 695 775.069335938 638 722 c 1,14,-1
 797 563 l 1,15,16
 807.415039062 551.09765625 807.415039062 551.09765625 808.70703125 535.048828125 c 128,-1,17
 810 519 810 519 800.5 508.5 c 128,-1,18
 791 498 791 498 776 498 c 128,-1,19
 761 498 761 498 747 512 c 2,20,-1
 577 681 l 1,21,22
 526 658 526 658 456.13671875 658 c 128,-1,23
 386.272460938 658 386.272460938 658 334 681 c 1,24,-1
 165 512 l 2,25,26
 151 498 151 498 136 498 c 128,-1,27
 121 498 121 498 111 508.5 c 128,-1,28
 101 519 101 519 101 534 c 128,-1,29
 101 549 101 549 115 563 c 2,30,-1
 274 722 l 1,31,32
 222 774 222 774 222 849.982421875 c 128,-1,33
 222 925.965820312 222 925.965820312 279 981 c 1,34,-1
 117 1143 l 2,35,36
 102 1158 102 1158 102 1173 c 128,-1,37
 102 1188 102 1188 111.5 1198 c 128,-1,38
 121 1208 121 1208 136.5 1208 c 128,-1,39
 152 1208 152 1208 166 1194 c 2,40,-1
 338 1022 l 1,0,1
356 761.5 m 128,-1,42
 392 727 392 727 456.214285714 727 c 0,43,44
 520.428571429 727 520.428571429 727 558.214285714 763.736328125 c 128,-1,45
 596 800.47265625 596 800.47265625 596 856.736328125 c 128,-1,46
 596 913 596 913 559.5 946 c 128,-1,47
 523 979 523 979 458.5 979 c 128,-1,48
 394 979 394 979 357 942.5 c 128,-1,49
 320 906 320 906 320 851 c 128,-1,41
 320 796 320 796 356 761.5 c 128,-1,42
EndSplineSet
EndChar

StartChar: yen
Encoding: 102 165 101
Width: 1357
Flags: W
LayerCount: 2
Fore
SplineSet
747 -1 m 1,0,-1
 670 1 l 257,1,-1
 596 0 l 1,2,3
 408 0 408 0 408 90 c 0,4,5
 408 121.150390625 408 121.150390625 473.0625 130.91015625 c 128,-1,6
 538.125976562 140.668945312 538.125976562 140.668945312 552.0625 147.333984375 c 128,-1,7
 566 154 566 154 566 165 c 2,8,-1
 566 299 l 1,9,-1
 294 299 l 2,10,11
 267 299 267 299 248.5 318 c 128,-1,12
 230 337 230 337 230 363 c 256,13,14
 230 389 230 389 249 407.5 c 128,-1,15
 268 426 268 426 294 426 c 2,16,-1
 566 426 l 1,17,-1
 566 509 l 1,18,-1
 294 509 l 2,19,20
 267 509 267 509 248.5 528 c 128,-1,21
 230 547 230 547 230 573 c 256,22,23
 230 599 230 599 249 617.5 c 128,-1,24
 268 636 268 636 294 636 c 2,25,-1
 476 636 l 1,26,27
 385 757 385 757 296.5 877 c 128,-1,28
 208 997 208 997 115 1117 c 0,29,30
 97.2978515625 1140.01269531 97.2978515625 1140.01269531 46.6484375 1146.50683594 c 128,-1,31
 -4 1153 -4 1153 -19.5 1158.5 c 0,32,33
 -54 1170.7421875 -54 1170.7421875 -54 1208 c 0,34,35
 -54 1300 -54 1300 182 1300 c 2,36,-1
 242 1300 l 2,37,38
 488 1300 488 1300 488 1186 c 0,39,40
 488 1156.23828125 488 1156.23828125 391 1147 c 0,41,42
 370 1145 370 1145 361 1144 c 1,43,44
 367.286132812 1140.85742188 367.286132812 1140.85742188 426.142578125 1059.92871094 c 128,-1,45
 485 979 485 979 527.5 921 c 128,-1,46
 570 863 570 863 608 810.5 c 128,-1,47
 646 758 646 758 674 719.5 c 128,-1,48
 702 681 702 681 709 671 c 1,49,50
 787 774 787 774 865 874.5 c 128,-1,51
 943 975 943 975 1021 1078 c 1,52,-1
 1021 1077 l 1,53,54
 1032 1094 1032 1094 1048 1110.5 c 128,-1,55
 1064 1127 1064 1127 1072 1144 c 1,56,57
 1006.75 1144 1006.75 1144 974.875 1159 c 128,-1,58
 943 1174 943 1174 943 1186 c 0,59,60
 943 1250.63183594 943 1250.63183594 1036 1280 c 0,61,62
 1099.33300781 1300 1099.33300781 1300 1157.16601562 1300 c 0,63,64
 1215 1300 1215 1300 1260.5 1293.5 c 0,65,66
 1402 1273.28613281 1402 1273.28613281 1402 1217.47558594 c 0,67,68
 1402 1188 1402 1188 1383.5 1174 c 128,-1,69
 1365 1160 1365 1160 1339 1150.5 c 128,-1,70
 1313 1141 1313 1141 1286 1134 c 128,-1,71
 1259 1127 1259 1127 1242 1117 c 1,72,-1
 872 636 l 1,73,-1
 1063 636 l 2,74,75
 1090 636 1090 636 1108.5 617.5 c 128,-1,76
 1127 599 1127 599 1127 573 c 256,77,78
 1127 547 1127 547 1108 528 c 128,-1,79
 1089 509 1089 509 1063 509 c 2,80,-1
 779 509 l 1,81,-1
 779 426 l 1,82,-1
 1063 426 l 2,83,84
 1090 426 1090 426 1108.5 407.5 c 128,-1,85
 1127 389 1127 389 1127 363 c 256,86,87
 1127 337 1127 337 1108 318 c 128,-1,88
 1089 299 1089 299 1063 299 c 2,89,-1
 779 299 l 1,90,-1
 779 165 l 2,91,92
 779 147.735351562 779 147.735351562 807.5 141.8671875 c 128,-1,93
 836 136 836 136 855.5 133 c 0,94,95
 932 121.23046875 932 121.23046875 932 90 c 0,96,97
 932 -1 932 -1 747 -1 c 1,0,-1
EndSplineSet
EndChar

StartChar: brokenbar
Encoding: 103 166 102
Width: 431
Flags: W
LayerCount: 2
Fore
SplineSet
220 1540 m 0,0,1
 278 1540 278 1540 278 1440 c 2,2,-1
 278 944 l 2,3,4
 278 902 278 902 259 880 c 128,-1,5
 240 858 240 858 214.5 858 c 128,-1,6
 189 858 189 858 171.5 880 c 128,-1,7
 154 902 154 902 154 944 c 2,8,-1
 155 1440 l 2,9,10
 155 1489 155 1489 174.5 1514.5 c 128,-1,11
 194 1540 194 1540 220 1540 c 0,0,1
220 660 m 0,12,13
 278 660 278 660 278 560 c 2,14,-1
 278 4 l 2,15,16
 278 -38 278 -38 259 -60 c 128,-1,17
 240 -82 240 -82 214.5 -82 c 128,-1,18
 189 -82 189 -82 171.5 -60 c 128,-1,19
 154 -38 154 -38 154 4 c 2,20,-1
 155 560 l 2,21,22
 155 609 155 609 174.5 634.5 c 128,-1,23
 194 660 194 660 220 660 c 0,12,13
EndSplineSet
EndChar

StartChar: section
Encoding: 104 167 103
Width: 1041
Flags: W
LayerCount: 2
Fore
SplineSet
711 1111 m 0,0,1
 711 1304 711 1304 506 1304 c 0,2,3
 428.53125 1304 428.53125 1304 382.265625 1280.5 c 0,4,5
 295 1236.17480469 295 1236.17480469 295 1168.76123047 c 128,-1,6
 295 1101.34765625 295 1101.34765625 397 1057 c 0,7,8
 443 1037 443 1037 501.5 1020 c 128,-1,9
 560 1003 560 1003 666.191440976 971.056233202 c 0,10,11
 948 886.284552846 948 886.284552846 948 694 c 0,12,13
 948 541.5 948 541.5 785 460 c 1,14,15
 928 381.581054688 928 381.581054688 928 242 c 0,16,17
 928 64 928 64 703 -1 c 0,18,19
 619.922851562 -25 619.922851562 -25 553.961914062 -25 c 0,20,21
 327.887052235 -25 327.887052235 -25 192.470149254 83.7434608739 c 0,22,23
 125 137.923828125 125 137.923828125 125 203.536621094 c 128,-1,24
 125 269.149414062 125 269.149414062 173.8125 294.074707031 c 128,-1,25
 222.625 319 222.625 319 265.098214286 319 c 128,-1,26
 307.571428571 319 307.571428571 319 316.785714286 306.100097656 c 128,-1,27
 326 293.200195312 326 293.200195312 326 271 c 0,28,29
 326 78 326 78 531 78 c 0,30,31
 608.46875 78 608.46875 78 654.734375 101.5 c 0,32,33
 742 145.825195312 742 145.825195312 742 213.238769531 c 128,-1,34
 742 280.65234375 742 280.65234375 640 325 c 0,35,36
 594 345 594 345 535.5 362 c 128,-1,37
 477 379 477 379 370.808559024 410.943766798 c 0,38,39
 89 495.715447154 89 495.715447154 89 688 c 0,40,41
 89 842.314453125 89 842.314453125 251 921 c 1,42,43
 109 998.87109375 109 998.87109375 109 1140 c 0,44,45
 109 1318 109 1318 334 1383 c 0,46,47
 417.077148438 1407 417.077148438 1407 483.038085938 1407 c 0,48,49
 709.112947762 1407 709.112947762 1407 844.529850746 1298.25653913 c 0,50,51
 912 1244.07617188 912 1244.07617188 912 1178.46337891 c 128,-1,52
 912 1112.85058594 912 1112.85058594 863.1875 1087.92529297 c 128,-1,53
 814.375 1063 814.375 1063 771.901785714 1063 c 128,-1,54
 729.428571429 1063 729.428571429 1063 720.214285714 1075.89990235 c 128,-1,55
 711 1088.79980469 711 1088.79980469 711 1111 c 0,0,1
613 526 m 1,56,57
 750 547.077032824 750 547.077032824 750 663.5 c 0,58,59
 750 763.256410256 750 763.256410256 543.5 821.5 c 0,60,61
 485 838 485 838 424 856 c 1,62,63
 287 829.654296875 287 829.654296875 287 723.06640625 c 128,-1,64
 287 616.478515625 287 616.478515625 493.5 560 c 0,65,66
 552 544 552 544 613 526 c 1,56,57
EndSplineSet
EndChar

StartChar: dieresis
Encoding: 105 168 104
Width: 1201
Flags: W
LayerCount: 2
Fore
SplineSet
823 1476 m 256,0,1
 823 1532.82910156 823 1532.82910156 867.329101562 1573.91455078 c 128,-1,2
 911.658203125 1615 911.658203125 1615 972.410182644 1615 c 0,3,4
 1033.16216216 1615 1033.16216216 1615 1078.58108108 1574.98828125 c 128,-1,5
 1124 1534.9765625 1124 1534.9765625 1124 1476 c 256,6,7
 1124 1417.28613281 1124 1417.28613281 1077.75 1377.64306641 c 128,-1,8
 1031.5 1338 1031.5 1338 972 1338 c 256,9,10
 913.837890625 1338 913.837890625 1338 880.918945312 1367 c 0,11,12
 823 1418.0234375 823 1418.0234375 823 1476 c 256,0,1
83 1476 m 256,13,14
 83 1534.09570312 83 1534.09570312 128.918945312 1574.54785156 c 128,-1,15
 174.837890625 1615 174.837890625 1615 235.089997944 1615 c 0,16,17
 295.342105263 1615 295.342105263 1615 339.671052632 1573.91455078 c 128,-1,18
 384 1532.82910156 384 1532.82910156 384 1476 c 256,19,20
 384 1416.42871094 384 1416.42871094 338.25 1377.21435547 c 128,-1,21
 292.5 1338 292.5 1338 234.791666667 1338 c 0,22,23
 177.083333333 1338 177.083333333 1338 130.041666667 1377.38378906 c 128,-1,24
 83 1416.76757812 83 1416.76757812 83 1476 c 256,13,14
EndSplineSet
EndChar

StartChar: copyright
Encoding: 106 169 105
Width: 1637
Flags: W
LayerCount: 2
Fore
SplineSet
1113.5 464.5 m 128,-1,1
 1135 475 1135 475 1148.5 475 c 128,-1,2
 1162 475 1162 475 1162 443.5 c 128,-1,3
 1162 412 1162 412 1135.5 374.5 c 128,-1,4
 1109 337 1109 337 1065.5 310 c 0,5,6
 973.666992188 253 973.666992188 253 855.333007812 253 c 0,7,8
 636.03875969 253 636.03875969 253 513.519379845 389.25 c 128,-1,9
 391 525.5 391 525.5 391 711.271484375 c 128,-1,10
 391 897.04296875 391 897.04296875 514.429199219 1031.02148438 c 128,-1,11
 637.858398438 1165 637.858398438 1165 863 1165 c 0,12,13
 974 1165 974 1165 1074.5 1101.04578899 c 128,-1,14
 1175 1037.09157798 1175 1037.09157798 1175 917 c 0,15,16
 1175 897 1175 897 1155 878 c 128,-1,17
 1135 859 1135 859 1102 859 c 128,-1,18
 1069 859 1069 859 1044.48449892 880.86517664 c 0,19,20
 1019.96899784 902.73035328 1019.96899784 902.73035328 992.5 972 c 0,21,22
 947.689655172 1085 947.689655172 1085 868.147460938 1085 c 0,23,24
 757.943820225 1085 757.943820225 1085 697.971910112 991.359863281 c 128,-1,25
 638 897.719726562 638 897.719726562 638 761.109863281 c 128,-1,26
 638 624.5 638 624.5 711.907714844 515.75 c 128,-1,27
 785.815429688 407 785.815429688 407 921 407 c 0,28,29
 985.345703125 407 985.345703125 407 1038.67285156 430.5 c 128,-1,0
 1092 454 1092 454 1113.5 464.5 c 128,-1,1
864 1403 m 0,30,31
 995 1403 995 1403 1132 1352.5 c 128,-1,32
 1269 1302 1269 1302 1371.5 1210.5 c 128,-1,33
 1474 1119 1474 1119 1533 990 c 128,-1,34
 1592 861 1592 861 1592 731 c 0,35,36
 1592 502.380952381 1592 502.380952381 1483.43888433 336.95449041 c 128,-1,37
 1374.87776866 171.528028439 1374.87776866 171.528028439 1195.59269293 77.7640142193 c 128,-1,38
 1016.30761719 -16 1016.30761719 -16 812.017578125 -16 c 128,-1,39
 607.727539062 -16 607.727539062 -16 432.075195312 74.92578125 c 128,-1,40
 256.422851562 165.8515625 256.422851562 165.8515625 150.711425781 325.455078125 c 128,-1,41
 45 485.05859375 45 485.05859375 45 683.72265625 c 128,-1,42
 45 882.38671875 45 882.38671875 154.448242188 1048.62402344 c 128,-1,43
 263.896484375 1214.86132812 263.896484375 1214.86132812 445.833007812 1308.93066406 c 128,-1,44
 627.76953125 1403 627.76953125 1403 864 1403 c 0,30,31
364.842773438 251.663636364 m 128,-1,46
 539.685546875 80 539.685546875 80 811.798339844 80 c 128,-1,47
 1083.91113281 80 1083.91113281 80 1262.95556641 257.459960938 c 128,-1,48
 1442 434.919921875 1442 434.919921875 1442 698.459960938 c 128,-1,49
 1442 962 1442 962 1271 1133 c 128,-1,50
 1100 1304 1100 1304 828.716796875 1304 c 128,-1,51
 557.43359375 1304 557.43359375 1304 373.716796875 1126.69189453 c 128,-1,52
 190 949.383789062 190 949.383789062 190 686.355530895 c 128,-1,45
 190 423.327272727 190 423.327272727 364.842773438 251.663636364 c 128,-1,46
EndSplineSet
EndChar

StartChar: ordfeminine
Encoding: 107 170 106
Width: 984
Flags: W
LayerCount: 2
Fore
SplineSet
475 1269 m 0,0,1
 314 1269 314 1269 314 1100 c 1,2,-1
 315 1075 l 1,3,4
 286 1069 286 1069 248.5 1069 c 128,-1,5
 211 1069 211 1069 170 1094.89453125 c 128,-1,6
 129 1120.7890625 129 1120.7890625 129 1160.89453125 c 0,7,8
 129 1231.44824219 129 1231.44824219 187.397460938 1275.75 c 0,9,10
 301.090820312 1362 301.090820312 1362 473.374023438 1362 c 128,-1,11
 645.658203125 1362 645.658203125 1362 721.829101562 1288.72167969 c 128,-1,12
 798 1215.44335938 798 1215.44335938 798 1043 c 2,13,-1
 798 926 l 1,14,-1
 796 838 l 1,15,16
 796 720 796 720 817 699 c 0,17,18
 825 691 825 691 845 685.5 c 128,-1,19
 865 680 865 680 901.5 669.31640625 c 128,-1,20
 938 658.633789062 938 658.633789062 938 640 c 0,21,22
 938 548 938 548 756 548 c 0,23,24
 693.037109375 548 693.037109375 548 669.55859375 573.356445312 c 128,-1,25
 646.080078125 598.712890625 646.080078125 598.712890625 642 664 c 1,26,27
 552.788085938 536 552.788085938 536 368.775390625 536 c 128,-1,28
 184.76171875 536 184.76171875 536 116.5 658 c 0,29,30
 93 700 93 700 93 765 c 128,-1,31
 93 830 93 830 122 873 c 128,-1,32
 151 916 151 916 197.5 940.5 c 128,-1,33
 244 965 244 965 302.5 976.5 c 128,-1,34
 361 988 361 988 420 996 c 128,-1,35
 479 1004 479 1004 533.5 1012.5 c 128,-1,36
 588 1021 588 1021 627 1041 c 1,37,38
 627 1151.06640625 627 1151.06640625 608.5 1190.53320312 c 0,39,40
 571.71875 1269 571.71875 1269 475 1269 c 0,0,1
318 672 m 128,-1,42
 355 636 355 636 421.5 636 c 0,43,44
 547.227539062 636 547.227539062 636 594 734 c 0,45,46
 627 803.142578125 627 803.142578125 627 950 c 1,47,48
 597 940 597 940 559.5 935 c 128,-1,49
 522 930 522 930 453.80078125 920.12890625 c 0,50,51
 281 895.118164062 281 895.118164062 281 777.375 c 0,52,41
 281 708 281 708 318 672 c 128,-1,42
EndSplineSet
EndChar

StartChar: guillemotleft
Encoding: 108 171 107
Width: 1196
Flags: W
LayerCount: 2
Fore
SplineSet
1083 204 m 128,-1,1
 1108 173 1108 173 1108 152 c 128,-1,2
 1108 131 1108 131 1091 115.5 c 128,-1,3
 1074 100 1074 100 1045.46938776 100 c 0,4,5
 1016.93877551 100 1016.93877551 100 928.5 153.5 c 0,6,7
 735.466073637 270.273609775 735.466073637 270.273609775 590.561349693 422.078609287 c 0,8,9
 524 491.809570312 524 491.809570312 524 515.904296875 c 0,10,11
 524 587.022222222 524 587.022222222 750.571101667 755.69182013 c 0,12,13
 847.92481203 828.166248956 847.92481203 828.166248956 932.228519296 877.083124478 c 128,-1,14
 1016.53222656 926 1016.53222656 926 1045.265625 926 c 128,-1,15
 1074 926 1074 926 1091 910.5 c 128,-1,16
 1108 895 1108 895 1108 874.5 c 0,17,18
 1108 814.371149986 1108 814.371149986 847.756157514 621.380723857 c 0,19,20
 742.489257812 543.317382812 742.489257812 543.317382812 706 524 c 1,21,22
 779.01953125 481.047851562 779.01953125 481.047851562 879.509765625 395.5234375 c 128,-1,23
 980 310 980 310 1019 272.5 c 128,-1,0
 1058 235 1058 235 1083 204 c 128,-1,1
600 205 m 128,-1,25
 625 174 625 174 625 152.5 c 128,-1,26
 625 131 625 131 608 115.5 c 128,-1,27
 591 100 591 100 562.469387755 100 c 0,28,29
 533.93877551 100 533.93877551 100 445.5 153.5 c 0,30,31
 252.466073637 270.273609775 252.466073637 270.273609775 107.561349693 422.078609287 c 0,32,33
 41 491.809570312 41 491.809570312 41 515.904296875 c 0,34,35
 41 587.022222222 41 587.022222222 267.571101667 755.69182013 c 0,36,37
 364.92481203 828.166248956 364.92481203 828.166248956 449.228519296 877.083124478 c 128,-1,38
 533.532226562 926 533.532226562 926 562.265625 926 c 128,-1,39
 591 926 591 926 608 910.5 c 128,-1,40
 625 895 625 895 625 874.5 c 0,41,42
 625 815.112703884 625 815.112703884 366.454278778 623.381577828 c 0,43,44
 258.489257812 543.317382812 258.489257812 543.317382812 222 524 c 1,45,46
 293.208007812 484.440429688 293.208007812 484.440429688 395.103515625 397.719726562 c 128,-1,47
 497 311 497 311 536 273.5 c 128,-1,24
 575 236 575 236 600 205 c 128,-1,25
EndSplineSet
EndChar

StartChar: logicalnot
Encoding: 109 172 108
Width: 1177
Flags: W
LayerCount: 2
Fore
SplineSet
951 724 m 2,0,1
 1062 724 1062 724 1062 652 c 1,2,-1
 1056 350 l 1,3,4
 1053.57617188 282.124023438 1053.57617188 282.124023438 1039.78808594 259.5625 c 0,5,6
 1013.16699219 216 1013.16699219 216 951.643554688 216 c 128,-1,7
 890.120117188 216 890.120117188 216 866 249.5 c 0,8,9
 857 262 857 262 857 282 c 2,10,-1
 860 418 l 2,11,12
 862 482 862 482 862 543 c 1,13,-1
 175 543 l 2,14,15
 113 543 113 543 90.5 550.5 c 0,16,17
 43 566.333007812 43 566.333007812 43 611.166992188 c 0,18,19
 43 687.45 43 687.45 85 709.5 c 0,20,21
 112.619140625 724 112.619140625 724 192 724 c 2,22,-1
 951 724 l 2,0,1
EndSplineSet
EndChar

StartChar: uni00AD
Encoding: 110 173 109
Width: 1200
Flags: W
LayerCount: 2
Fore
SplineSet
223 342 m 6,0,1
 160.77734375 342 160.77734375 342 139.388671875 353 c 4,2,3
 97 374.799804688 97 374.799804688 97 419.400390625 c 4,4,5
 97 491.325195312 97 491.325195312 145.5 510.5 c 4,6,7
 174.587890625 522 174.587890625 522 245 522 c 6,8,-1
 985 522 l 6,9,10
 1074.84863281 522 1074.84863281 522 1102.5 485.5 c 4,11,12
 1115 469 1115 469 1115 423.041992188 c 132,-1,13
 1115 377.083007812 1115 377.083007812 1081.76367188 359.541992188 c 132,-1,14
 1048.52636719 342 1048.52636719 342 979 342 c 6,15,-1
 223 342 l 6,0,1
EndSplineSet
EndChar

StartChar: registered
Encoding: 111 174 110
Width: 1637
Flags: W
LayerCount: 2
Fore
SplineSet
1258 357 m 0,0,1
 1258 314 1258 314 1146.625 314 c 128,-1,2
 1035.25 314 1035.25 314 981 345 c 1,3,4
 923.8828125 400.33203125 923.8828125 400.33203125 887.44140625 469.166015625 c 128,-1,5
 851 538 851 538 830.5 581.5 c 128,-1,6
 810 625 810 625 789 665 c 1,7,-1
 682 665 l 1,8,-1
 682 418 l 2,9,10
 682 400.833007812 682 400.833007812 714.5 395.416992188 c 128,-1,11
 747 390 747 390 761.5 386 c 128,-1,12
 776 382 776 382 776 368 c 0,13,14
 776 339 776 339 738.5 331.5 c 128,-1,15
 701 324 701 324 599.222222222 324 c 128,-1,16
 497.444444444 324 497.444444444 324 467.5 329.5 c 0,17,18
 417 338.775390625 417 338.775390625 417 372 c 0,19,20
 417 384.857421875 417 384.857421875 449.5 390.428710938 c 128,-1,21
 482 396 482 396 497 401 c 128,-1,22
 512 406 512 406 512 418 c 2,23,-1
 512 1004 l 2,24,25
 512 1018 512 1018 479.5 1024.5 c 128,-1,26
 447 1031 447 1031 432 1035.5 c 128,-1,27
 417 1040 417 1040 417 1052.5 c 0,28,29
 417 1079.62962963 417 1079.62962963 466.600097656 1088.81481481 c 128,-1,30
 516.200195312 1098 516.200195312 1098 625 1098 c 2,31,-1
 720 1098 l 2,32,33
 897.23046875 1098 897.23046875 1098 966.615234375 1077.5 c 128,-1,34
 1036 1057 1036 1057 1070 1033.5 c 0,35,36
 1145 981.662109375 1145 981.662109375 1145 887 c 0,37,38
 1145 762.876953125 1145 762.876953125 1017.5 700 c 0,39,40
 981 682 981 682 941 673 c 1,41,-1
 970 634 l 1,42,43
 1067.77734375 469 1067.77734375 469 1140 404 c 1,44,45
 1185.45410156 379 1185.45410156 379 1249 379 c 1,46,47
 1258 370 1258 370 1258 357 c 0,0,1
864 1403 m 0,48,49
 995 1403 995 1403 1132 1352.5 c 128,-1,50
 1269 1302 1269 1302 1371.5 1210.5 c 128,-1,51
 1474 1119 1474 1119 1533 990 c 128,-1,52
 1592 861 1592 861 1592 731 c 0,53,54
 1592 502.380952381 1592 502.380952381 1483.43888433 336.95449041 c 128,-1,55
 1374.87776866 171.528028439 1374.87776866 171.528028439 1195.59269293 77.7640142193 c 128,-1,56
 1016.30761719 -16 1016.30761719 -16 812.017578125 -16 c 128,-1,57
 607.727539062 -16 607.727539062 -16 432.075195312 74.92578125 c 128,-1,58
 256.422851562 165.8515625 256.422851562 165.8515625 150.711425781 325.455078125 c 128,-1,59
 45 485.05859375 45 485.05859375 45 683.72265625 c 128,-1,60
 45 882.38671875 45 882.38671875 154.448242188 1048.62402344 c 128,-1,61
 263.896484375 1214.86132812 263.896484375 1214.86132812 445.833007812 1308.93066406 c 128,-1,62
 627.76953125 1403 627.76953125 1403 864 1403 c 0,48,49
364.842773438 251.663636364 m 128,-1,64
 539.685546875 80 539.685546875 80 811.798339844 80 c 128,-1,65
 1083.91113281 80 1083.91113281 80 1262.95556641 257.459960938 c 128,-1,66
 1442 434.919921875 1442 434.919921875 1442 698.459960938 c 128,-1,67
 1442 962 1442 962 1271 1133 c 128,-1,68
 1100 1304 1100 1304 828.716796875 1304 c 128,-1,69
 557.43359375 1304 557.43359375 1304 373.716796875 1126.69189453 c 128,-1,70
 190 949.383789062 190 949.383789062 190 686.355530895 c 128,-1,63
 190 423.327272727 190 423.327272727 364.842773438 251.663636364 c 128,-1,64
963 887 m 0,71,72
 963 1022 963 1022 758 1022 c 0,73,74
 714.799804688 1022 714.799804688 1022 699.395507812 1008.40771484 c 128,-1,75
 683.991210938 994.815429688 683.991210938 994.815429688 682 953 c 1,76,-1
 682 741 l 1,77,-1
 775 741 l 2,78,79
 903 741 903 741 947 818 c 0,80,81
 963 846 963 846 963 887 c 0,71,72
EndSplineSet
EndChar

StartChar: macron
Encoding: 112 175 111
Width: 839
Flags: W
LayerCount: 2
Fore
SplineSet
668 373 m 2,0,1
 707 373 707 373 727.5 355 c 128,-1,2
 748 337 748 337 748 313 c 0,3,4
 748 289 748 289 726 268 c 128,-1,5
 704 247 704 247 662 247 c 2,6,-1
 188 247 l 2,7,8
 149 247 149 247 129 265 c 128,-1,9
 109 283 109 283 109 307 c 0,10,11
 109 331 109 331 130.5 352 c 128,-1,12
 152 373 152 373 194 373 c 2,13,-1
 668 373 l 2,0,1
EndSplineSet
EndChar

StartChar: degree
Encoding: 113 176 112
Width: 705
Flags: W
LayerCount: 2
Fore
SplineSet
263.5 1180.5 m 128,-1,1
 294 1151 294 1151 349.5 1151 c 128,-1,2
 405 1151 405 1151 436 1183 c 128,-1,3
 467 1215 467 1215 467 1262 c 128,-1,4
 467 1309 467 1309 436.5 1337 c 128,-1,5
 406 1365 406 1365 351 1365 c 128,-1,6
 296 1365 296 1365 264.5 1334 c 128,-1,7
 233 1303 233 1303 233 1256.5 c 128,-1,0
 233 1210 233 1210 263.5 1180.5 c 128,-1,1
576.5 1350 m 0,8,9
 595 1313 595 1313 595 1263.5 c 0,10,11
 595 1169.59090909 595 1169.59090909 526.029296875 1116.29545455 c 128,-1,12
 457.05859375 1063 457.05859375 1063 349 1063 c 0,13,14
 187.444335938 1063 187.444335938 1063 128 1170 c 0,15,16
 108 1206 108 1206 108 1255.5 c 0,17,18
 108 1350.88405797 108 1350.88405797 179.897949219 1401.94202899 c 128,-1,19
 251.795898438 1453 251.795898438 1453 356 1453 c 0,20,21
 525 1453 525 1453 576.5 1350 c 0,8,9
EndSplineSet
EndChar

StartChar: plusminus
Encoding: 114 177 113
Width: 869
Flags: W
LayerCount: 2
Fore
SplineSet
690 167 m 2,0,1
 774 167 774 167 774 119 c 0,2,3
 774 53.2705078125 774 53.2705078125 708.5 51.5 c 0,4,5
 690 51 690 51 670 51 c 2,6,-1
 202 51 l 2,7,8
 140.904296875 51 140.904296875 51 127.952148438 67 c 128,-1,9
 115 83 115 83 115 114.22265625 c 0,10,11
 115 145.444335938 115 145.444335938 139.25 156.22265625 c 128,-1,12
 163.5 167 163.5 167 213 167 c 2,13,-1
 690 167 l 2,0,1
434 233 m 256,14,15
 353 233 353 233 353 325 c 2,16,-1
 353 551 l 1,17,-1
 133 551 l 2,18,19
 65.4443359375 551 65.4443359375 551 51 583.5 c 0,20,21
 45 597 45 597 45 631 c 0,22,23
 45 693 45 693 137 693 c 2,24,-1
 353 693 l 1,25,-1
 353 920 l 2,26,27
 353 1011 353 1011 425 1011 c 0,28,29
 473 1011 473 1011 492 988.5 c 128,-1,30
 511 966 511 966 511 917 c 2,31,-1
 511 693 l 1,32,-1
 728 693 l 2,33,34
 793.200195312 693 793.200195312 693 811.5 662.5 c 0,35,36
 819 650 819 650 819 615.5 c 128,-1,37
 819 581 819 581 796.5 566 c 128,-1,38
 774 551 774 551 725 551 c 2,39,-1
 511 551 l 1,40,-1
 511 321 l 2,41,42
 511 279 511 279 495 256 c 128,-1,43
 479 233 479 233 434 233 c 256,14,15
EndSplineSet
EndChar

StartChar: twosuperior
Encoding: 115 178 114
Width: 774
Flags: W
LayerCount: 2
Fore
SplineSet
138.5 732 m 0,0,1
 79 732 79 732 79 773.676757812 c 0,2,3
 79 838.44 79 838.44 206.909090909 894.72 c 0,4,5
 334.818181818 951 334.818181818 951 400.909090909 951 c 0,6,7
 524.457627119 951 524.457627119 951 590.728813559 889.90625 c 128,-1,8
 657 828.8125 657 828.8125 657 720 c 256,9,10
 657 483.825195312 657 483.825195312 216 120 c 1,11,-1
 484 120 l 2,12,13
 531.794921875 120 531.794921875 120 564 198.5 c 0,14,15
 572 218 572 218 575 233 c 1,16,-1
 584 242 l 1,17,18
 651.841796875 242 651.841796875 242 677.5 177 c 0,19,20
 685 158 685 158 685 122.5 c 0,21,22
 685 87 685 87 659.200195312 44 c 128,-1,23
 633.400390625 1 633.400390625 1 587 1 c 2,24,-1
 147 1 l 2,25,26
 108 1 108 1 79.5 23.5 c 128,-1,27
 51 46 51 46 51 88 c 0,28,29
 51 105 51 105 84 141 c 128,-1,30
 117 177 117 177 216.2 275.208 c 0,31,32
 315.4 373.416 315.4 373.416 382 456 c 0,33,34
 498 599.83984375 498 599.83984375 498 699 c 256,35,36
 498 755 498 755 468.5 787 c 128,-1,37
 439 819 439 819 390.5 819 c 128,-1,38
 342 819 342 819 303.5 805.5 c 128,-1,39
 265 792 265 792 232 775.5 c 128,-1,40
 199 759 199 759 174 745.5 c 128,-1,41
 149 732 149 732 138.5 732 c 0,0,1
EndSplineSet
EndChar

StartChar: threesuperior
Encoding: 116 179 115
Width: 806
Flags: W
LayerCount: 2
Fore
SplineSet
72 776 m 1,0,-1
 75 792 l 1,1,-1
 75 794 l 1,2,3
 151.974609375 908.036132812 151.974609375 908.036132812 315 942 c 0,4,5
 363 952 363 952 410 952 c 256,6,7
 574.658203125 952 574.658203125 952 636 841 c 0,8,9
 657 803 657 803 657 750 c 0,10,11
 657 640.741210938 657 640.741210938 509 564 c 1,12,13
 664.79296875 525.051757812 664.79296875 525.051757812 716.5 398 c 0,14,15
 734 355 734 355 734 290.5 c 128,-1,16
 734 226 734 226 704.5 166.5 c 128,-1,17
 675 107 675 107 624.5 66.5 c 0,18,19
 522.876953125 -15 522.876953125 -15 370 -15 c 0,20,21
 288.5859375 -15 288.5859375 -15 212.29296875 14.5 c 128,-1,22
 136 44 136 44 106 62.5 c 0,23,24
 38 104.43359375 38 104.43359375 38 152 c 0,25,26
 38 191 38 191 84 191 c 0,27,28
 95 191 95 191 119.5 175.5 c 0,29,30
 249.903225806 93 249.903225806 93 368 93 c 0,31,32
 446.211914062 93 446.211914062 93 506.605957031 150.100097656 c 128,-1,33
 567 207.200195312 567 207.200195312 567 287 c 0,34,35
 567 424.189453125 567 424.189453125 448 466 c 0,36,37
 411 479 411 479 377.181818182 479 c 0,38,39
 343.363636364 479 343.363636364 479 309 465.5 c 128,-1,40
 274.63671875 452 274.63671875 452 252.818359375 452 c 128,-1,41
 231 452 231 452 220 469.5 c 128,-1,42
 209 487 209 487 209 504 c 1,43,-1
 223 531 l 1,44,45
 246 543 246 543 274.5 555 c 128,-1,46
 303 567 303 567 354.027027027 590.351351351 c 0,47,48
 405.054054054 613.702702703 405.054054054 613.702702703 447.027027027 653.723421664 c 128,-1,49
 489 693.744140625 489 693.744140625 489 753.205566406 c 128,-1,50
 489 812.666992188 489 812.666992188 417.5 836.5 c 0,51,52
 398 843 398 843 354.5 843 c 128,-1,53
 311 843 311 843 249 813 c 128,-1,54
 187 783 187 783 139 737 c 1,55,-1
 120 730 l 1,56,57
 102 730 102 730 87 743.5 c 128,-1,58
 72 757 72 757 72 776 c 1,0,-1
EndSplineSet
EndChar

StartChar: acute
Encoding: 117 180 116
Width: 525
Flags: W
LayerCount: 2
Fore
SplineSet
110 1125 m 2,0,1
 110 1171.20019531 110 1171.20019531 161 1336.09960938 c 128,-1,2
 212 1501 212 1501 224 1540 c 128,-1,3
 236 1579 236 1579 247 1611 c 128,-1,4
 258 1643 258 1643 292 1673.5 c 128,-1,5
 326 1704 326 1704 375.660714286 1704 c 0,6,7
 425.321428571 1704 425.321428571 1704 460.660714286 1674.01513672 c 128,-1,8
 496 1644.03027344 496 1644.03027344 496 1595.09472656 c 128,-1,9
 496 1546.15917969 496 1546.15917969 335.187332181 1337.83367819 c 0,10,11
 174.374664362 1129.5081767 174.374664362 1129.5081767 124 1106 c 1,12,-1
 110 1120 l 1,13,-1
 110 1125 l 2,0,1
EndSplineSet
EndChar

StartChar: mu
Encoding: 118 181 117
Width: 1287
Flags: W
LayerCount: 2
Fore
SplineSet
346 39 m 1,0,1
 360.718978102 -143.517063173 360.718978102 -143.517063173 360.718978102 -215.776779762 c 128,-1,2
 360.718978102 -288.03649635 360.718978102 -288.03649635 341.859489051 -318.018248175 c 128,-1,3
 323 -348 323 -348 270.2 -348 c 0,4,5
 217.4 -348 217.4 -348 197.7 -315.166503906 c 128,-1,6
 178 -282.333007812 178 -282.333007812 178 -174.666992188 c 128,-1,7
 178 -67 178 -67 185.5 86 c 128,-1,8
 193 239 193 239 193 406 c 2,9,-1
 193 749 l 2,10,11
 193 824.055664062 193 824.055664062 122 828 c 0,12,13
 76.3076171875 830.538085938 76.3076171875 830.538085938 63.654296875 837.76953125 c 128,-1,14
 51 845 51 845 51 862 c 0,15,16
 51 910 51 910 108 937 c 128,-1,17
 165 964 165 964 236.5 964 c 128,-1,18
 308 964 308 964 332.5 955 c 128,-1,19
 357 946 357 946 371.5 926.0625 c 128,-1,20
 386 906.125 386 906.125 386 838 c 2,21,-1
 386 433 l 2,22,23
 386 278.25 386 278.25 417 220.125 c 128,-1,24
 448 162 448 162 495.5 135.5 c 128,-1,25
 543 109 543 109 636 109 c 128,-1,26
 729 109 729 109 787 136 c 128,-1,27
 845 163 845 163 873 208 c 128,-1,28
 901 253 901 253 907 312.5 c 128,-1,29
 913 372 913 372 913 437 c 2,30,-1
 912 749 l 2,31,32
 912 821.703125 912 821.703125 840.5 827.5 c 0,33,34
 792.997070312 831.3515625 792.997070312 831.3515625 781.499023438 837.67578125 c 128,-1,35
 770 844 770 844 770 861 c 0,36,37
 770 910 770 910 826.5 937 c 128,-1,38
 883 964 883 964 955 964 c 128,-1,39
 1027 964 1027 964 1051.5 955 c 128,-1,40
 1076 946 1076 946 1090.5 926.0625 c 128,-1,41
 1105 906.125 1105 906.125 1105 838 c 2,42,-1
 1106 198 l 2,43,44
 1106 128.918945312 1106 128.918945312 1178.5 125 c 0,45,46
 1225.71679688 122.448242188 1225.71679688 122.448242188 1238.35839844 115.223632812 c 128,-1,47
 1251 108 1251 108 1251 86 c 0,48,49
 1251 40 1251 40 1189.79980469 14.5 c 128,-1,50
 1128.59960938 -11 1128.59960938 -11 1061.79980469 -11 c 128,-1,51
 995 -11 995 -11 973.5 -1.5 c 128,-1,52
 952 8 952 8 938.5 32.5454101562 c 128,-1,53
 925 57.0908203125 925 57.0908203125 925 149 c 1,54,55
 833.193359375 15.462890625 833.193359375 15.462890625 654.5 -17.5 c 0,56,57
 603 -27 603 -27 555 -27 c 0,58,59
 426.903320312 -27 426.903320312 -27 346 39 c 1,0,1
EndSplineSet
EndChar

StartChar: paragraph
Encoding: 119 182 118
Width: 1022
Flags: W
LayerCount: 2
Fore
SplineSet
547.5 3 m 128,-1,1
 521 -21 521 -21 494.5 -21 c 0,2,3
 393 -21 393 -21 393 46 c 2,4,-1
 392 739 l 1,5,6
 236.973632812 741.348632812 236.973632812 741.348632812 126.5 806.5 c 0,7,8
 -7 885.23046875 -7 885.23046875 -7 1043.09960938 c 128,-1,9
 -7 1200.96875 -7 1200.96875 106.284667969 1296.73535156 c 128,-1,10
 219.569335938 1392.50195312 219.569335938 1392.50195312 482 1400 c 0,11,12
 552 1402 552 1402 592 1402 c 2,13,-1
 666.5 1402 l 2,14,15
 887.470703125 1402 887.470703125 1402 954.5 1322.5 c 0,16,17
 976 1297 976 1297 976 1269 c 128,-1,18
 976 1241 976 1241 964.056300268 1228.39276139 c 0,19,20
 952.112600536 1215.78552279 952.112600536 1215.78552279 916.5 1202 c 0,21,22
 855 1178.19354839 855 1178.19354839 855 1131 c 2,23,-1
 856 61 l 2,24,25
 856 25.5380859375 856 25.5380859375 827.909179688 1.76904296875 c 128,-1,26
 799.818359375 -22 799.818359375 -22 774.409179688 -22 c 0,27,28
 672 -22 672 -22 672 46 c 2,29,-1
 672 1290 l 1,30,-1
 573 1290 l 1,31,-1
 574 66 l 2,32,0
 574 27 574 27 547.5 3 c 128,-1,1
EndSplineSet
EndChar

StartChar: periodcentered
Encoding: 120 183 119
Width: 485
Flags: W
LayerCount: 2
Fore
SplineSet
384 791.424804688 m 0,0,1
 384 702.44 384 702.44 293 671.5 c 0,2,3
 268 663 268 663 230.482142857 663 c 0,4,5
 192.964285714 663 192.964285714 663 147.982142857 693.719726562 c 128,-1,6
 103 724.439453125 103 724.439453125 103 775 c 256,7,8
 103 826.584960938 103 826.584960938 148.903320312 861.292480469 c 128,-1,9
 194.806640625 896 194.806640625 896 245.435578377 896 c 0,10,11
 296.064516129 896 296.064516129 896 340.032258065 861.924804688 c 128,-1,12
 384 827.849609375 384 827.849609375 384 791.424804688 c 0,0,1
EndSplineSet
EndChar

StartChar: cedilla
Encoding: 121 184 120
Width: 584
Flags: W
LayerCount: 2
Fore
SplineSet
369 12 m 1,0,-1
 321 -128 l 1,1,-1
 322 -131 l 1,2,-1
 322 -128 l 1,3,4
 424.921875 -138.555664062 424.921875 -138.555664062 467.4609375 -160.778320312 c 0,5,6
 554 -205.985351562 554 -205.985351562 554 -291 c 256,7,8
 554 -377.7890625 554 -377.7890625 480.285644531 -421.39453125 c 128,-1,9
 406.571289062 -465 406.571289062 -465 326.619140625 -465 c 128,-1,10
 246.666992188 -465 246.666992188 -465 178.833007812 -446.5 c 128,-1,11
 111 -428 111 -428 84.5 -415.5 c 0,12,13
 24 -386.961914062 24 -386.961914062 24 -352 c 0,14,15
 24 -330 24 -330 39.5 -318.5 c 128,-1,16
 55 -307 55 -307 72.4287109375 -307 c 128,-1,17
 89.857421875 -307 89.857421875 -307 114.551269531 -318 c 128,-1,18
 139.245117188 -329 139.245117188 -329 144 -329 c 1,19,20
 207 -356 207 -356 242 -356 c 128,-1,21
 277 -356 277 -356 301 -342 c 128,-1,22
 325 -328 325 -328 325 -306 c 0,23,24
 325 -267.893617021 325 -267.893617021 275.21875 -250.946808511 c 128,-1,25
 225.4375 -234 225.4375 -234 177 -234 c 1,26,27
 206.911132812 -149.543945312 206.911132812 -149.543945312 239 -36 c 1,28,-1
 257 17 l 1,29,-1
 369 13 l 1,30,-1
 369 12 l 1,0,-1
EndSplineSet
EndChar

StartChar: onesuperior
Encoding: 122 185 121
Width: 531
Flags: W
LayerCount: 2
Fore
SplineSet
456 70 m 0,0,1
 456 0 456 0 325 0 c 2,2,-1
 233 0 l 2,3,4
 96 0 96 0 96 70 c 0,5,6
 96 97.3525390625 96 97.3525390625 171 115 c 0,7,8
 188 119 188 119 197 124 c 1,9,-1
 197 772 l 1,10,11
 190 775 190 775 173.5 779.5 c 0,12,13
 96 800.636363636 96 800.636363636 96 820 c 0,14,15
 96 869.352539062 96 869.352539062 170.583496094 895.676269531 c 128,-1,16
 245.166992188 922 245.166992188 922 284.083007812 922 c 128,-1,17
 323 922 323 922 333.5 916.5 c 0,18,19
 359 903.142857143 359 903.142857143 359 851 c 2,20,-1
 359 124 l 1,21,22
 368 119 368 119 384.5 115 c 0,23,24
 456 97.6666666667 456 97.6666666667 456 70 c 0,0,1
EndSplineSet
EndChar

StartChar: ordmasculine
Encoding: 123 186 122
Width: 1035
Flags: W
LayerCount: 2
Fore
SplineSet
197 647 m 128,-1,1
 80 766.126953125 80 766.126953125 80 949.434570312 c 128,-1,2
 80 1132.7421875 80 1132.7421875 211.754882812 1245.37109375 c 128,-1,3
 343.509765625 1358 343.509765625 1358 530.100585938 1358 c 128,-1,4
 716.69140625 1358 716.69140625 1358 835.845703125 1245.171875 c 128,-1,5
 955 1132.34472656 955 1132.34472656 955 945.248046875 c 128,-1,6
 955 758.150390625 955 758.150390625 821.9765625 643.075195312 c 128,-1,7
 688.954101562 528 688.954101562 528 501.4140625 528 c 128,-1,0
 313.875 528 313.875 528 197 647 c 128,-1,1
333.896484375 735.5 m 128,-1,9
 405.791992188 634 405.791992188 634 528.25 634 c 128,-1,10
 650.708984375 634 650.708984375 634 714.854492188 717.07421875 c 128,-1,11
 779 800.147460938 779 800.147460938 779 928.232421875 c 128,-1,12
 779 1056.31835938 779 1056.31835938 705.712890625 1156.15917969 c 128,-1,13
 632.42578125 1256 632.42578125 1256 508.694335938 1256 c 128,-1,14
 384.962890625 1256 384.962890625 1256 323.481445312 1171.59375 c 128,-1,15
 262 1087.18652344 262 1087.18652344 262 962.09375 c 128,-1,8
 262 837 262 837 333.896484375 735.5 c 128,-1,9
EndSplineSet
EndChar

StartChar: guillemotright
Encoding: 124 187 123
Width: 1191
Flags: W
LayerCount: 2
Fore
SplineSet
589 115.5 m 128,-1,1
 572 131 572 131 572 159.461538462 c 128,-1,2
 572 187.923076923 572 187.923076923 654.744186047 267.484794275 c 128,-1,3
 737.488372093 347.046511628 737.488372093 347.046511628 832.910689953 421.26397847 c 128,-1,4
 928.333007812 495.481445312 928.333007812 495.481445312 975 524 c 1,5,6
 916.05859375 555.204101562 916.05859375 555.204101562 808.029296875 639.602539062 c 128,-1,7
 700 724 700 724 636 782.256347656 c 128,-1,8
 572 840.512695312 572 840.512695312 572 867.756835938 c 128,-1,9
 572 895 572 895 589 910.5 c 128,-1,10
 606 926 606 926 626.5 926 c 0,11,12
 700.656716418 926 700.656716418 926 929.428898333 755.69182013 c 0,13,14
 1026.7826087 683.217391304 1026.7826087 683.217391304 1091.39130435 618.608695652 c 128,-1,15
 1156 554 1156 554 1156 530.5 c 0,16,17
 1156 457.366666667 1156 457.366666667 928.609791246 277.981057539 c 0,18,19
 834.342281879 203.614466816 834.342281879 203.614466816 748.701902658 151.807233408 c 128,-1,20
 663.061523438 100 663.061523438 100 634.530273438 100 c 128,-1,0
 606 100 606 100 589 115.5 c 128,-1,1
106 115.5 m 128,-1,22
 89 131 89 131 89 152 c 0,23,24
 89 215.393325304 89 215.393325304 345.994309719 417.523570495 c 0,25,26
 447.825195312 497.615234375 447.825195312 497.615234375 491 524 c 1,27,28
 428.26171875 557.213867188 428.26171875 557.213867188 322.630859375 640.607421875 c 128,-1,29
 217 724 217 724 153 782.256347656 c 128,-1,30
 89 840.512695312 89 840.512695312 89 867.756835938 c 128,-1,31
 89 895 89 895 106 910.5 c 128,-1,32
 123 926 123 926 143.5 926 c 0,33,34
 217.656716418 926 217.656716418 926 446.428898333 755.69182013 c 0,35,36
 543.782608696 683.217391304 543.782608696 683.217391304 608.391304348 618.608695652 c 128,-1,37
 673 554 673 554 673 530.5 c 0,38,39
 673 457.366666667 673 457.366666667 445.609791246 277.981057539 c 0,40,41
 351.342281879 203.614466816 351.342281879 203.614466816 265.701902658 151.807233408 c 128,-1,42
 180.061523438 100 180.061523438 100 151.530273438 100 c 128,-1,21
 123 100 123 100 106 115.5 c 128,-1,22
EndSplineSet
EndChar

StartChar: AE
Encoding: 135 198 134
Width: 2299
Flags: W
LayerCount: 2
Fore
SplineSet
2171.94238281 356 m 0,0,1
 2249.7109375 356 2249.7109375 356 2249.7109375 260.891601562 c 128,-1,2
 2249.7109375 165.784179688 2249.7109375 165.784179688 2168.12695312 80.8916015625 c 128,-1,3
 2086.54199219 -4 2086.54199219 -4 1979.7109375 -4 c 2,4,-1
 1218.7109375 0 l 2,5,6
 1076.7109375 0 1076.7109375 0 1036.7109375 10 c 0,7,8
 960.7109375 29 960.7109375 29 960.7109375 90 c 0,9,10
 960.7109375 120.470703125 960.7109375 120.470703125 999.7109375 128.5 c 0,11,12
 1016.7109375 132 1016.7109375 132 1035.7109375 134 c 0,13,14
 1110.7109375 141.89453125 1110.7109375 141.89453125 1110.7109375 215 c 2,15,-1
 1110.7109375 470 l 1,16,-1
 526.629882812 470 l 1,17,18
 316.963867188 190.154296875 316.963867188 190.154296875 307.396484375 164.077148438 c 128,-1,19
 297.830078125 138 297.830078125 138 309.362304688 134 c 1,20,-1
 308.729492188 135 l 1,21,22
 324.788085938 122.349609375 324.788085938 122.349609375 353.489257812 115.674804688 c 128,-1,23
 382.190429688 109 382.190429688 109 389.72265625 105 c 128,-1,24
 397.255859375 101 397.255859375 101 392.853515625 89 c 0,25,26
 360.202148438 0 360.202148438 0 135.202148438 0 c 0,27,28
 -24 0 -24 0 -24 64.5068359375 c 0,29,30
 -24 75.7705078125 -24 75.7705078125 -18.4287109375 90.9560546875 c 128,-1,31
 -12.857421875 106.142578125 -12.857421875 106.142578125 29.546875 117.108398438 c 128,-1,32
 71.951171875 128.075195312 71.951171875 128.075195312 110.3046875 146.795898438 c 128,-1,33
 148.657226562 165.516601562 148.657226562 165.516601562 192.279296875 221 c 1,34,-1
 985.79296875 1280 l 1,35,36
 986.432617188 1309 986.432617188 1309 993.036132812 1327 c 0,37,38
 1021.28515625 1404 1021.28515625 1404 1178.28515625 1404 c 2,39,-1
 2051.7109375 1404 l 2,40,41
 2131.64160156 1404 2131.64160156 1404 2176.17675781 1342.5 c 128,-1,42
 2220.7109375 1281 2220.7109375 1281 2220.7109375 1198 c 0,43,44
 2220.7109375 1050 2220.7109375 1050 2117.7109375 1050 c 0,45,46
 2050.64453125 1050 2050.64453125 1050 2027.67773438 1093.0625 c 128,-1,47
 2004.7109375 1136.125 2004.7109375 1136.125 2004.7109375 1211 c 2,48,-1
 2004.7109375 1262 l 1,49,-1
 2005.7109375 1286 l 1,50,-1
 1329.7109375 1286 l 1,51,-1
 1329.7109375 787 l 1,52,-1
 1758.7109375 787 l 1,53,54
 1767.80175781 796.090820312 1767.80175781 796.090820312 1791.25683594 841.045898438 c 128,-1,55
 1814.7109375 886 1814.7109375 886 1826.7109375 903.5 c 128,-1,56
 1838.7109375 921 1838.7109375 921 1849.7109375 921 c 0,57,58
 1962.7109375 921 1962.7109375 921 1962.7109375 729 c 0,59,60
 1962.7109375 602 1962.7109375 602 1910.7109375 550 c 0,61,62
 1888.7109375 528 1888.7109375 528 1865.2109375 528 c 128,-1,63
 1841.7109375 528 1841.7109375 528 1826.74023438 543.71875 c 128,-1,64
 1811.76953125 559.438476562 1811.76953125 559.438476562 1778.7109375 635 c 1,65,-1
 1777.7109375 636 l 2,66,67
 1777.7109375 637 1777.7109375 637 1757.7109375 672 c 1,68,-1
 1329.7109375 672 l 1,69,-1
 1329.7109375 131 l 1,70,-1
 1968.7109375 131 l 1,71,72
 1985.23730469 147.526367188 1985.23730469 147.526367188 2027.16308594 215.147460938 c 128,-1,73
 2069.08789062 282.76953125 2069.08789062 282.76953125 2102.13183594 319.384765625 c 128,-1,74
 2135.17480469 356 2135.17480469 356 2171.94238281 356 c 0,0,1
1112.6953125 1244.08203125 m 1,75,-1
 1112.79296875 1280 l 1,76,-1
 600.849609375 566 l 1,77,-1
 1110.7109375 566 l 1,78,-1
 1110.7109375 1190 l 2,79,80
 1110.7109375 1219.00683594 1110.7109375 1219.00683594 1112.6953125 1244.08203125 c 1,75,-1
EndSplineSet
EndChar

StartChar: Eth
Encoding: 145 208 144
Width: 1739
Flags: W
LayerCount: 2
Fore
SplineSet
228.5 664.5 m 6
 128.5 664.5 128.5 664.5 128.5 744.5 c 4
 128.5 824.5 128.5 824.5 250.5 824.5 c 6
 736.5 824.5 l 6
 826.5 824.5 826.5 824.5 826.5 744.5 c 4
 826.5 664.5 826.5 664.5 730.5 664.5 c 6
 228.5 664.5 l 6
EndSplineSet
Refer: 37 68 N 1 0 0 1 20 0 2
EndChar

StartChar: multiply
Encoding: 152 215 151
Width: 709
Flags: W
LayerCount: 2
Fore
SplineSet
344 519 m 1,0,-1
 186 361 l 2,1,2
 147 322 147 322 123.5 322 c 0,3,4
 100 322 100 322 75 347 c 128,-1,5
 50 372 50 372 50 398.5 c 128,-1,6
 50 425 50 425 88 463 c 2,7,-1
 244 620 l 1,8,-1
 83 780 l 1,9,10
 46 814.6875 46 814.6875 46 844.40625 c 0,11,12
 46 874.125 46 874.125 73.357421875 898.0625 c 128,-1,13
 100.713867188 922 100.713867188 922 126.857421875 922 c 128,-1,14
 153 922 153 922 191 884 c 2,15,-1
 350 725 l 1,16,-1
 506 882 l 2,17,18
 545 921 545 921 572.478515625 921 c 0,19,20
 599.956054688 921 599.956054688 921 622.478515625 893.736328125 c 128,-1,21
 645 866.473632812 645 866.473632812 645 843.236328125 c 128,-1,22
 645 820 645 820 604 779 c 2,23,-1
 450 624 l 1,24,-1
 613 462 l 2,25,26
 649 426 649 426 649 400.818359375 c 0,27,28
 649 375.63671875 649 375.63671875 623.826171875 349.318359375 c 128,-1,29
 598.65234375 323 598.65234375 323 568.826171875 323 c 128,-1,30
 539 323 539 323 504 358 c 2,31,-1
 344 519 l 1,0,-1
EndSplineSet
EndChar

StartChar: Oslash
Encoding: 153 216 152
Width: 1759
Flags: W
LayerCount: 2
Fore
SplineSet
533 -139 m 2,0,1
 513 -179 513 -179 484 -179 c 128,-1,2
 455 -179 455 -179 436 -164 c 128,-1,3
 417 -149 417 -149 417 -125 c 128,-1,4
 417 -101 417 -101 427 -81 c 2,5,-1
 1186 1516 l 2,6,7
 1202.65039062 1553 1202.65039062 1553 1236.32519531 1553 c 0,8,9
 1310 1553 1310 1553 1310 1493 c 0,10,11
 1310 1483 1310 1483 1305 1466 c 1,12,-1
 533 -139 l 2,0,1
855.587840113 1293 m 128,-1,14
 569.270507812 1293 569.270507812 1293 410.135253906 1125.43359375 c 128,-1,15
 251 957.8671875 251 957.8671875 251 713.562988281 c 128,-1,16
 251 469.258789062 251 469.258789062 424.214355469 289.629394531 c 128,-1,17
 597.428710938 110 597.428710938 110 869.942382812 110 c 128,-1,18
 1142.45605469 110 1142.45605469 110 1313.72802734 274.869140625 c 128,-1,19
 1485 439.73828125 1485 439.73828125 1485 683.804920442 c 128,-1,20
 1485 927.871559633 1485 927.871559633 1313.45258621 1110.43577982 c 128,-1,13
 1141.90517241 1293 1141.90517241 1293 855.587840113 1293 c 128,-1,14
448 58.5 m 128,-1,22
 258.384656141 141.971972025 258.384656141 141.971972025 145.19232807 297.354150075 c 128,-1,23
 32 452.736328125 32 452.736328125 32 637.368164062 c 0,24,25
 32 986.473214286 32 986.473214286 270.153320312 1201.23660714 c 128,-1,26
 508.306640625 1416 508.306640625 1416 861.416503906 1416 c 128,-1,27
 1214.52636719 1416 1214.52636719 1416 1454 1241 c 0,28,29
 1613.359375 1124.54492188 1613.359375 1124.54492188 1675.5 947 c 0,30,31
 1707 857 1707 857 1707 749.5 c 0,32,33
 1707 531.733333333 1707 531.733333333 1598.61398893 354.186724727 c 128,-1,34
 1490.22797786 176.640116121 1490.22797786 176.640116121 1296.81807056 75.8200580604 c 128,-1,35
 1103.40816327 -25 1103.40816327 -25 870.543587805 -25 c 129,-1,21
 637.679012346 -25 637.679012346 -25 448 58.5 c 128,-1,22
EndSplineSet
EndChar

StartChar: Thorn
Encoding: 159 222 158
Width: 1336
Flags: W
LayerCount: 2
Fore
SplineSet
465 1154 m 1,0,-1
 567 1154 l 2,1,2
 776.952148438 1154 776.952148438 1154 873.9765625 1141.5 c 0,3,4
 1078.55078125 1115.14355469 1078.55078125 1115.14355469 1176.5 1051 c 0,5,6
 1300 970.124023438 1300 970.124023438 1300 822 c 0,7,8
 1300 566.631835938 1300 566.631835938 1004.5 478.5 c 0,9,10
 821.764648438 424 821.764648438 424 528 424 c 2,11,-1
 465 424 l 1,12,-1
 465 172 l 2,13,14
 465 140.704101562 465 140.704101562 548 127.5 c 128,-1,15
 631 114.295898438 631 114.295898438 631 90 c 0,16,17
 631 28.5478515625 631 28.5478515625 555.5 12 c 0,18,19
 505.3125 1 505.3125 1 352 1 c 256,20,21
 198.6875 1 198.6875 1 155.34375 10.5 c 128,-1,22
 112 20 112 20 92 38.5 c 128,-1,23
 72 57 72 57 72 79.5 c 128,-1,24
 72 102 72 102 89.0634765625 111.555664062 c 0,25,26
 106.125976562 121.110351562 106.125976562 121.110351562 172.563476562 130.380859375 c 128,-1,27
 239 139.651367188 239 139.651367188 239 172 c 2,28,-1
 239 1232 l 2,29,30
 239 1261.90722656 239 1261.90722656 155.5 1275.5 c 128,-1,31
 72 1289.09277344 72 1289.09277344 72 1314 c 0,32,33
 72 1375.23242188 72 1375.23242188 148.5 1392 c 0,34,35
 198.6875 1403 198.6875 1403 352 1403 c 256,36,37
 505.3125 1403 505.3125 1403 548.65625 1393.5 c 128,-1,38
 592 1384 592 1384 611.5 1365.5 c 128,-1,39
 631 1347 631 1347 631 1324.5 c 128,-1,40
 631 1302 631 1302 615.666015625 1293.41308594 c 0,41,42
 600.331054688 1284.82519531 600.331054688 1284.82519531 532.666015625 1274.06054688 c 128,-1,43
 465 1263.29589844 465 1263.29589844 465 1232 c 2,44,-1
 465 1154 l 1,0,-1
585 540 m 2,45,46
 1074 540 1074 540 1074 803.5 c 0,47,48
 1074 938.81640625 1074 938.81640625 934.5 993.5 c 0,49,50
 828.6328125 1035 828.6328125 1035 633 1035 c 2,51,-1
 551.5 1035 l 2,52,53
 474 1035 474 1035 465 1023 c 1,54,-1
 465 543 l 1,55,56
 498 540 498 540 536 540 c 2,57,-1
 585 540 l 2,45,46
EndSplineSet
EndChar

StartChar: germandbls
Encoding: 160 223 159
Width: 1178
Flags: W
LayerCount: 2
Fore
SplineSet
535 717 m 0,0,1
 505 717 505 717 505 757 c 0,2,3
 505 811.321289062 505 811.321289062 568.5 827 c 0,4,5
 661.752929688 850.025390625 661.752929688 850.025390625 719.876953125 911.262695312 c 128,-1,6
 778 972.5 778 972.5 778 1034.75 c 0,7,8
 778 1153.34570312 778 1153.34570312 720.076171875 1229.17285156 c 128,-1,9
 662.15234375 1305 662.15234375 1305 568.720703125 1305 c 128,-1,10
 475.288085938 1305 475.288085938 1305 437.14453125 1250.109375 c 128,-1,11
 399 1195.21972656 399 1195.21972656 399 1041 c 2,12,-1
 399 90 l 2,13,14
 399 28.79296875 399 28.79296875 373.66796875 13.943359375 c 128,-1,15
 348.3359375 -0.90625 348.3359375 -0.90625 303.009765625 -0.90625 c 0,16,17
 149.624023438 -0.90625 149.624023438 -0.90625 100 11.5 c 0,18,19
 30 29 30 29 30 90 c 0,20,21
 30 120.470703125 30 120.470703125 69 128.5 c 0,22,23
 86 132 86 132 105 134 c 0,24,25
 180 141.89453125 180 141.89453125 180 215 c 2,26,-1
 180 950 l 2,27,28
 180 1176.51855469 180 1176.51855469 249.5 1277 c 0,29,30
 337.341796875 1404 337.341796875 1404 565 1404 c 0,31,32
 730.325195312 1404 730.325195312 1404 840.662109375 1310.97070312 c 128,-1,33
 951 1217.94140625 951 1217.94140625 951 1100.6640625 c 128,-1,34
 951 983.38671875 951 983.38671875 911 929.193359375 c 0,35,36
 833.201171875 823.788085938 833.201171875 823.788085938 650 773 c 1,37,38
 882.255859375 757.64453125 882.255859375 757.64453125 1011.62792969 642.87890625 c 128,-1,39
 1141 528.11328125 1141 528.11328125 1141 347.732421875 c 128,-1,40
 1141 167.352539062 1141 167.352539062 1034.41992188 70.17578125 c 128,-1,41
 927.838867188 -27 927.838867188 -27 791.955078125 -27 c 128,-1,42
 656.071289062 -27 656.071289062 -27 564.53515625 32.6044921875 c 128,-1,43
 473 92.208984375 473 92.208984375 473 188 c 0,44,45
 473 237.400390625 473 237.400390625 504.5 264.700195312 c 128,-1,46
 536 292 536 292 585 292 c 128,-1,47
 634 292 634 292 664.5 257 c 128,-1,48
 695 222 695 222 695 174.833007812 c 128,-1,49
 695 127.666992188 695 127.666992188 690 76 c 1,50,51
 730.840820312 58.8037109375 730.840820312 58.8037109375 766.264648438 58.8037109375 c 0,52,53
 842.763671875 58.8037109375 842.763671875 58.8037109375 891.381835938 134.90234375 c 128,-1,54
 940 211 940 211 940 296.5 c 0,55,56
 940 469.237304688 940 469.237304688 833.060546875 593.119140625 c 128,-1,57
 726.120117188 717 726.120117188 717 535 717 c 0,0,1
EndSplineSet
EndChar

StartChar: ae
Encoding: 167 230 166
Width: 1684
Flags: W
LayerCount: 2
Fore
SplineSet
811 171 m 1,0,1
 671.71479841 -24 671.71479841 -24 374 -24 c 0,2,3
 251.80952381 -24 251.80952381 -24 154.904761905 41.6450195312 c 128,-1,4
 58 107.290039062 58 107.290039062 58 242 c 0,5,6
 58 411.640625 58 411.640625 233.5 481.5 c 0,7,8
 327.266601562 518.82421875 327.266601562 518.82421875 419.1328125 530.912109375 c 128,-1,9
 511 543 511 543 595.976074219 553.096191406 c 128,-1,10
 680.952148438 563.192382812 680.952148438 563.192382812 717 582 c 1,11,12
 717 724.837890625 717 724.837890625 694.5 775.918945312 c 0,13,14
 648.870909566 879.509259259 648.870909566 879.509259259 527.953875171 879.509259259 c 128,-1,15
 407.218323587 879.509259259 407.218323587 879.509259259 359.609161793 822.97337963 c 128,-1,16
 312 766.4375 312 766.4375 312 661 c 1,17,-1
 313 639 l 1,18,19
 275.5 634 275.5 634 238 634 c 128,-1,20
 200.5 634 200.5 634 151.75 662.166503906 c 128,-1,21
 103 690.333007812 103 690.333007812 103 737.166992188 c 0,22,23
 103 818.882352941 103 818.882352941 171.273670558 871.091630426 c 0,24,25
 308.461538462 976 308.461538462 976 539.130671575 976 c 128,-1,26
 769.799804688 976 769.799804688 976 849 823 c 1,27,28
 993.5 976 993.5 976 1215 976 c 0,29,30
 1384.05859375 976 1384.05859375 976 1502.52929688 867.135253906 c 128,-1,31
 1621 758.270507812 1621 758.270507812 1621 588 c 0,32,33
 1621 516.688476562 1621 516.688476562 1534.5 509 c 0,34,35
 1512 507 1512 507 1493 507 c 2,36,-1
 914 507 l 1,37,38
 916.012695312 345.954101562 916.012695312 345.954101562 1017.93505859 234.477050781 c 128,-1,39
 1119.85742188 123 1119.85742188 123 1279 123 c 0,40,41
 1381.80664062 123 1381.80664062 123 1481 184.5 c 0,42,43
 1531.80664062 216 1531.80664062 216 1545 216 c 256,44,45
 1577 216 1577 216 1594.5 181 c 0,46,47
 1599 172 1599 172 1599 166.5 c 128,-1,48
 1599 161 1599 161 1586.5 137.5 c 128,-1,49
 1574 114 1574 114 1533 80 c 0,50,51
 1403.97058824 -27 1403.97058824 -27 1212.17675781 -27 c 0,52,53
 1089 -27 1089 -27 983 25.5 c 128,-1,54
 877 78 877 78 811 171 c 1,0,1
471 80 m 0,55,56
 537 80 537 80 590.5 111.5 c 128,-1,57
 644 143 644 143 672 198.5 c 0,58,59
 717 287.696289062 717 287.696289062 717 492 c 1,60,61
 666.563476562 473.842773438 666.563476562 473.842773438 564.782226562 458.421875 c 128,-1,62
 463 443 463 443 419 433.5 c 0,63,64
 271 401.545454545 271 401.545454545 271 252 c 0,65,66
 271 80 271 80 471 80 c 0,55,56
1158 608 m 2,67,68
 1299 608 1299 608 1437 612 c 1,69,70
 1433.77832031 789.201171875 1433.77832031 789.201171875 1304 851 c 0,71,72
 1262 871 1262 871 1209.5 871 c 0,73,74
 1103.61971831 871 1103.61971831 871 1016.72294509 792.902832031 c 128,-1,75
 929.826171875 714.805664062 929.826171875 714.805664062 924 608 c 1,76,-1
 1158 608 l 2,67,68
EndSplineSet
EndChar

StartChar: eth
Encoding: 177 240 176
Width: 1155
Flags: W
LayerCount: 2
Fore
SplineSet
875 556.25 m 0,0,1
 875 258.717773438 875 258.717773438 712 157.5 c 0,2,3
 650 119 650 119 558.5 119 c 0,4,5
 388.754882812 119 388.754882812 119 297.377929688 217.73046875 c 128,-1,6
 206 316.459960938 206 316.459960938 206 454.9296875 c 128,-1,7
 206 593.400390625 206 593.400390625 301.2734375 698.200195312 c 128,-1,8
 396.545898438 803 396.545898438 803 557.861328125 803 c 128,-1,9
 719.176757812 803 719.176757812 803 857 737 c 1,10,11
 875 642.5 875 642.5 875 556.25 c 0,0,1
854 839 m 1,12,13
 709.552734375 932 709.552734375 932 539 932 c 0,14,15
 323.111328125 932 323.111328125 932 172.555664062 808.818359375 c 128,-1,16
 22 685.63671875 22 685.63671875 22 469 c 0,17,18
 22 138.4140625 22 138.4140625 313 18 c 0,19,20
 421.75 -27 421.75 -27 538.875 -27 c 0,21,22
 785.533203125 -27 785.533203125 -27 933.5 120 c 0,23,24
 1101 286.405273438 1101 286.405273438 1101 584.659179688 c 0,25,26
 1101 1121.03125 1101 1121.03125 606 1384 c 0,27,28
 426.494140625 1479.36230469 426.494140625 1479.36230469 233 1512 c 1,29,-1
 224 1513 l 1,30,31
 185.782226562 1513 185.782226562 1513 171 1470.5 c 0,32,33
 167 1459 167 1459 167 1445.5 c 0,34,35
 167 1409.41210938 167 1409.41210938 202 1398.70605469 c 0,36,37
 324.012695312 1361.38378906 324.012695312 1361.38378906 401 1325.5 c 0,38,39
 724.961914062 1174.50097656 724.961914062 1174.50097656 854 839 c 1,12,13
EndSplineSet
EndChar

